<?xml version="1.0" encoding="utf-8"?>
<!-- Generator: Adobe Illustrator 27.0.0, SVG Export Plug-In . SVG Version: 6.00 Build 0)  -->
<svg version="1.1" id="a" xmlns="http://www.w3.org/2000/svg" xmlns:xlink="http://www.w3.org/1999/xlink" x="0px" y="0px"
	 viewBox="0 0 101 183.4" style="enable-background:new 0 0 101 183.4;" xml:space="preserve">
<style type="text/css">
	.st0{fill:none;stroke:#FFFFFF;stroke-miterlimit:10;}
</style>
<path class="st0" d="M51,1c9.4,0,17,7.6,17,17s-7.6,17-17,17s-17-7.6-17-17S41.7,1,51,1"/>
<path class="st0" d="M64.5,38.5c4.2,0,7.2,1.8,8.8,5.2c0.6,1.2,2.3,4.7,4.6,9.4c6.9,14.2,21.3,43.6,21.9,45.9c0.8,2.9,0.2,6.6-3.5,8
	c-1.1,0.4-2.2,0.7-3.2,0.7c-3.5,0-5.5-2.4-5.9-2.8L73.2,76.4c-0.2-0.3-0.5-0.6-0.9-0.6c-0.1,0-0.2,0-0.2,0c-0.4,0.1-0.8,0.5-0.8,1
	l0.6,47.1v51.7c0,0,0,0.1,0,0.1c0,0,0.2,2.5-1.4,4.4c-1.3,1.5-3.5,2.2-6.4,2.2c-8.6,0-9.6-4.3-9.6-7.5v-51.3c0-0.6-0.5-1-1-1h-5.7
	c-0.5,0-1,0.4-1,1v51.3c0,3.2-1,7.5-9.6,7.5c-3,0-5.1-0.7-6.5-2.2c-1.7-1.9-1.4-4.3-1.4-4.4c0,0,0-0.1,0-0.1v-51.7l0.4-46.7
	c0-0.5-0.3-0.9-0.8-1c-0.1,0-0.1,0-0.2,0c-0.4,0-0.7,0.2-0.9,0.6l-13.7,28c-0.4,0.4-2.4,2.8-5.9,2.8c-1,0-2.1-0.2-3.2-0.7
	c-3.7-1.4-4.2-5.1-3.5-8C1.9,96.7,16.2,67.2,23.2,53c2.3-4.7,4-8.1,4.6-9.4c1.6-3.5,4.6-5.2,8.9-5.2L64.5,38.5"/>
</svg>
