<?xml version="1.0" encoding="UTF-8"?><svg id="a" xmlns="http://www.w3.org/2000/svg" viewBox="0 0 492.83 114.6"><defs><style>.b{opacity:.75;}.b,.c,.d{fill:none;stroke:#268fcc;stroke-miterlimit:10;stroke-width:2px;}.e{fill:#390052;}.d{opacity:.5;}</style></defs><g><g><path class="c" d="M269.31,60.53c-9.12-7.52-14.93-18.91-14.93-31.66,0-10.92,4.26-20.84,11.22-28.19"/><path class="b" d="M284.24,60.53c-9.12-7.52-14.93-18.91-14.93-31.66,0-10.92,4.26-20.84,11.22-28.19"/><path class="d" d="M298.76,60.53c-9.12-7.52-14.93-18.91-14.93-31.66,0-10.92,4.26-20.84,11.22-28.19"/></g><g><path class="c" d="M222.98,60.53c9.12-7.52,14.93-18.91,14.93-31.66,0-10.92-4.26-20.84-11.22-28.19"/><path class="b" d="M208.05,60.53c9.12-7.52,14.93-18.91,14.93-31.66,0-10.92-4.26-20.84-11.22-28.19"/><path class="d" d="M193.53,60.53c9.12-7.52,14.93-18.91,14.93-31.66,0-10.92-4.26-20.84-11.22-28.19"/></g></g><g><path class="e" d="M19.12,101.29c-1.1,3.73-3.86,6.55-8.83,6.55-6.74,0-10.29-5.35-10.29-11.95s3.48-12.08,10.33-12.08c5.08,0,8.06,2.83,8.82,6.75h-1.88c-1.06-3.02-3.02-5.02-7.05-5.02-5.79,0-8.21,5.29-8.21,10.32s2.39,10.26,8.35,10.26c3.8,0,5.73-1.98,6.88-4.83h1.88Z"/><path class="e" d="M23.97,99.42c.03,4.27,2.19,6.94,5.38,6.94s4.18-1.75,4.78-3.12h1.77c-.7,2.21-2.48,4.74-6.62,4.74-5.1,0-7.09-4.38-7.09-8.64,0-4.8,2.39-8.91,7.29-8.91,5.17,0,6.82,4.45,6.82,7.62,0,.47,0,.94-.03,1.38h-12.3Zm10.53-1.5c-.03-3.29-1.82-5.88-5.08-5.88-3.42,0-4.98,2.39-5.35,5.88h10.43Z"/><path class="e" d="M40.36,95.04c0-1.47,0-2.88-.03-4.22h1.71c.07,.53,.1,2.69,.07,3.16,.73-1.69,2.11-3.56,5.55-3.56,2.99,0,5.63,1.69,5.63,6.3v10.85h-1.74v-10.58c0-2.96-1.23-4.89-4.12-4.89-3.94,0-5.31,3.27-5.31,6.9v8.56h-1.74v-12.53Z"/><path class="e" d="M56.14,90.82h3.1v-5.21h1.74v5.21h3.97v1.62h-3.97v10.83c0,1.86,.4,2.92,2,2.92,.5,0,1.19-.03,1.73-.2v1.51c-.58,.24-1.39,.3-2.1,.3-2.17,0-3.37-1.09-3.37-3.77v-11.6h-3.1v-1.62Z"/><path class="e" d="M68.62,99.42c.03,4.27,2.19,6.94,5.38,6.94s4.18-1.75,4.78-3.12h1.77c-.7,2.21-2.48,4.74-6.62,4.74-5.1,0-7.09-4.38-7.09-8.64,0-4.8,2.39-8.91,7.29-8.91,5.17,0,6.82,4.45,6.82,7.62,0,.47,0,.94-.03,1.38h-12.3Zm10.53-1.5c-.03-3.29-1.82-5.88-5.08-5.88-3.42,0-4.98,2.39-5.35,5.88h10.43Z"/><path class="e" d="M85.01,95.38c0-2.79-.03-4-.03-4.56h1.71c.03,.53,.07,1.62,.07,3.73,.97-2.5,3.1-4,5.82-4.14v1.87c-3.48,.23-5.82,2.61-5.82,6.61v8.68h-1.74v-12.2Z"/><path class="e" d="M105.07,107.57v-15.13h-2.87v-1.62h2.87v-2.36c0-2.83,.82-5.89,4.57-5.89,.51,0,1.25,.1,1.65,.23v1.65c-.5-.13-1.29-.2-1.79-.2-1.96,0-2.7,1.39-2.7,4.28v2.29h3.64v1.62h-3.64v15.13h-1.74Z"/><path class="e" d="M126.71,99.17c0,4.67-2.59,8.81-7.59,8.81-4.54,0-7.36-3.72-7.36-8.78s2.66-8.78,7.53-8.78c4.47,0,7.42,3.48,7.42,8.74Zm-13.1,.03c0,3.97,2.13,7.16,5.65,7.16s5.61-2.96,5.61-7.16c0-3.94-1.99-7.16-5.68-7.16s-5.58,3.15-5.58,7.16Z"/><path class="e" d="M130.84,95.38c0-2.79-.03-4-.03-4.56h1.71c.03,.53,.07,1.62,.07,3.73,.97-2.5,3.1-4,5.82-4.14v1.87c-3.48,.23-5.82,2.61-5.82,6.61v8.68h-1.74v-12.2Z"/><path class="e" d="M151.23,101.27c.7,3.1,2.77,4.92,6.59,4.92,4.25,0,5.88-2.12,5.88-4.64s-1.17-4.25-6.3-5.52c-4.98-1.24-7.11-2.87-7.11-6.24,0-3.1,2.26-5.98,7.29-5.98s7.36,3.15,7.66,6.01h-1.94c-.53-2.49-2.15-4.29-5.82-4.29-3.35,0-5.18,1.56-5.18,4.15s1.53,3.55,5.83,4.62c6.6,1.64,7.58,4.28,7.58,7.1,0,3.46-2.53,6.44-7.96,6.44-5.86,0-8.02-3.4-8.46-6.57h1.94Z"/><path class="e" d="M169.54,90.82c3.35,9.5,4.82,13.48,5.38,15.28h.03c.66-2.04,2-5.92,5.22-15.28h1.81l-6.28,17.71c-1.77,4.96-2.98,6.07-6.02,6.07-.6,0-1.01-.03-1.56-.1v-1.72c.5,.07,.97,.1,1.5,.1,2.4,0,3.17-1.16,4.39-4.58l-6.39-17.48h1.91Z"/><path class="e" d="M185.5,95.14c0-1.44,0-3.01-.03-4.32h1.7c.03,.57,.1,2,.07,2.96,.71-1.67,2.24-3.36,5.02-3.36,2.35,0,4.18,1.17,4.85,3.3,.84-1.73,2.51-3.3,5.45-3.3,2.59,0,5.26,1.48,5.26,6.13v11.02h-1.74v-10.81c0-2.23-.8-4.65-3.89-4.65s-4.68,2.58-4.68,5.82v9.65h-1.71v-10.78c0-2.43-.73-4.69-3.79-4.69-3.22,0-4.78,2.84-4.78,6.25v9.22h-1.74v-12.43Z"/><path class="e" d="M215.02,105.12v9.15h-1.74v-19.33c0-1.37,0-2.84-.03-4.12h1.71c.07,.63,.07,1.64,.07,2.99,1.03-1.99,2.87-3.4,5.87-3.4,3.95,0,6.7,3.31,6.7,8.34,0,6.03-3.22,9.21-7.27,9.21-2.94,0-4.47-1.3-5.3-2.86Zm10.73-6.29c0-3.87-1.86-6.76-5.15-6.76-4.02,0-5.68,2.53-5.68,7.06s1.3,7.22,5.45,7.22c3.46,0,5.39-2.92,5.39-7.52Z"/><path class="e" d="M243.3,104.37c0,1.48,.13,2.68,.23,3.21h-1.67c-.13-.4-.23-1.14-.3-2.56-.57,1.23-2.04,2.96-5.48,2.96-3.89,0-5.57-2.52-5.57-5.03,0-3.69,2.85-5.37,7.88-5.37h3.17v-1.69c0-1.67-.5-3.89-4.28-3.89-3.35,0-3.85,1.75-4.22,3.12h-1.74c.2-1.87,1.36-4.71,5.99-4.71,3.83,0,5.99,1.61,5.99,5.3v8.64Zm-1.71-5.31h-3.25c-3.7,0-5.98,.97-5.98,3.82,0,2.09,1.49,3.52,3.82,3.52,4.75,0,5.41-3.16,5.41-6.74v-.6Z"/><path class="e" d="M246.13,90.82h3.1v-5.21h1.74v5.21h3.97v1.62h-3.97v10.83c0,1.86,.4,2.92,2,2.92,.5,0,1.19-.03,1.73-.2v1.51c-.58,.24-1.39,.3-2.1,.3-2.17,0-3.37-1.09-3.37-3.77v-11.6h-3.1v-1.62Z"/><path class="e" d="M260.01,82.91v10.71c.93-1.73,2.57-3.2,5.51-3.2,2.4,0,5.66,1.22,5.66,6.5v10.66h-1.74v-10.31c0-3.29-1.49-5.15-4.25-5.15-3.3,0-5.18,2.04-5.18,6.13v9.34h-1.74v-24.67h1.74Z"/><path class="e" d="M277.09,99.42c.03,4.27,2.19,6.94,5.38,6.94s4.18-1.75,4.78-3.12h1.77c-.7,2.21-2.48,4.74-6.62,4.74-5.1,0-7.09-4.38-7.09-8.64,0-4.8,2.39-8.91,7.29-8.91,5.17,0,6.82,4.45,6.82,7.62,0,.47,0,.94-.03,1.38h-12.3Zm10.53-1.5c-.03-3.29-1.82-5.88-5.08-5.88-3.42,0-4.98,2.39-5.35,5.88h10.43Z"/><path class="e" d="M291.26,90.82h3.1v-5.21h1.74v5.21h3.97v1.62h-3.97v10.83c0,1.86,.4,2.92,2,2.92,.5,0,1.2-.03,1.73-.2v1.51c-.58,.24-1.39,.3-2.1,.3-2.17,0-3.37-1.09-3.37-3.77v-11.6h-3.1v-1.62Z"/><path class="e" d="M303.49,82.91h1.74v3.27h-1.74v-3.27Zm0,7.92h1.74v16.75h-1.74v-16.75Z"/><path class="e" d="M323.06,102.64c-.8,2.95-2.74,5.34-6.52,5.34-4.21,0-7.19-3.13-7.19-8.71,0-4.6,2.46-8.85,7.39-8.85,4.29,0,6.02,3.04,6.32,5.37h-1.77c-.5-1.93-1.76-3.75-4.58-3.75-3.52,0-5.51,2.99-5.51,7.16s1.86,7.16,5.35,7.16c2.43,0,3.89-1.23,4.75-3.72h1.77Z"/><path class="e" d="M338.04,84.15v23.43h-1.88v-23.43h1.88Z"/><path class="e" d="M343.76,95.04c0-1.47,0-2.88-.03-4.22h1.71c.07,.53,.1,2.69,.07,3.16,.73-1.69,2.11-3.56,5.55-3.56,2.99,0,5.63,1.69,5.63,6.3v10.85h-1.74v-10.58c0-2.96-1.23-4.89-4.12-4.89-3.94,0-5.31,3.27-5.31,6.9v8.56h-1.74v-12.53Z"/><path class="e" d="M359.54,90.82h3.1v-5.21h1.74v5.21h3.97v1.62h-3.97v10.83c0,1.86,.4,2.92,2,2.92,.5,0,1.2-.03,1.73-.2v1.51c-.58,.24-1.39,.3-2.1,.3-2.17,0-3.37-1.09-3.37-3.77v-11.6h-3.1v-1.62Z"/><path class="e" d="M372.02,99.42c.03,4.27,2.19,6.94,5.38,6.94s4.18-1.75,4.78-3.12h1.77c-.7,2.21-2.48,4.74-6.62,4.74-5.1,0-7.09-4.38-7.09-8.64,0-4.8,2.39-8.91,7.29-8.91,5.17,0,6.82,4.45,6.82,7.62,0,.47,0,.94-.03,1.38h-12.3Zm10.53-1.5c-.03-3.29-1.82-5.88-5.08-5.88-3.42,0-4.98,2.39-5.35,5.88h10.43Z"/><path class="e" d="M388.54,107.57v-24.67h1.74v24.67h-1.74Z"/><path class="e" d="M395.74,107.57v-24.67h1.74v24.67h-1.74Z"/><path class="e" d="M402.94,82.91h1.74v3.27h-1.74v-3.27Zm0,7.92h1.74v16.75h-1.74v-16.75Z"/><path class="e" d="M422.99,106.42c0,5.36-2.37,8.19-7.26,8.19-4.39,0-6.19-2.47-6.59-5h1.78c.6,2.29,2.48,3.38,4.88,3.38,4.33,0,5.52-2.79,5.52-7.03v-1.72c-.9,2.16-2.54,3.33-5.58,3.33-3.93,0-6.93-3.19-6.93-8.37,0-5.62,3.21-8.78,7.17-8.78,3.41,0,4.87,1.6,5.34,2.93,.03-.96,.07-2.13,.1-2.53h1.64c0,.62-.07,3.25-.07,4.86v10.74Zm-12.34-7.29c0,3.96,2.1,6.82,5.29,6.82,4.16,0,5.42-2.76,5.42-7.08s-1.32-6.82-5.32-6.82-5.39,3.28-5.39,7.09Z"/><path class="e" d="M428.89,99.42c.03,4.27,2.19,6.94,5.38,6.94s4.18-1.75,4.78-3.12h1.77c-.7,2.21-2.48,4.74-6.62,4.74-5.1,0-7.09-4.38-7.09-8.64,0-4.8,2.39-8.91,7.29-8.91,5.17,0,6.82,4.45,6.82,7.62,0,.47,0,.94-.03,1.38h-12.3Zm10.53-1.5c-.03-3.29-1.82-5.88-5.08-5.88-3.42,0-4.98,2.39-5.35,5.88h10.43Z"/><path class="e" d="M445.28,95.04c0-1.47,0-2.88-.03-4.22h1.71c.07,.53,.1,2.69,.07,3.16,.73-1.69,2.11-3.56,5.55-3.56,2.99,0,5.63,1.69,5.63,6.3v10.85h-1.74v-10.58c0-2.96-1.23-4.89-4.12-4.89-3.94,0-5.31,3.27-5.31,6.9v8.56h-1.74v-12.53Z"/><path class="e" d="M476.03,102.64c-.8,2.95-2.74,5.34-6.52,5.34-4.21,0-7.19-3.13-7.19-8.71,0-4.6,2.46-8.85,7.39-8.85,4.29,0,6.02,3.04,6.32,5.37h-1.77c-.5-1.93-1.76-3.75-4.58-3.75-3.52,0-5.51,2.99-5.51,7.16s1.86,7.16,5.35,7.16c2.43,0,3.89-1.23,4.75-3.72h1.77Z"/><path class="e" d="M480.5,99.42c.03,4.27,2.19,6.94,5.38,6.94s4.18-1.75,4.78-3.12h1.77c-.7,2.21-2.48,4.74-6.62,4.74-5.1,0-7.09-4.38-7.09-8.64,0-4.8,2.39-8.91,7.29-8.91,5.17,0,6.82,4.45,6.82,7.62,0,.47,0,.94-.03,1.38h-12.3Zm10.53-1.5c-.03-3.29-1.82-5.88-5.08-5.88-3.42,0-4.98,2.39-5.35,5.88h10.43Z"/></g></svg>