<?xml version="1.0" encoding="utf-8"?>
<!-- Generator: Adobe Illustrator 27.0.0, SVG Export Plug-In . SVG Version: 6.00 Build 0)  -->
<svg version="1.1" id="Layer_1" xmlns="http://www.w3.org/2000/svg" xmlns:xlink="http://www.w3.org/1999/xlink" x="0px" y="0px"
	 viewBox="0 0 848 305.3" style="enable-background:new 0 0 848 305.3;" xml:space="preserve">
<style type="text/css">
	.st0{fill:none;}
	.st1{fill:none;stroke:#00ADEE;}
	.st2{fill:#FFFFFF;stroke:#A4DF53;stroke-miterlimit:10;}
	.st3{fill:#268FCC;}
</style>
<g>
	<path class="st0" d="M478.4,169.1l0.5,0.4c0.3-1.3,0.5-2.4,0.5-3.4c0-1.8,0.4-4.7,0.8-6.4c-1.1,1.7-1.5,2.8-1.5,2.8L478.4,169.1z"
		/>
	<path class="st0" d="M482.4,159.8c0,0.6,0,2.6,0,2.6s0.7-0.4,1.7-0.8c0.3-1.2,0.5-2.3,0.7-3.3C484,158.7,482.4,159.3,482.4,159.8z"
		/>
	<path class="st0" d="M57.7,151.7c0,0-0.6-1.8-1.1-3.7c-0.2,0.8-0.3,1.6-0.4,2.1C57,151,57.7,151.7,57.7,151.7z"/>
	<path class="st0" d="M55.8,162.3c-0.8,1.1-1.7,3.3-2.2,4.5l2.8-5.3c0,0,1.4-1.4,2.1-0.8c0.7,0.7,1,1.6,0.7,2.5s-0.3,0.9-0.3,0.9
		s1.9-0.5,1.9,0.4s-0.1,2.8-0.6,3.8c-0.4,1-0.4,1-0.4,1s1-1.2,1.7-0.6c0.7,0.7-0.4,3.2-0.4,3.2s1,0.9,1.8,1.8
		c0.2,0.1,0.4,0.2,0.5,0.2c1.7,0.8,4.3,0.6,4.3,0.6l0.8-3.7c0,0-2.2,0.5-3.3-3.6c-0.7-2.6-1.1-4.6-1.2-6.2c-0.1,0-0.2-0.1-0.3-0.1
		c-2-0.6-4.4-1.7-5.3-2.5c-0.3-0.3-1.2-1.3-2.3-2.6c0,0.8,0.1,1.4,0.2,1.7C56.6,158.9,56.8,160.9,55.8,162.3z"/>
	<path class="st0" d="M687.7,168.7c0,0,0-0.1,0.1-0.2h-0.1C687.7,168.7,687.7,168.7,687.7,168.7z"/>
	<path class="st1" d="M155.9,149.7c-0.3,0.1-0.6,0.2-0.9,0.4c0.6,1.5,1.1,2.7,1.1,2.7S156.9,153.2,155.9,149.7z"/>
	<path class="st1" d="M131.9,160.7c0,0,4-4.3,4.6-3.8c0.5,0.5-0.5,2.7-2.5,4.5c-2,1.9-2.5,4.4-2.5,4.4s1.8-2.4,2.2-2.1s2.3,0.8,0,3
		s-3.6,3.5-3.6,3.5s10.8,6.2,16.2,10.2c5.4,4.1,17.6,14,17.6,14s2-5.5,2.7-7.2s1.4-2.4,1.4-2.4s-0.9-4.9-1.4-5.4s-7.6-7.5-9.4-9.9
		c-1.8-2.4-6.4-6.6-8.1-7.3c-1.7-0.7-3.5-1.3-5.2-1.3s-4-1.7-2-2.9c2-1.1,4.6-1.3,6.3-0.6c1.7,0.7,4.1,2,4.1,1.5
		c0-0.4-1.1-3.9-2.1-7c-2.1,0.9-4,1.7-5,2.2c-3.1,1.5-7.1,1.6-8.7,1.7c-0.2,0-0.4,0-0.6-0.1c-0.1,0.2-0.2,0.4-0.4,0.6
		C133.7,158.7,131.9,160.7,131.9,160.7z"/>
	<path class="st1" d="M104.2,123.8c1,0.3,1,2,1,2s1.3-2.2,1.3-2.8c0-0.5-0.6-2.1-0.7-3c0,0,0,0-0.1,0c-1.9,1.2-3,3-3.7,4.9l0,0
		C102,124.9,103.2,123.5,104.2,123.8z"/>
	<path class="st1" d="M109.3,123.4c-0.4,1.5-0.5,4.1-0.5,5.1s1.1,5,0.6,6.3s-2.6,4.7-2.6,5.7s1.4,4.5,2.4,6.9
		c1,2.4,8.7,18.4,8.7,18.4s1.8,0.1,2.3,0.1s2.1,0.6,2.1,0.6s1.4-2.9,1.7-4.1c0.4-1.2,2.5-5,2.5-5s1-1.4,1.4-1.4s0.6,0.6,0.3,1.6
		s-1.2,2.9-1.2,2.9s3.5-4.6,3.8-5c0.4-0.4,2-0.6,1.3,0.6c-0.6,1.2-1.6,3-1.6,3s1.3-1.3,1.8-1.8s1.9-2.1,2.4-2.6
		c-0.9-1-1.6-2.2-1.6-2.2s0-1.2,0.3-2.3c0.3-1.2-0.3-5.1-0.3-5.1s1.7-0.6,2.6-2c0.9-1.4,2-5.2,2.5-6.9s-1.4-1.3-1.4-1.3
		s-0.3-6.5-1.1-9.8s-6.5-9.6-12.1-10.7c-4.7-0.9-10.2,1.1-15,3.9c0,0.1,0.1,0.2,0.1,0.4C109.3,120.2,109.6,121.9,109.3,123.4z"/>
	<path class="st1" d="M161.4,151.4c0.3,0,0.2-1.8-0.1-3.8c-0.2,0.1-0.4,0.1-0.5,0.2c-0.2,0.1-0.5,0.2-0.9,0.3
		c0.1,0.3,0.1,0.4,0.1,0.4S160.8,151.4,161.4,151.4z"/>
	<path class="st1" d="M252.1,134.9c-0.4-0.7-1.2-1.6-2-2.6c-2.1,4.2,0.7,9.3,0.7,9.3s-2-0.2-2.4,1.3s2,4.7,3,5.3s2.2,0.9,2.2,0.9
		s0.6,2.7,0.7,3.4c0,0.3,0.1,1.6,0.2,2.8c0.1-0.9,0.2-1.7,0.2-2.2C254.6,149.1,253.3,136.7,252.1,134.9z"/>
	<path class="st1" d="M263.2,134.8c0.4,2.2,2.5,16,3.3,21s2.5,25.1,2.5,25.1s2.1,0.6,2.7,0.1c0.6-0.6,0.3-1.6,1.6-1.6
		c1.3,0,2.2,0.6,2.9,0c0.6-0.6,0.3-1.7,1.8-1.7s3.3,0.8,3.3,0.8s3.5-0.6,5.3,2.7c1.8,3.3,3.3,10.8,3.3,10.8l0.7-0.8
		c0,0-2.2-5.3,2.5-14.5c0.3-0.6,0.6-1.2,1-1.8c-1.9-2-6.9-7.1-8.9-10.2c-2.5-3.9-16.3-6.5-16.3-6.5l-0.8-4.3c0,0,1-1.8,1.5-2.6
		c0.5-0.8,0.3-4.1,0.3-4.1s0.4-0.4,0.9-1.2c0.5-0.8,1.1-3,1.6-4.7s-1.1-1.9-1.1-1.9s-0.7-7.8-4-10.3c-0.3-0.2-0.7-0.5-1.1-0.6
		c-0.1,0.3-0.3,0.7-0.4,1C264.7,131.1,262.8,132.7,263.2,134.8z"/>
	<path class="st1" d="M166.8,150.1c0-0.8,0.6-9.8,2-9.8s0.9,1.8,0.9,3.2s-1.3,12.2-1.3,14.2s2.2,7.7,2.9,8.4s3.1,4,3.1,4
		s3.1-5.1,3.1-7.9c0-2.8,0.2-11.7,0.2-13c0-1.3,0.5-3.2,1.2-3.2s1.2,2,1.2,4.3c0,2.3,0.7,2.3,1.2,2.3s3-0.1,3.5-0.6s1.8-2.2,2.2-3.9
		c0.4-1.7,0.9-4.9,2-4.6s1.7,1.3,1.1,3.4c-0.5,2.1-1.3,6-1.3,7.1s0.8,2.7,0.8,3.7s0.5,1.5,0.5,2.4c0,0.9-2.1,3.7-3.5,5.1
		s-6.5,6.7-6.8,8s-0.9,4.1-0.9,4.1s2.8,4,4,6.4c1.2,2.4,2.5,5,2.5,5s3.4-1.9,7.1-1.9c3.7,0,8.5,0.3,8.5,0.3s1.4-21.6,1.8-27.3
		c0.4-5.7,3.3-26.1,2.5-26.8l-0.1-0.1c-2.4,0-4.9,0.4-6.7,1.2c-3.6,1.5-4.7,3.7-5.3,5.1s-3.1,4-3.1,4l-3.8-0.9l-1-1.5
		c0,0,1.3-1.9,1.9-2.7c0.6-0.8,0.9-5.3,0.9-5.3s0.6-0.8,1-1.6c0.4-0.9,0.2-3.9,0.2-3.9s0.9,0.5,1.5,0.5s1.7-0.6,1.8-3.8
		s-3.4-6.4-3.4-6.4s-0.4-2.2-0.6-3.3c-0.2-1.1-3.8-5.5-8.2-5.6c-4.4-0.1-10.8,0.8-14.1,3.9c-3.4,3.2-3.2,10.6-3.2,10.6
		s-1.1,0.3-1.7,1.6c-0.6,1.3,0.1,6.4,0.4,7.6c0.3,1.3,2.3,2.2,2.3,2.2l0.3,3l-0.3,5.3c0.3,3.5,0.7,7.7,0.9,7.9
		C165.5,151.3,166.8,150.8,166.8,150.1z"/>
	<path class="st1" d="M218,149.3c0.5-1.7,1.4-4.7,1.9-7.3c0.3-1.3-0.4-2.7-1.5-3.9c-0.2,2.9-0.5,6.9-0.5,8.6
		C217.9,147.3,217.9,148.2,218,149.3z"/>
	<path class="st1" d="M325.7,121.3c-1.3,1.3-2.2,3.6-2.2,5.5c0,1.8-1.7,7.9-2.5,9.6c-0.9,1.7-1.2,2.3-1.2,4.4s-0.2,12.8-0.2,15.3
		s0,5.6,0,5.6s0.7-1,1.7-1s1,0.6,1,0.6s0.7-1.3,2-1.7s2.1,0.4,2.1,0.4s0.7-0.6,0.7-1.4s-0.2-1.8-1.3-3.8c-1.1-2-2.2-4-1.5-4.7
		s4.2,3.8,5.6,6s3.2,4,3.2,5.9c0,1.9,0.4,3.6,0.4,3.6s4.6-5.7,14-4.6c9.4,1,15.5,7,15.5,7s0.4-3.6,8.4-6.8c8-3.2,16.2-3.5,18.7,1.1
		s3.1,7.3,3.8,8c0.7,0.7,1,4.4,1,5.5s3,5.8,2.2,7.4c-0.8,1.6-3.6,3.4-3.6,4.3s0.4,3.4,0.4,3.4s1.7-0.2,3,0.3
		c1.4,0.5,5.5,1.2,5.5,1.2s-6.1-17.1,0.5-27.4c3.6-5.7,7.8-9.3,11.9-11.3c-0.6-1.3-1.3-2.3-2-4.5c-1-3.3-9.1-6.3-9.1-6.3v-1.4
		l-2.9,1.4l0.8-1.2l-1.8,0.9l-0.1-1.2l-3.2,1.2c0,0-0.6,0.1-0.5-1.7c0.1-1.8,2.3-1.3,2.3-1.3s-1.6-1.7-2.7-0.4c-1.1,1.3-1,3.4-1,3.4
		s-1.4-3.5-3.6-4.2c-2.2-0.8-6,1.8-6,1.8s3.4-1.3,5.3-0.6c1.9,0.7,1.7,3.4,1.7,3.4s-11.2-0.6-18.5,3.6c-7.4,4.1-5.7,13.8-5.7,13.8
		s-4.7-1.7-6.7-2.2s-7.6-1.4-7.6-1.4l0.1-2c0,0,0.5-0.9,1.2-1.8c0.7-1,2.6-6.3,3.1-8.8s1.3-2.9,2.1-6.1c0.8-3.2-1.5-1.9-1.4-2.7
		c0.1-0.8,0.5-3.9,0.5-3.9s4.6-1.6,4.3-4.8c-0.3-3.2-4.7-4-4.7-4s-0.8-2.8-1.7-4.9c-0.9-2.1-7.4-3.6-10.8-3s-9.4,3.7-9.4,3.7
		l-0.8-0.4h-2.4l-0.4-0.1l-2-1.1h-1l-1.9-0.3l-2.2,0.9l0,0C326.8,119,327,120.1,325.7,121.3z"/>
	<path class="st1" d="M250.4,180c0,0,2.6-13.9,3.7-22c-1,0.5-3.3,1.8-5.1,2.9c-2.4,1.4-8.8,4.3-12.2,7.7c-0.5,0.5-1,1.2-1.5,2.1
		c1.7,0.1,3.4,0.4,5.1,0.9C247,173.9,250.4,180,250.4,180z"/>
	<path class="st1" d="M14.8,149.1c1.2,0,2.7,0,2.7,0s1.3-0.7,2.1-0.8c-0.2-1.1-0.4-1.8-0.5-2.3c-1.7,0.7-3,1.4-3.3,1.6
		C15.3,148.1,13.6,149.1,14.8,149.1z"/>
	<path class="st1" d="M21.8,173.2l-2.5-1.2c0,0-0.5,1.9-0.1,3.4s1.1,3.1,1.1,3.1l-2.6-1.3v3.5c0,0,5.1,0.9,6.3,2
		c1.2-5.2,5.7-10.5,7.3-12s2.2-2.2,2.2-2.2S33.3,153,33.3,151s0.1-3.6-1.1-4.8c-0.8-0.8-3.6-3.5-5-5.1c-0.9,1.4-1.4,2.7-1.7,3.6
		c-0.5,2-1.3,5.2-0.9,7.4c-1,1.3-1.1,2.7,0.7,6.5c1.8,3.8,4.5,2.5,4.5,2.5s0.1,1,0.2,1.6c0.1,0.7,0.3,1.6,0.3,1.6s-0.1,0.8-0.9,3.9
		c-0.8,3.2-2.9,3.9-2.9,3.9l-3.8-0.4c0,0-0.8-1.8-1.5-2.7c0,0.1,0.1,0.2,0.1,0.3C21.8,170.8,21.8,173.2,21.8,173.2z"/>
	<path class="st1" d="M13.3,152.7c0,0,5.4,1.2,6.1,3.4c0.1,0.3,0.2,0.6,0.3,1c0-0.3,0.1-0.6,0.1-0.9c0.2-2.2,0.2-4.2,0-5.8l0,0
		C18.8,151.5,13.3,152.7,13.3,152.7z"/>
	<path class="st1" d="M13.6,138.7c0.6,0,3.6,0.9,4,1.9s0.8,2.2,0.8,2.2s0.1,0,0.2-0.1c-0.3-2.3-0.7-4.9-0.7-4.9l2.8,0.8l-1.9-2.4
		l1.6,0.5c0,0-1.6-1.3-2.1-2.5s-0.9-4-2.7-6.6s-12.1-8.2-12.1-8.2v24.4c1.7-1,4.5-2.7,5.9-3.4C11.5,139.4,13,138.7,13.6,138.7z"/>
	<path class="st1" d="M68.4,171.1l-0.8,3.7c0,0-2.6,0.2-4.3-0.6c-0.2-0.1-0.3-0.1-0.5-0.2c0.6,0.6,1.1,1.1,1.3,1.2
		c0.4,0.3,2.7,2.6,2.7,2.6l4.7-13.5c0,0-0.9-1.1-1.8-1.1c-0.8,0-3.7-1.2-5.7-1.8c0.1,1.6,0.4,3.6,1.2,6.2
		C66.2,171.6,68.4,171.1,68.4,171.1z"/>
	<path class="st1" d="M40.2,140.2c0,2.2,0.1,6.2,0.7,8.5c0.5,2.3,3.5,16.1,3.5,16.1s2.3-0.4,3.1-0.4s2.5,0,2.5,0s0.7-3.3,2-2.9
		c1.3,0.4,0.8,3,0.8,3.6s-1.5,6.4-1.5,6.4l2.4-4.6c0.5-1.2,1.5-3.4,2.2-4.5c1-1.4,0.8-3.5,0.5-4.5c-0.1-0.3-0.1-1-0.2-1.7
		c-1.8-2.2-4.2-5.2-4.8-6.5c-1-2-2.3-4.5-1-5.1c1.3-0.6,2.6,0.6,3.5,2.4c0.5,1,1.5,2.2,2.4,3.2c0.1-0.6,0.3-1.3,0.4-2.1
		c-0.3-1.2-0.5-2.4-0.5-3.2c0-1-0.1-2.3,0-3.4c-0.8-1.1-1.9-1.8-1.9-1.8s-2-4.6-6.9-5.4c-3.6-0.6-6.7-0.7-10.1,0.4
		c0.1,0.4,0.2,0.7,0.3,0.8C38.3,136.2,40.2,138,40.2,140.2z"/>
	<path class="st1" d="M78,140.7c0.3-1.3,0.5-7.8,0.5-9.2c-0.6,0.2-1.1,0.4-1.6,0.6c0,1.4,0,3.1,0,3.8C76.9,136.9,77.7,142,78,140.7z
		"/>
	<path class="st1" d="M67.6,142.1c-0.1,0.2-0.1,0.4-0.2,0.6c-0.1,0.6-0.3,1.1-0.4,1.7c0.4-0.3,0.7-0.6,0.7-0.6
		S67.7,143.1,67.6,142.1z"/>
	<path class="st1" d="M80.5,141.8c0,1.2,1,5.5,2.5,7.8s4.6,4.8,4.6,4.8s1.9-12.4,6.3-12c-0.5-5.1-1-9.7-1.3-12.5
		c-1.1-0.1-2.3-0.1-3.6,0c-3.4,0.1-6.3,0.5-8.7,1.2c0,0.5-0.1,1.1-0.2,1.7C79.7,135.6,80.5,140.6,80.5,141.8z"/>
	<path class="st1" d="M692.4,185.2c0.3,0.3,1.4-1,2.2-2.7c0.2-0.4,0.5-1.2,1-2.2c-0.6-0.4-1.2-0.8-1.7-1.2
		C693,182.2,692.3,185.1,692.4,185.2z"/>
	<path class="st1" d="M698.1,192c0.8-0.8,3.3-2,4.5-2s6.7,0,5.6,2.4c-1,2.4-5.2,2-5.2,2l-2.2,2.2c0,0,5.5-0.7,6.1-1.3
		c0.6-0.5,2.6-1.6,3.3-2c-2.6-3.3-5.9-6.8-7.4-7.8c-0.8-0.6-2.3-1.6-3.8-2.7c-1.3,3.6-2.6,7.4-2.6,8.2
		C696.5,192.2,697.3,192.8,698.1,192z"/>
	<path class="st1" d="M689.8,176.7l-0.6-0.4c-0.4,2-0.7,3.7-0.7,3.7L689.8,176.7z"/>
	<path class="st1" d="M685.7,160.1c1.4,3,1.9,7.4,2,8.4h0.1c0.3-0.5,1.2-1.7,1.9-1.1c0.4,0.4,0.6,0.7,0.8,1.2c1.5-0.1,3-0.7,3.7-1.8
		c1-1.6-3.1-7.9-3.1-7.9s1.4-9.6,0.4-12.8s-5.3-9-13.8-9.9c-1-0.1-1.9-0.2-2.8-0.2c0.7,1.7,1.4,3.4,2.2,4.8
		C679.2,144.7,684.1,156.8,685.7,160.1z"/>
	<path class="st1" d="M747.1,155.3c0.5,0.5,1.3,1.2,1.3,1.2s0.8-0.9,1.8-0.7c1,0.3,1.7,1.7,1.7,1.7s-0.4-1.7,0.5-1.7
		s1.7,1.3,1.7,1.3s-0.3-2-0.3-2.8s-1.6-1.6-2.7-2.6c-0.3-0.3-0.7-0.6-1.1-1c-0.3,0.8-0.5,1.3-0.5,1.3s-0.7-0.1-3.7,1
		c-0.2,0.1-0.4,0.1-0.6,0.2C745.9,154.1,746.8,155,747.1,155.3z"/>
	<path class="st1" d="M756.6,153.7c0,1.2,0,1.2,0,1.2s0.2,2.3,0.6,4c0.4,1.7-0.4,9.9-0.4,9.9s0.8,1.4,1.3,1.9s0.9,1.7,0.9,1.7
		s3.5-22.9,4.9-32.3c-0.8-0.1-1.7-0.1-2.5-0.1c-5.2-0.1-8.7,4.9-10.6,8.5c1.3,0.4,2.7,1.4,3.2,1.8
		C755,151.1,756.6,152.5,756.6,153.7z"/>
	<path class="st1" d="M298.3,164.3c-2.3,2.4-3.2,6.3-3.4,8.9c2.2-3.8,4.4-6.9,6.4-11.1C300.1,162.9,299,163.6,298.3,164.3z"/>
	<path class="st1" d="M671.2,161c3.3,5.6,5.4,10.1,5.1,12.4c-0.4,2.2-6,10.8-6,10.8s2.4,2.3,3.1,3c0.7,0.7,1.4,2.3,1.4,2.3
		s2.5-15.2,2.5-17.4c0-2.2-6.2-22.4-6.9-25.6c-0.7-3.1-1.8-8.9-1.8-8.9s-0.4-0.3-1.1-0.8c-2.5,0.7-4,1.6-4.4,2.4
		c-0.7,1.4-3.7,4.5-4.8,6.9c-1.1,2.4-0.8,4-0.8,4s-0.1,1.9-0.7,3.9l0,0C663.4,154.5,668.7,156.7,671.2,161z"/>
	<path class="st1" d="M813,161.8c0-1.2,0.1-4.3,1.3-4s1.2,2,1.2,4.3c0,2.4,0.4,5.8,0.4,5.8s0.4-1.3,1.4-1.3s1,0.8,1,0.8
		s0.9-0.6,1.4,0c0.6,0.6,1.1,2,1.1,2s0.8-3.8,0.8-4.5c0-0.8-1.5-4,0-4s2.5,4.1,2.5,5s0.1,5.5-1.4,7.8c-1.6,2.3-4.7,4.7-4.7,5.3
		c0,0.6,0,1.6,0,1.6s5-0.5,9.5-0.5s8.7,1.7,8.7,1.7s-5.9-30.4-7-36.3c-1.2-5.9-2.9-9.1-3.6-9.8c-0.7-0.6-1.9-2.3-0.1-4.6
		c-6.1-0.3-11.4,1.5-16.2,5c-6.1,4.4-5.4,14.1-5.5,16.1s1.8,2.8,1.8,2.8s0,0-1.3,0.5s-2.7,4.9-0.2,9.1c2.5,4.1,4.7,2.6,4.7,2.6
		s-0.1,0.7,0.7,5.5c0,0.2,0.1,0.4,0.1,0.6c1.3-1.9,2.8-3.7,2.8-3.7S813,163,813,161.8z"/>
	<path class="st1" d="M777,163c0,0,1.2-0.2,1.2,1.2c0,1.4,0,1.4,0,1.4s2.1,0.3,2.6,1.5c0.3-0.5,0.6-0.9,0.7-1.3
		c0.8-2.2-1.3-3.7-1.3-3.7s0.8-3.9,1.2-6.9c0.4-3.1,0-3.9-2.5-8.2c-0.6-1-1.5-2-2.5-2.8c0.1,4.7,0.1,9.1,0.1,10.7
		C776.5,158.5,777,163,777,163z"/>
	<path class="st1" d="M618.9,167.6c0,0,0.4,2.7,0.9,3.1c0.5,0.5,4.8,3.1,7.3,4.3c2.5,1.3,4.3,4.3,4.3,4.3l0.4-0.4l-0.5-4.8
		c0,0-6.6-1.7-7.1-4.1s-1.2-8.8,0.5-9.4c1.7-0.6,4.1-0.3,4.1-0.3l-0.7-3.3c0,0-2.1-4.9-1.2-5.7c0.9-0.9,1.7-0.1,1.7-0.1
		s-1.3-2.8,0.2-3.3c1.4-0.5,2.2,2.7,2.2,2.7s-0.2-1.6,0.9-1.7c1.1-0.1,2.2,3.3,2.2,3.3s0.3-1.1,0.9-0.4c0.5,0.4,1.4,2.2,1.9,3.4
		c-0.3-1.5-1.6-4-5.3-8.5c-0.6-0.7-1.3-1.5-2.2-2.3c-1.3,2.4-2.4,4.7-2.7,5.4C626.2,151.3,618.9,167.6,618.9,167.6z"/>
	<path class="st1" d="M581,148c0,0,0.4-2.8,0.9-6.9c-1.9,2.1-3.3,4.3-4.2,6.2c0.8,0.6,1.5,1,2.3,1C581,148.3,581,148,581,148z"/>
	<path class="st1" d="M485.2,158c-0.1,0.1-0.2,0.2-0.4,0.2c-0.2,1-0.4,2.1-0.7,3.3c1.2-0.5,2.7-1.1,4.1-1.4c2.5-0.5,4.9,0.1,4.9,0.1
		l3.3-7.1c0,0,1.2-2,2.5-1.5c1.3,0.6,0.4,2.9,0.4,2.9s-2.6,6.7-2.6,7.6c0,0.8,1.8,1.7,1.8,2.7s-2.6,3.6-4,4.9
		c-1.3,1.3-4.8,1.9-5.6,3.5c-0.9,1.6-4.3,8.8-5.1,12.5c-0.7,3.7-2.1,10.4-2.1,10.4s2.6,2,3.3,2.7c0.8,0.7,2,1.9,2,1.9
		s3.2-3.1,4.4-3.6c1.2-0.5,3.4-1.7,3.4-1.7s-2.4-9.6,3.3-13.5c5.7-3.9,19.3-9.9,19.3-9.9l-3.6-6.9c0,0-1.6-2.2,0.7-3.4
		c2.2-1.2,3.8,1.9,4.4,3.1c0.6,1.3,6.8,11.6,7.2,11.3c0.4-0.4-0.4-3.7-1-5.3c-0.7-1.6-2.9-8.8-2.9-8.8s-0.7-2.4,1.2-2.7
		c1.8-0.2,3.3,3,3.3,3s-0.5-4.8-0.5-5.5s-4.3-5.2-2.7-6.7c1.5-1.5,2.5-0.6,2.5-0.6s0.7-2.2,1.9-2.6c0.6-0.2,1.1-0.1,1.5,0.1
		c-1.3-1-3.1-2.5-3.1-2.5l0.7-5.3c0,0,3.6-1.1,4.4-1.6c0.8-0.6,0.6-1.4,0.9-3.9c0.3-2.5,2.4-4.7,3.2-6.5c0.8-1.8,0.4-5.1-1.1-7
		s-1.3-3.1-1.6-5.1s-2.4-2.8-3.2-3.8s-4-1.4-4.9-1.1c-0.9,0.4-4.9-0.3-6.9-0.7s-5.9,0.8-8.8,0.1s-6.7,4.7-7.6,6.1
		c-0.9,1.3,1.9,6.3,1.2,10.8c-0.7,4.5-0.2,4.5,0.1,6.8c0.3,2.3,3.3,3.2,3.9,4.4c0.6,1.3,4.4,0.7,4.4,0.7l-0.5,5.8l-2,1
		c0,0-0.8-0.6-1.7-0.7c-0.9-0.1-2.3-0.4-4,1.3c-1.7,1.6-5.6,2.7-8.6,3.8c-2.2,0.8-6.2,3.8-8.2,6.3c0.1,0,0.1,0.1,0.2,0.1
		C487.1,157.1,485.6,157.6,485.2,158z"/>
	<path class="st1" d="M604,154.8c1.8,2.4,5.4,6.5,5.4,6.5s9.8-15,12.1-18.3c0.8-1.2,1.5-2.1,2.1-3c-6.7-4-16.1-7.1-26.3-6
		c1,6.9,2.4,15.1,2.4,15.1S602.2,152.4,604,154.8z"/>
	<path class="st1" d="M545.1,151.5c0,1.8-4,9.4-4,10.7s0,3.3,0,3.3s3.3,1.3,3.3,2.7c0,1.4,0.9,14.5,0.9,14.5s10.3-15,12-18.3
		c1.7-3.4,3.7-12.9,6.3-16.2c0.1-0.2,0.3-0.3,0.4-0.5c-0.5-1.6-1.2-4.3-0.9-5.6c0.4-1.9,0.5-2.7,1.1-4.2s0.4-4.8,0.4-4.8
		s1.3-1.4,2.1-1.9s1.7-5,2.3-6.6s-1-0.7-1-0.7s0.9-8.1,0.5-12.3c-0.4-4.2-7.7-7.3-12.1-8.3c-4.5-1-9.8,1.8-12.3,8.3
		c-2.6,6.5-0.4,12.2-0.4,12.2s0.4,2.9,0.8,4.2c0.4,1.3,1.7,2.7,1.7,2.7s-0.3,2.2-0.2,3.9c0.1,1.7,3.2,5.1,3.2,5.1l-2.3,4.8
		c0,0-3-0.1-4.7,0.3c-0.6,0.1-1.9,0.7-3.3,1.3C541.7,147.8,545.1,150.3,545.1,151.5z"/>
	<path class="st1" d="M444.4,174.8l-1.3-1.3c0,0,0.7,6.9,0.7,8.5s0,6.9,0,6.9s4.6-4.2,13.2-3.1c8.7,1.1,12.2,3.8,12.2,3.8
		s6.7-11.6,7.8-14.6c0.7-1.8,1.4-3.8,1.8-5.6l-0.5-0.4l0.3-6.6c0,0,0.4-1.1,1.5-2.8c0.2-0.6,0.3-1,0.5-1.2c0.1-0.1,0.2-0.2,0.4-0.3
		c0.8-1.7,1.2-3.7,1.2-3.7s2,0.3,2.6-1s1.9-3.9,3.1-6.7s-1.2-2.5-1.2-2.5s1.1-3.4,2.6-9.6c1.5-6.3-4.3-11.2-12-13.2
		c-7.7-2-15.2,2-18.9,5.9c-3.7,3.9-2.5,11.2-2.5,11.2s-0.6-0.8-2.4,1.2c-1.8,1.9,0.4,6.3,1,8.4s2.9,1.4,2.9,1.4s-0.1,2.1-0.1,4.2
		c0,2.1-1.7,9.4-2.7,11.2c-1,1.7-7.6,2.8-8,2.8c-0.3,0-0.1,0-3.6,1.4c0.1,0.8,0.1,1.6,0.3,2.1C443.8,172.8,444.4,174.8,444.4,174.8z
		"/>
	<path class="st2" d="M846.6,303.4V111c0,0-1.1-0.9-1.8-1.5c-0.7-0.7-4.6-2.4-7.4-3.5c-2.7-1.1-3,0.5-5.1,1.5s-0.8,3.3-0.8,3.3
		s-0.5-0.5-4.8-2.7s-2.5,1.2-2.5,1.2s1.8,1.7,5.7,3.8s4.4,3,4.4,3s-3-2.2-4.1-1.2s1.5,2.8,2.2,3.5c0.7,0.7,3.1,1.4,3.1,1.4
		s-0.5,0.5-3,1.4c-2.5,1-3.9,6.6-6.5,9.2c-0.2,0.2-0.4,0.5-0.6,0.7c-1.8,2.3-0.6,4,0.1,4.6c0.7,0.7,2.5,3.9,3.6,9.8
		c1.2,5.9,7,36.3,7,36.3s-4.3-1.7-8.7-1.7c-4.5,0-9.5,0.5-9.5,0.5s0-1,0-1.6c0-0.6,3.1-3,4.7-5.3c1.6-2.3,1.4-6.9,1.4-7.8
		c0-0.9-0.9-5-2.5-5c-1.5,0,0,3.2,0,4c0,0.8-0.8,4.5-0.8,4.5s-0.5-1.5-1.1-2c-0.6-0.6-1.4,0-1.4,0s0-0.8-1-0.8s-1.4,1.3-1.4,1.3
		s-0.4-3.4-0.4-5.8c0-2.4,0-4-1.2-4.3c-1.2-0.4-1.3,2.8-1.3,4c0,1.2-0.7,7.7-0.7,7.7s-1.5,1.8-2.8,3.7c-0.7,1-1.3,1.9-1.7,2.7
		c-1.1,2.1-0.6,6.9-0.6,6.9s-0.8,0.7-1.2,1.2c-0.5,0.5-1,0.9-1,0.9s-4.2-11.4-10.6-14.3c-6.4-2.9-12.8-0.4-12.8-0.4
		s-0.5-1.5-0.9-2.9c0-0.1,0-0.1-0.1-0.2c-0.5-1.2-2.6-1.5-2.6-1.5s0,0,0-1.4s-1.2-1.2-1.2-1.2s-0.5-4.5-0.5-8.2
		c0-1.6-0.1-6-0.1-10.7c-0.1-6.2-0.2-12.8-0.2-13.7c0-1.5,4.6-1,7.4-2.2c2.9-1.3,6.7-3.6,9.4-5.2c2.7-1.7,3.8-4.8,5.3-6.3
		s1.3-4.2,0.2-5.2c-1-1-2.1,2-3.3,4.3c-1.2,2.2-3.1,2.8-3.1,2.8s0,0-0.8,0.7c-0.8,0.7,1.1-2.3,1.9-4.1c0.8-1.7,1.2-5.2,0.6-5.8
		c-0.6-0.6-0.3-2.7-2.2-2.7s-1.8,2.8-1.2,3.4c0.6,0.6-1.2,4.4-1.7,5.7s-3.2,2.3-4.2,3.2c-1,0.9-0.4-3.8-0.4-4.7s-1.2-2.5-1.2-2.5
		s0,0-0.9-0.9s-3.1-3-4.7-1.6c-1.5,1.5,1.7,3,2.4,3.6c0.7,0.7,0.7,1.8,0.7,3.9c0,2.1-1.3,1.9-1.7,1.6c-0.3-0.3,0-4.4-3.3-4.1
		s-2.1,3.6-2.1,5.2c0,1.6-5.8,3.2-6.5,4.5c-0.7,1.3-1.5,7.1-2.5,12.8c-0.1,0.7-0.3,1.7-0.5,3c-1.5,9.4-4.9,32.3-4.9,32.3
		s-0.4-1.3-0.9-1.7c-0.5-0.5-1.3-1.9-1.3-1.9s0.8-8.3,0.4-9.9c-0.4-1.7-0.6-4-0.6-4s0,0,0-1.2s-1.7-2.6-2.5-3.4
		c-0.5-0.5-1.9-1.4-3.2-1.8c-0.8-0.3-1.5-0.3-2,0.1c-0.8,0.7,0,1.5,0.9,2.3c0.4,0.3,0.8,0.7,1.1,1c1,1,2.7,1.7,2.7,2.6
		c0,0.8,0.3,2.8,0.3,2.8s-0.8-1.3-1.7-1.3s-0.5,1.7-0.5,1.7s-0.7-1.5-1.7-1.7c-1-0.3-1.8,0.7-1.8,0.7s-0.7-0.7-1.3-1.2
		c-0.3-0.3-1.2-1.2-2-1.9c-0.6-0.6-1.1-1.1-1.1-1.1s0-0.5,0.5-1s-0.5-1.3-1.3-2.1c-0.8-0.7-1.5,1.4-1.5,1.4s-6.9-6.3-8.5-7.8
		s-5.1-6.8-5.9-9c-0.7-2.2-3.3-7.1-3.8-8.9c-0.6-1.9-3.4-3.3-1.3,0.7c2.1,4-0.8,0.8-1.6,0.1c-0.7-0.7-3.4-4.3-4.1-3.6
		c-0.7,0.7,0,2.2,0,2.2s-2.2-2.1-2.8-1c-0.7,1,0.7,2.6,0.7,2.6s-1.2-1.1-1.8,0.1c-0.7,1.3,3.9,6.6,3.9,6.6s-1.1-1-2.1-0.1
		c-1,1,1.4,4.1,3.1,6.3c1.7,2.2,5.6,3,7.4,4.7s6.3,11.9,6.3,11.9s-3-0.7-3.9-0.7s-0.8-0.8-0.8-0.8c-0.5-3.4-3.6-3.5-3.6-3.5
		s1.5,0.8,2.2,1.4c0.6,0.6,0.3,2.4,0.3,2.4s-1.4-0.5-6.1,0.3c-4.8,0.8-9.4,3.6-10.6,6.9c-1.2,3.3-5.1,7.5-5.1,7.5s2.2-0.5,2.7-1
		s2-1.4,2-1.4s-1.5,2.2-2.2,3.5c-0.7,1.3-2.4,2.3-2.4,2.3s1.6,0,2.3-0.7c0.7-0.7,1.5-0.1,1.5-0.1s-0.4,3.6-0.4,5.2
		c0,1.5,0.5,3.7,1.6,5.8c1.1,2.1,2,0.9,2,0.9l-0.1,9.5c0,0-0.1,0.1-0.3,0.1c-0.7,0.4-2.8,1.5-3.3,2c-0.7,0.7-6.1,1.3-6.1,1.3
		l2.2-2.2c0,0,4.2,0.5,5.2-2c1-2.4-4.5-2.4-5.6-2.4c-1.2,0-3.7,1.2-4.5,2s-1.6,0.3-1.6-1.1c0-0.8,1.3-4.5,2.6-8.2
		c1-2.8,2.1-5.5,2.6-6.7c1.3-2.9,0.6-4.8-0.4-5.1c-1-0.4-2.1,1.3-2.1,1.3s-2.2,5-3.6,8.1c-0.4,1-0.8,1.8-1,2.2
		c-0.8,1.7-1.9,3-2.2,2.7c-0.2-0.1,0.6-3.1,1.5-6.1c1-3.4,2.1-7,2.1-7s1.4-3.1-0.6-3.6c-2-0.6-3.1,1.9-3.1,1.9l-2.5,6.3l-1.3,3.3
		c0,0,0.3-1.7,0.7-3.7c0.4-2.1,0.9-4.5,1.1-5.4c0.2-1,0.3-1.7,0.1-2.2c-0.1-0.5-0.4-0.8-0.8-1.2c-0.7-0.7-1.6,0.6-1.9,1.1
		c-0.1,0.1-0.1,0.2-0.1,0.2s0-0.1,0-0.2c-0.1-1-0.6-5.4-2-8.4c-1.6-3.4-6.5-15.4-8.7-19.4c-0.8-1.4-1.5-3.1-2.2-4.8
		c-1.2-3.1-2.1-6.3-2.5-7.8c-0.5-2.2-0.4-6.3-0.4-7.1s0-4.6,0-6.2c0-1.6-0.4-2.5-0.9-2.5s-0.9,0.9-0.9,0.9l-0.6,6.5c0,0-0.9,0-2.4,0
		s-3.3,0.4-3.3,0.4s-0.4-3.4-1.2-6.4s-2-3.6-2.7-2.9c-0.7,0.6,0,2.8,0,2.8l1.6,8.4c0,0-1.1,1.1-2.6,1.9s0.9,4.7,2.1,6.9
		c0.9,1.7,4.7,4.5,6.6,5.8c0.7,0.5,1.1,0.8,1.1,0.8s1.2,5.8,1.8,8.9c0.7,3.1,6.9,23.4,6.9,25.6s-2.5,17.4-2.5,17.4s-0.7-1.6-1.4-2.3
		s-3.1-3-3.1-3s5.6-8.5,6-10.8c0.4-2.2-1.8-6.8-5.1-12.4c-2.5-4.3-7.9-6.4-14.3-7c-1.9-0.2-3.8-0.2-5.8-0.1
		c-9,0.3-12.9,4.6-12.9,4.6s-0.7-1.4-0.7-2c0-0.2-0.2-0.7-0.4-1.3c-0.5-1.2-1.4-3-1.9-3.4c-0.7-0.7-0.9,0.4-0.9,0.4
		s-0.8-2.9-1.8-2.7c-1.1,0.1-0.9,1.7-0.9,1.7s-0.8-3.2-2.2-2.7s-0.2,3.3-0.2,3.3s-0.8-0.8-1.7,0.1c-0.9,0.9,1.2,5.7,1.2,5.7l0.7,3.3
		c0,0-2.4-0.3-4.1,0.3c-1.7,0.6-1,7-0.5,9.4s7.1,4.1,7.1,4.1l0.5,4.8l-0.4,0.4c0,0-1.8-3-4.3-4.3s-6.8-3.9-7.3-4.3
		c-0.5-0.5-0.9-3.1-0.9-3.1s7.3-16.3,8-17.8c0.3-0.7,1.4-2.9,2.7-5.4c1.7-3.2,3.5-6.8,3.7-7.4c0.4-1.1,4-2.7,5.8-3.8
		s1.3-2.9,1.3-3.5s-1.6-1.4-1.6-1.4s4-10.8,2.8-11.2c-1.2-0.4-1.9,1.8-1.9,1.8l-3.3,8.3c0,0-1-0.9-3-0.9s-4,1-4,1s-0.3-1.3,0.5-4.6
		c0.8-3.4-1.2-2.4-2.2-0.1c-1,2.2-1.9,5.4-2.4,10.9c-0.3,3.5-0.8,5-1.8,6.6c-0.5,0.9-1.2,1.7-2.1,3c-2.3,3.4-12.1,18.3-12.1,18.3
		s-3.5-4.1-5.4-6.5c-1.8-2.4-4.3-5.7-4.3-5.7s-1.4-8.1-2.4-15.1c-0.6-3.9-1-7.4-1-8.9c0-4.2,0.6-20.7,1-22.2s1.4-2.3,2.2-3.1
		c0.8-0.8,1.3-4.3,2.5-6.6c1.2-2.3,1.1-5,0.4-6.5c-0.7-1.5-5.4-1.3-5.4-1.3s-2-5.7-3-9.3c-1-3.6-2-6.3-3.5-5.8
		c-1.4,0.5-0.3,3.4-0.3,3.4l3.3,12c0,0-1.2,0-3.8,0.6s-5.1,2.5-5.1,2.5s-3.4-4.5-4.3-6c-0.9-1.5-2.2-3-3.3-2c-1,1-0.4,2-0.4,2
		s4.1,7.3,4.8,8c0.7,0.6,4.1,8.5,5.2,9.5c1.1,1-0.1,9.9-0.7,12.9c-0.4,2.1-2.6,18.4-3.8,27.9c-0.5,4-0.9,6.9-0.9,6.9s0,0.3-1,0.3
		c-0.8,0-1.5-0.4-2.3-1c-0.3-0.2-0.5-0.5-0.8-0.7c-1.2-1.1-2.8-0.7-3.3-0.2s-0.9-1.4-2.2-1.8c-1.4-0.4-2.7,1-2.7,1s-2.1-0.7-4.5,2.1
		c-0.1,0.1-0.2,0.3-0.4,0.5c-2.6,3.4-4.6,12.9-6.3,16.2c-1.7,3.4-12,18.3-12,18.3s-0.9-13.1-0.9-14.5s-3.3-2.7-3.3-2.7s0-2,0-3.3
		s4-8.9,4-10.7c0-1.2-3.5-3.7-6.3-5.4c-1.5-0.9-2.7-1.6-3.2-1.7c-1.5-0.5-2.1,2.1-2.1,2.1s-1.1-1.1-2.5-0.6s-1.1,1.9-1.1,1.9
		s-0.2-0.2-0.6-0.4c-0.4-0.2-0.9-0.3-1.5-0.1c-1.2,0.4-1.9,2.6-1.9,2.6s-0.9-0.9-2.5,0.6c-1.5,1.5,2.7,6,2.7,6.7s0.5,5.5,0.5,5.5
		s-1.5-3.3-3.3-3c-1.8,0.2-1.2,2.7-1.2,2.7s2.2,7.2,2.9,8.8s1.4,5,1,5.3c-0.4,0.4-6.6-10-7.2-11.3c-0.6-1.3-2.2-4.3-4.4-3.1
		c-2.2,1.2-0.7,3.4-0.7,3.4l3.6,6.9c0,0-13.6,6-19.3,9.9c-5.7,3.9-3.3,13.5-3.3,13.5s-2.2,1.2-3.4,1.7c-1.2,0.5-4.4,3.6-4.4,3.6
		s-1.2-1.2-2-1.9s-3.3-2.7-3.3-2.7s1.4-6.7,2.1-10.4s4.2-10.9,5.1-12.5s4.3-2.2,5.6-3.5c1.3-1.3,4-3.8,4-4.9c0-1-1.8-1.9-1.8-2.7
		c0-0.8,2.6-7.6,2.6-7.6s0.9-2.4-0.4-2.9c-1.3-0.6-2.5,1.5-2.5,1.5l-3.3,7.1c0,0-2.4-0.6-4.9-0.1c-1.4,0.3-2.9,0.9-4.1,1.4
		c-1,0.4-1.7,0.8-1.7,0.8s0-2,0-2.6c0-0.5,1.6-1.1,2.4-1.5c0.2-0.1,0.3-0.2,0.4-0.2c0.4-0.4,1.9-1,1-1.8c-0.1-0.1-0.1-0.1-0.2-0.1
		c-0.8-0.6-1.9,0.1-1.9,0.1s-2,1.1-3,1.9c-0.1,0.1-0.3,0.2-0.4,0.3c-0.2,0.2-0.4,0.6-0.5,1.2c-0.5,1.7-0.8,4.6-0.8,6.4
		c0,1-0.2,2.2-0.5,3.4c-0.4,1.8-1.1,3.8-1.8,5.6c-1.2,3-7.8,14.6-7.8,14.6s-3.5-2.7-12.2-3.8s-13.2,3.1-13.2,3.1s0-5.2,0-6.9
		c0-1.6-0.7-8.5-0.7-8.5l1.3,1.3c0,0-0.6-2-1-3.7c-0.1-0.5-0.2-1.3-0.3-2.1c-0.1-1.9-0.2-4.2-0.7-4.7c-0.7-0.7-3.1-5.1-2.8-4.8
		c0.3,0.2,2.4,0.5,2.4,0.5s-3.4-2.5-5.3-4.4c-2-1.9-6.9-0.8-6.9-0.8s0.4-2.6-5.8-2.9c-2.8-0.1-6,0.5-9.3,2.1
		c-4.1,2-8.2,5.6-11.9,11.3c-6.6,10.3-0.5,27.4-0.5,27.4s-4.1-0.7-5.5-1.2s-3-0.3-3-0.3s-0.4-2.5-0.4-3.4s2.8-2.7,3.6-4.3
		c0.8-1.6-2.2-6.3-2.2-7.4c0-1.1-0.3-4.8-1-5.5c-0.7-0.7-1.4-3.4-3.8-8c-2.5-4.6-10.7-4.3-18.7-1.1c-8,3.2-8.4,6.8-8.4,6.8
		s-6.1-5.9-15.5-7c-9.4-1-14,4.6-14,4.6s-0.4-1.7-0.4-3.6s-1.8-3.7-3.2-5.9c-1.4-2.2-4.9-6.7-5.6-6c-0.7,0.7,0.4,2.7,1.5,4.7
		s1.3,2.9,1.3,3.8c0,0.8-0.7,1.4-0.7,1.4s-0.8-0.8-2.1-0.4c-1.3,0.3-2,1.7-2,1.7s0-0.6-1-0.6s-1.7,1-1.7,1s0-3.1,0-5.6
		s0.2-13.2,0.2-15.3s0.4-2.7,1.2-4.4c0.9-1.7,2.5-7.8,2.5-9.6c0-1.8,0.9-4.2,2.2-5.5c1.3-1.3,1.1-2.3,0.7-3.7l0,0
		c-0.4-1.4-2.2-0.4-2.2-0.4s0-1.3-0.9-2.2s-2.5-0.1-2.5-0.1s-0.7-0.7-1.6-1.5s-3,0.4-3,0.4s0-1.2-1.4-1.8c-1.4-0.6-8.5,4.4-9.5,6.2
		c-1,1.7,2,8,2.7,9.6c0.7,1.6,1.7,5.4-1.7,20.3c-1.4,6.1-3,10.4-4.8,14c-2,4.1-4.2,7.3-6.4,11.1c-0.3,0.5-0.6,1.1-0.9,1.7
		c-0.3,0.6-0.6,1.2-1,1.8c-4.7,9.2-2.5,14.5-2.5,14.5l-0.7,0.8c0,0-1.4-7.6-3.3-10.8c-1.8-3.3-5.3-2.7-5.3-2.7s-1.8-0.8-3.3-0.8
		s-1.2,1.1-1.8,1.7c-0.6,0.6-1.5,0-2.9,0c-1.3,0-1,1-1.6,1.6c-0.6,0.6-2.7-0.1-2.7-0.1s-1.7-20.1-2.5-25.1s-2.8-18.9-3.3-21
		c-0.4-2.2,1.4-3.8,2.4-5.5c0.2-0.3,0.3-0.6,0.4-1c0.6-1.6,0.7-3.3,0.7-4.2c0-1.1,3.5-6.4,4-7.5c0.4-1.1,1.2-2.7,0-3
		c-1.2-0.4-2.3,2.3-2.3,2.3l-3.3,5.8c0,0-1.9-1.8-3.2-2.2c-1.3-0.4-5.4-0.8-5.4-0.8s1.7-6.4,2-8c0.3-1.5,1.4-3.4-0.3-3.8
		c-1.6-0.4-2.4,2.3-2.4,2.3l-3.8,9.3c0,0-1.7,0-4.3,1.3c-2.6,1.3,0,6.5,0,6.5s-0.5,1-0.5,2c0,0.6,1.4,2.4,2.7,4.2c0.8,1,1.5,2,2,2.6
		c1.2,1.8,2.5,14.2,2.5,18.2c0,0.5-0.1,1.2-0.2,2.2c-0.1,0.8-0.2,1.7-0.3,2.7c-1.1,8-3.7,22-3.7,22s-3.5-6.1-10-8.3
		c-1.6-0.6-3.4-0.8-5.1-0.9c-5.1-0.3-9.7,0.9-9.7,0.9s-1-3.3-1.4-4.5c-0.4-1.3-0.4-2.2-0.4-3.3c0-1.1-0.6-3.6-1-5.5
		s-2.2-4.3-2.9-4.3s0.4,2.9,0.7,3.9s0,1.3-0.4,1.6c-0.4,0.4-1.4,0.4-1.4,0.4s-0.6-6.4-0.8-10.5c-0.1-1.1-0.1-2.1-0.1-2.7
		c0-1.7,0.3-5.6,0.5-8.6c0.2-2,0.3-3.6,0.3-3.6s1.4-1.4,2-2.9c0.5-1.5,0.7-6.4,0.7-6.9s2.2-5.2,2.2-5.8c0-0.6-1.7-0.6-1.7-0.6
		s0-3.1-0.6-4.5c-0.6-1.4-2.4-3.3-3.8-3.8c-1.4-0.6-3,1.3-3.3,1.5c-0.3,0.3-1.5,0-2.2,0s-2.2,1-2.7,2.4c-0.4,1.3-1.9,1.5-2.5,1.5
		s-2.2,1-2.5,2s-1.2,1.1-1.9,1.1s-1.5,0.5-1.9,2.7c-0.3,2.2,3.8,10.3,4.8,11.5l0.1,0.1c0.8,0.8-2.1,21.1-2.5,26.8
		c-0.4,5.7-1.8,27.3-1.8,27.3s-4.8-0.3-8.5-0.3s-7.1,1.9-7.1,1.9s-1.3-2.7-2.5-5c-1.2-2.4-4-6.4-4-6.4s0.6-2.9,0.9-4.1
		c0.3-1.3,5.4-6.6,6.8-8c1.4-1.4,3.5-4.2,3.5-5.1c0-0.9-0.5-1.4-0.5-2.4s-0.8-2.6-0.8-3.7s0.8-5,1.3-7.1c0.5-2.1,0-3.1-1.1-3.4
		s-1.6,2.9-2,4.6c-0.4,1.7-1.7,3.4-2.2,3.9s-3,0.6-3.5,0.6s-1.2,0-1.2-2.3c0-2.3-0.5-4.3-1.2-4.3s-1.2,1.9-1.2,3.2
		c0,1.3-0.2,10.2-0.2,13c0,2.8-3.1,7.9-3.1,7.9s-2.4-3.3-3.1-4c-0.7-0.7-2.9-6.4-2.9-8.4s1.3-12.8,1.3-14.2s0.5-3.2-0.9-3.2
		s-2,9-2,9.8c0,0.8-1.3,1.2-1.6,0.9c-0.2-0.2-0.6-4.4-0.9-7.9c-0.2-2-0.4-3.7-0.5-4.5c-0.4-2.2-2.4-4.5-3.7-4s-1.1,2.3-1.1,2.3
		s1,3.4,1.4,5c0.2,0.8,0.7,3.4,1,5.7c0.3,2,0.4,3.8,0.1,3.8c-0.7,0-1.4-2.9-1.4-2.9s-0.1-0.2-0.1-0.4c-0.6-1.7-2.8-8-3.6-10.1
		c-0.9-2.4-2.1-3.8-3.5-3.3c-1.4,0.6-0.4,3.1-0.4,3.1s1.9,6.7,3.3,11c0.1,0.3,0.2,0.6,0.2,0.8c1,3.5,0.2,3,0.2,3s-0.5-1.1-1.1-2.7
		c-1.2-3-3.1-7.5-3.4-8.8c-0.5-2-2-3.7-3.5-2.9c-1.5,0.8-0.6,3.6-0.6,3.6s0.9,3.8,2,7.1c0.3,0.8,0.6,1.8,1,2.9c1,3.1,2.1,6.6,2.1,7
		c0,0.5-2.5-0.8-4.1-1.5c-1.7-0.7-4.3-0.6-6.3,0.6c-2,1.1,0.4,2.9,2,2.9c1.7,0,3.5,0.6,5.2,1.3c1.7,0.7,6.3,5,8.1,7.3
		c1.8,2.4,8.9,9.4,9.4,9.9s1.4,5.4,1.4,5.4s-0.7,0.7-1.4,2.4s-2.7,7.2-2.7,7.2s-12.2-9.9-17.6-14c-5.4-4.1-16.2-10.2-16.2-10.2
		s1.3-1.2,3.6-3.5c2.3-2.2,0.4-2.7,0-3c-0.4-0.4-2.2,2.1-2.2,2.1s0.6-2.5,2.5-4.4c2-1.9,3-4.1,2.5-4.5c-0.5-0.5-4.6,3.8-4.6,3.8
		s1.8-2,3.7-4.4c0.2-0.2,0.3-0.4,0.4-0.6c1.1-1.7-0.8-1.3-1.1-1l-0.1,0.1c-0.5,0.5-1.9,2.1-2.4,2.6s-1.8,1.8-1.8,1.8s0.9-1.9,1.6-3
		c0.6-1.2-1-0.9-1.3-0.6c-0.4,0.3-3.8,5-3.8,5s0.9-1.9,1.2-2.9s0.1-1.6-0.3-1.6c-0.4,0-1.4,1.4-1.4,1.4s-2.1,3.8-2.5,5
		s-1.7,4.1-1.7,4.1s-1.6-0.6-2.1-0.6s-2.3-0.1-2.3-0.1s-7.7-15.9-8.7-18.4c-1-2.4-2.4-5.9-2.4-6.9s2.1-4.3,2.6-5.7
		c0.5-1.3-0.6-5.3-0.6-6.3s0.1-3.6,0.5-5.1s0-3.2-0.6-4.8c-0.1-0.1-0.1-0.3-0.1-0.4c-0.5-1.2-0.8-1.3-2.1-1.3
		c-1.4,0-0.6,1.9-0.6,2.7c0,0.1,0,0.2,0,0.3c0.1,0.9,0.7,2.5,0.7,3c0,0.6-1.3,2.8-1.3,2.8s0-1.7-1-2s-2.1,1.1-2.1,1.1l0,0
		c0,0-0.6-0.6-1-1s-2,0-2.5,0.5s-1.7,0.9-1.7,0.9s0-3.8,0-4.5c0-0.6,2.1-2,2.6-2.5s2-1.9,1.1-2.8c-0.9-0.9-2.7,0.5-2.7,0.5
		s-4,3.1-4.5,4.3c-0.5,1.1-0.9,5.5-0.9,6.9c0,0.4,0.1,1.3,0.2,2.6c0.3,2.8,0.8,7.4,1.3,12.5c-4.4-0.3-6.3,12-6.3,12
		s-3.1-2.4-4.6-4.8c-1.5-2.3-2.5-6.6-2.5-7.8s-0.8-6.2-0.4-9.1c0.1-0.6,0.1-1.2,0.2-1.7c0.1-1.7-0.4-2.5-1.1-2.5
		c-0.9,0-0.7,2-0.7,2.9c0,0,0,0.1,0,0.2c0,1.4-0.2,7.9-0.5,9.2s-1.1-3.8-1.1-4.8c0-0.6,0-2.4,0-3.8c0-0.8,0-1.4,0-1.8
		c0-1,0-2.2-1.4-2.2c-1.3,0-1.2,3.6-1.2,3.8c0-0.1-0.1-0.5-0.7-1.7c-0.7-1.3-2-1.2-2.5,2.7c-1.9-0.7-3,3.9-3.5,6.2
		c-0.2,1-0.2,2.1-0.2,2.9c0,1,0.2,1.7,0.2,1.7s-1.1-0.6-1.6-0.2c-1.1,0.8-3.1,2.4-3.5,2.8c-0.6,0.6,0,2.2,0,3.4
		c0,1.1-2.5-1.1-3.3-1.7c-0.7-0.7-1-4.8-1-5.5s0-4.1-1.8-4.1c-1,0-1.3,1-1.4,2.3c-0.1,1.1,0,2.4,0,3.4c0,0.8,0.2,2,0.5,3.2
		c0.5,1.9,1.1,3.7,1.1,3.7s-0.6-0.9-1.4-1.8c-0.9-1-2-2.3-2.4-3.2c-0.9-1.8-2.2-3-3.5-2.4s0,3.1,1,5.1c0.6,1.3,3,4.3,4.8,6.5
		c1.1,1.3,2,2.3,2.3,2.6c0.9,0.8,3.3,1.9,5.3,2.5c0.1,0,0.2,0.1,0.3,0.1c2,0.7,4.8,1.8,5.7,1.8s1.8,1.1,1.8,1.1l-4.7,13.5
		c0,0-2.3-2.2-2.7-2.6c-0.1-0.1-0.7-0.7-1.3-1.2c-0.9-0.8-1.8-1.8-1.8-1.8s1-2.6,0.4-3.2c-0.7-0.7-1.7,0.6-1.7,0.6s0,0,0.4-1
		s0.6-2.9,0.6-3.8s-1.9-0.4-1.9-0.4s0,0,0.3-0.9s0-1.9-0.7-2.5c-0.7-0.7-2.1,0.8-2.1,0.8l-2.8,5.3l-2.4,4.6c0,0,1.5-5.8,1.5-6.4
		s0.5-3.2-0.8-3.6c-1.3-0.3-2,2.9-2,2.9s-1.7,0-2.5,0s-3.1,0.4-3.1,0.4s-3-13.8-3.5-16.1s-0.7-6.3-0.7-8.5s-1.9-4.1-2.7-4.8
		c-0.1-0.1-0.2-0.4-0.3-0.8c-0.4-2.2-0.3-7.9-0.3-7.9s-0.4-2-1.4-2c-1.1,0-1.1,2.1-1.1,2.1l0.1,7.2c0,0-1.1-0.4-1.7-0.4
		c-0.6,0-0.9,0.8-0.9,0.8l-0.4,0.5c0,0-1.3-0.6-1.7-0.2c-0.4,0.4-0.7,1.5-0.7,1.5s0-3.4,0-4.3s0-2.9-1-3.1c-1-0.3-1.3,1.3-1.3,2.7
		c0,1.5-0.1,8-0.1,8.5c0,0.1,0.3,0.6,0.8,1.1c1.4,1.6,4.2,4.3,5,5.1c1.2,1.1,1.1,2.7,1.1,4.8c0,2,0.2,17.5,0.2,17.5
		s-0.7,0.7-2.2,2.2c-1.6,1.5-6.1,6.9-7.3,12c-1.2-1.2-6.3-2-6.3-2v-3.5l2.6,1.3c0,0-0.7-1.6-1.1-3.1s0.1-3.4,0.1-3.4l2.5,1.2
		c0,0,0-2.4-0.4-3.8c0-0.1-0.1-0.2-0.1-0.3c-0.4-1.4-0.5-4.1-0.5-4.1s0.4,1.5,1.1,2.2s2.3,1.2,2.3,1.2s-1.3-4.9-2.4-5.9
		c-1-0.9-1.4-3.3-2.1-5.3c-0.1-0.3-0.2-0.7-0.3-1c-0.8-2.2-6.1-3.4-6.1-3.4s5.6-1.3,6.6-2.2l0,0c1-1,0.7-1.6,0.2-2.1
		c-0.1-0.1-0.3-0.1-0.5-0.1c-0.8,0.1-2.1,0.8-2.1,0.8s-1.5,0-2.7,0s0.5-1,1-1.5c0.2-0.2,1.6-0.8,3.3-1.6c2.5-1.1,5.7-2.5,6.3-3.1
		c1-1,0-2.1-1-1.7c-0.9-1.4-4.9,1-5.8,1.5c-0.1,0.1-0.2,0.1-0.2,0.1s-0.4-1.2-0.8-2.2s-3.5-1.9-4-1.9c-0.6,0-2.1,0.7-4.2,1.7
		c-1.5,0.4-4.3,2.1-6,3.1c-0.9,0.6-1.5,0.9-1.5,0.9v158.8H846.6z"/>
</g>
<g>
	<g>
		<path class="st3" d="M345.9,211.6h-8.6v-6.5h26v6.5h-8.5v23.6h-8.8V211.6z"/>
		<path class="st3" d="M366.9,205.1h8.9v11.3h9.2v-11.3h8.9v30.1h-8.9v-12.3h-9.2v12.3h-8.9V205.1z"/>
		<path class="st3" d="M408.6,223.8v11.4H400v-30.1h14.9c7.1,0,10.5,3.8,10.5,8.3c0,4.2-2.4,6.3-4.5,7.1c1.9,0.7,3.9,2.7,3.9,7.8
			v1.3c0,1.9,0.1,4.3,0.4,5.6h-8.4c-0.5-1.3-0.6-3.5-0.6-6.6v-0.8c0-2.6-0.6-4-4.5-4H408.6z M408.6,217.7h4.1c2.9,0,4-1.2,4-3.2
			c0-2-1.3-3.2-4-3.2h-4.1V217.7z"/>
		<path class="st3" d="M452.4,223h-13.7v5.6H454l-1,6.5h-22.8v-30.1H453v6.5h-14.3v4.8h13.7V223z"/>
		<path class="st3" d="M480.3,223h-13.7v5.6h15.3l-1,6.5h-22.8v-30.1h22.8v6.5h-14.3v4.8h13.7V223z"/>
	</g>
</g>
</svg>
