<?xml version="1.0" encoding="UTF-8"?><svg id="a" xmlns="http://www.w3.org/2000/svg" viewBox="0 0 343.55 31.7"><defs><style>.b{fill:#fff;}</style></defs><path class="b" d="M1.94,18.36c.7,3.1,2.77,4.92,6.59,4.92,4.25,0,5.88-2.12,5.88-4.64s-1.17-4.25-6.3-5.52C3.13,11.88,1,10.26,1,6.88,1,3.78,3.26,.91,8.29,.91s7.36,3.15,7.66,6.01h-1.94c-.53-2.49-2.15-4.29-5.82-4.29-3.35,0-5.18,1.56-5.18,4.15s1.53,3.55,5.83,4.62c6.6,1.64,7.58,4.28,7.58,7.1,0,3.46-2.53,6.44-7.96,6.44C2.6,24.94,.44,21.53,0,18.36H1.94Z"/><path class="b" d="M20.26,7.92c3.35,9.5,4.82,13.48,5.38,15.28h.03c.66-2.04,2-5.92,5.22-15.28h1.81l-6.28,17.71c-1.77,4.96-2.98,6.07-6.02,6.07-.6,0-1.01-.03-1.56-.1v-1.72c.5,.07,.97,.1,1.5,.1,2.4,0,3.17-1.16,4.39-4.58L18.35,7.92h1.91Z"/><path class="b" d="M36.22,12.24c0-1.44,0-3.01-.03-4.32h1.7c.03,.57,.1,2,.07,2.96,.71-1.67,2.24-3.36,5.02-3.36,2.35,0,4.18,1.17,4.85,3.3,.84-1.73,2.51-3.3,5.45-3.3,2.59,0,5.26,1.48,5.26,6.13v11.02h-1.74V13.86c0-2.23-.8-4.65-3.89-4.65s-4.68,2.58-4.68,5.82v9.65h-1.71V13.89c0-2.43-.73-4.69-3.79-4.69-3.22,0-4.78,2.84-4.78,6.25v9.22h-1.74V12.24Z"/><path class="b" d="M65.74,22.21v9.15h-1.74V12.04c0-1.37,0-2.84-.03-4.12h1.71c.07,.63,.07,1.64,.07,2.99,1.03-1.99,2.87-3.4,5.87-3.4,3.95,0,6.7,3.31,6.7,8.34,0,6.03-3.22,9.21-7.27,9.21-2.94,0-4.47-1.3-5.3-2.86Zm10.73-6.29c0-3.87-1.86-6.76-5.15-6.76-4.02,0-5.68,2.53-5.68,7.06s1.3,7.22,5.45,7.22c3.46,0,5.39-2.92,5.39-7.52Z"/><path class="b" d="M94.02,21.46c0,1.48,.13,2.68,.23,3.21h-1.67c-.13-.4-.23-1.14-.3-2.56-.57,1.23-2.04,2.96-5.48,2.96-3.89,0-5.57-2.52-5.57-5.03,0-3.69,2.85-5.37,7.88-5.37h3.17v-1.69c0-1.67-.5-3.89-4.28-3.89-3.35,0-3.85,1.75-4.22,3.12h-1.74c.2-1.87,1.36-4.71,5.99-4.71,3.83,0,5.99,1.61,5.99,5.3v8.64Zm-1.71-5.31h-3.25c-3.7,0-5.98,.97-5.98,3.82,0,2.09,1.49,3.52,3.82,3.52,4.75,0,5.41-3.16,5.41-6.74v-.6Z"/><path class="b" d="M96.85,7.92h3.1V2.71h1.74V7.92h3.97v1.62h-3.97v10.83c0,1.86,.4,2.92,2,2.92,.5,0,1.19-.03,1.73-.2v1.51c-.58,.24-1.39,.3-2.1,.3-2.17,0-3.37-1.09-3.37-3.77V9.53h-3.1v-1.62Z"/><path class="b" d="M110.73,0V10.71c.93-1.73,2.57-3.2,5.51-3.2,2.4,0,5.66,1.22,5.66,6.5v10.66h-1.74V14.35c0-3.29-1.49-5.15-4.25-5.15-3.3,0-5.18,2.04-5.18,6.13v9.34h-1.74V0h1.74Z"/><path class="b" d="M127.81,16.51c.03,4.27,2.19,6.94,5.38,6.94s4.18-1.75,4.78-3.12h1.77c-.7,2.21-2.48,4.74-6.62,4.74-5.1,0-7.09-4.38-7.09-8.64,0-4.8,2.39-8.91,7.29-8.91,5.17,0,6.82,4.45,6.82,7.62,0,.47,0,.94-.03,1.37h-12.3Zm10.53-1.5c-.03-3.29-1.82-5.88-5.08-5.88-3.42,0-4.98,2.39-5.35,5.88h10.43Z"/><path class="b" d="M141.97,7.92h3.1V2.71h1.74V7.92h3.97v1.62h-3.97v10.83c0,1.86,.4,2.92,2,2.92,.5,0,1.2-.03,1.73-.2v1.51c-.58,.24-1.39,.3-2.1,.3-2.17,0-3.37-1.09-3.37-3.77V9.53h-3.1v-1.62Z"/><path class="b" d="M154.21,0h1.74V3.27h-1.74V0Zm0,7.92h1.74V24.67h-1.74V7.92Z"/><path class="b" d="M173.78,19.73c-.8,2.95-2.74,5.34-6.52,5.34-4.21,0-7.19-3.13-7.19-8.71,0-4.6,2.46-8.85,7.39-8.85,4.29,0,6.02,3.04,6.32,5.37h-1.77c-.5-1.93-1.76-3.75-4.58-3.75-3.52,0-5.51,2.99-5.51,7.16s1.86,7.16,5.35,7.16c2.43,0,3.89-1.23,4.75-3.72h1.77Z"/><path class="b" d="M188.75,1.24V24.67h-1.88V1.24h1.88Z"/><path class="b" d="M194.47,12.14c0-1.47,0-2.88-.03-4.22h1.71c.07,.53,.1,2.69,.07,3.16,.73-1.69,2.11-3.56,5.55-3.56,2.99,0,5.63,1.69,5.63,6.3v10.85h-1.74V14.09c0-2.96-1.23-4.89-4.12-4.89-3.94,0-5.31,3.27-5.31,6.9v8.56h-1.74V12.14Z"/><path class="b" d="M210.26,7.92h3.1V2.71h1.74V7.92h3.97v1.62h-3.97v10.83c0,1.86,.4,2.92,2,2.92,.5,0,1.2-.03,1.73-.2v1.51c-.58,.24-1.39,.3-2.1,.3-2.17,0-3.37-1.09-3.37-3.77V9.53h-3.1v-1.62Z"/><path class="b" d="M222.73,16.51c.03,4.27,2.19,6.94,5.38,6.94s4.18-1.75,4.78-3.12h1.77c-.7,2.21-2.48,4.74-6.62,4.74-5.1,0-7.09-4.38-7.09-8.64,0-4.8,2.39-8.91,7.29-8.91,5.17,0,6.82,4.45,6.82,7.62,0,.47,0,.94-.03,1.37h-12.3Zm10.53-1.5c-.03-3.29-1.82-5.88-5.08-5.88-3.42,0-4.98,2.39-5.35,5.88h10.43Z"/><path class="b" d="M239.26,24.67V0h1.74V24.67h-1.74Z"/><path class="b" d="M246.46,24.67V0h1.74V24.67h-1.74Z"/><path class="b" d="M253.65,0h1.74V3.27h-1.74V0Zm0,7.92h1.74V24.67h-1.74V7.92Z"/><path class="b" d="M273.7,23.51c0,5.36-2.37,8.19-7.26,8.19-4.39,0-6.19-2.47-6.59-5h1.78c.6,2.29,2.48,3.38,4.88,3.38,4.33,0,5.52-2.79,5.52-7.03v-1.72c-.9,2.16-2.54,3.33-5.58,3.33-3.93,0-6.93-3.19-6.93-8.37,0-5.62,3.21-8.78,7.17-8.78,3.41,0,4.87,1.6,5.34,2.93,.03-.96,.07-2.13,.1-2.53h1.64c0,.62-.07,3.25-.07,4.86v10.74Zm-12.34-7.29c0,3.96,2.1,6.82,5.29,6.82,4.16,0,5.42-2.76,5.42-7.08s-1.32-6.82-5.32-6.82-5.39,3.28-5.39,7.09Z"/><path class="b" d="M279.6,16.51c.03,4.27,2.19,6.94,5.38,6.94s4.18-1.75,4.78-3.12h1.77c-.7,2.21-2.48,4.74-6.62,4.74-5.1,0-7.09-4.38-7.09-8.64,0-4.8,2.39-8.91,7.29-8.91,5.17,0,6.82,4.45,6.82,7.62,0,.47,0,.94-.03,1.37h-12.3Zm10.53-1.5c-.03-3.29-1.82-5.88-5.08-5.88-3.42,0-4.98,2.39-5.35,5.88h10.43Z"/><path class="b" d="M296,12.14c0-1.47,0-2.88-.03-4.22h1.71c.07,.53,.1,2.69,.07,3.16,.73-1.69,2.11-3.56,5.55-3.56,2.99,0,5.63,1.69,5.63,6.3v10.85h-1.74V14.09c0-2.96-1.23-4.89-4.12-4.89-3.94,0-5.31,3.27-5.31,6.9v8.56h-1.74V12.14Z"/><path class="b" d="M326.75,19.73c-.8,2.95-2.74,5.34-6.52,5.34-4.21,0-7.19-3.13-7.19-8.71,0-4.6,2.46-8.85,7.39-8.85,4.29,0,6.02,3.04,6.32,5.37h-1.77c-.5-1.93-1.76-3.75-4.58-3.75-3.52,0-5.51,2.99-5.51,7.16s1.86,7.16,5.35,7.16c2.43,0,3.89-1.23,4.75-3.72h1.77Z"/><path class="b" d="M331.22,16.51c.03,4.27,2.19,6.94,5.38,6.94s4.18-1.75,4.78-3.12h1.77c-.7,2.21-2.48,4.74-6.62,4.74-5.1,0-7.09-4.38-7.09-8.64,0-4.8,2.39-8.91,7.29-8.91,5.17,0,6.82,4.45,6.82,7.62,0,.47,0,.94-.03,1.37h-12.3Zm10.53-1.5c-.03-3.29-1.82-5.88-5.08-5.88-3.42,0-4.98,2.39-5.35,5.88h10.43Z"/></svg>