<?xml version="1.0" encoding="utf-8"?>
<!-- Generator: Adobe Illustrator 27.0.0, SVG Export Plug-In . SVG Version: 6.00 Build 0)  -->
<svg version="1.1" id="Layer_1" xmlns="http://www.w3.org/2000/svg" xmlns:xlink="http://www.w3.org/1999/xlink" x="0px" y="0px"
	 viewBox="0 0 521 355.1" style="enable-background:new 0 0 521 355.1;" xml:space="preserve">
<style type="text/css">
	.st0{fill:none;stroke:#FFFFFF;stroke-miterlimit:10;}
	.st1{fill:#FFFFFF;}
</style>
<g>
	<circle class="st0" cx="279.2" cy="107.8" r="26.2"/>
	<g>
		<path class="st1" d="M298.2,142.4c6.4,0,10.9,2.6,13.3,7.8c0.9,1.8,3.3,6.8,6.7,13.7c10.1,20.7,31.1,63.8,32,67.1
			c1.2,4.5,0.4,10-5.4,12.3c-1.7,0.6-3.3,1-4.9,1c-5.3,0-8.5-3.8-9-4.3L319,215.6c-0.2-0.4-0.5-0.6-0.9-0.6c-0.1,0-0.2,0-0.3,0.1
			c-0.5,0.2-0.8,0.6-0.7,1.1l8.6,43.9c0,0,0,0,0,0c0.3,1.1,0.7,4.3-0.4,5.8c-0.4,0.5-1,0.8-1.9,0.8h-13c-0.6,0-1,0.4-1,1v75.6
			c0,0,0,0.1,0,0.1c0,0,0.4,3.8-2.2,6.7c-2,2.2-5.3,3.4-9.8,3.4c-14.5,0-14.5-8.6-14.5-11.5v-75c0-0.6-0.4-1-1-1h-2.5h-3.3h-2.5
			c-0.6,0-1,0.4-1,1v75c0,2.8,0,11.5-14.5,11.5c-4.5,0-7.8-1.1-9.8-3.4c-2.6-2.9-2.2-6.7-2.2-6.7c0,0,0-0.1,0-0.1v-75.6
			c0-0.6-0.4-1-1-1h-13c-0.8,0-1.5-0.3-1.9-0.8c-1.1-1.5-0.7-4.6-0.4-5.8c0,0,0,0,0-0.1l8.6-43.9c0.1-0.5-0.2-1-0.7-1.1
			c-0.1,0-0.2-0.1-0.3-0.1c-0.4,0-0.7,0.2-0.9,0.6L224.7,240c-0.4,0.5-3.7,4.3-9,4.3c-1.6,0-3.2-0.3-4.9-1
			c-5.7-2.2-6.5-7.8-5.4-12.3c0.9-3.3,21.9-46.4,32-67.1c3.4-6.9,5.8-11.9,6.7-13.7c2.5-5.2,7-7.8,13.3-7.8h18.7h3.3H298.2
			 M298.2,141.4c-2.6,0-13.2,0-18.7,0c-2,0-3.3,0-3.3,0c-5.5,0-16.1,0-18.7,0c-3.6,0-10.6,0.7-14.2,8.4c-3.7,7.8-37.5,76.5-38.7,81
			c-1.3,5.1-0.1,11.1,6,13.4c1.9,0.7,3.7,1,5.2,1c6.3,0,9.8-4.8,9.8-4.8l12-24.5L229,260c0,0-1.9,7.8,3.2,7.8c5.2,0,13,0,13,0v75.6
			c0,0-1.3,11.2,13,11.2s15.5-7.9,15.5-12.5c0-4.5,0-75,0-75h2.5h3.3h2.5c0,0,0,70.4,0,75c0,4.5,1.3,12.5,15.5,12.5
			c14.2,0,13-11.2,13-11.2v-75.6c0,0,7.8,0,13,0s3.2-7.8,3.2-7.8l-8.6-43.9l12,24.5c0,0,3.5,4.8,9.8,4.8c1.6,0,3.3-0.3,5.2-1
			c6.1-2.4,7.3-8.3,6-13.4c-1.1-4.4-35-73.1-38.7-81C308.8,142.1,301.8,141.4,298.2,141.4L298.2,141.4z"/>
	</g>
</g>
<g>
	<circle class="st0" cx="401.8" cy="70.5" r="26.2"/>
	<g>
		<path class="st1" d="M420.8,105.1c6.4,0,10.9,2.6,13.3,7.8c0.9,1.8,3.3,6.8,6.7,13.7c10.1,20.7,31.1,63.8,32,67.1
			c1.2,4.5,0.4,10-5.4,12.3c-1.7,0.6-3.3,1-4.9,1c-5.3,0-8.5-3.8-9-4.3l-11.9-24.4c-0.2-0.4-0.5-0.6-0.9-0.6c-0.1,0-0.2,0-0.3,0.1
			c-0.5,0.2-0.8,0.6-0.7,1.1l8.6,43.9c0,0,0,0,0,0c0.3,1.1,0.7,4.3-0.4,5.8c-0.4,0.5-1,0.8-1.9,0.8h-13c-0.6,0-1,0.4-1,1V306
			c0,0,0,0.1,0,0.1c0,0,0.4,3.8-2.2,6.7c-2,2.2-5.3,3.4-9.8,3.4c-14.5,0-14.5-8.6-14.5-11.5v-75c0-0.6-0.4-1-1-1H402h-3.3h-2.5
			c-0.6,0-1,0.4-1,1v75c0,2.8,0,11.5-14.5,11.5c-4.5,0-7.8-1.1-9.8-3.4c-2.6-2.9-2.2-6.7-2.2-6.7c0,0,0-0.1,0-0.1v-75.6
			c0-0.6-0.4-1-1-1h-13c-0.8,0-1.5-0.3-1.9-0.8c-1.1-1.5-0.7-4.6-0.4-5.8c0,0,0,0,0-0.1l8.6-43.9c0.1-0.5-0.2-1-0.7-1.1
			c-0.1,0-0.2-0.1-0.3-0.1c-0.4,0-0.7,0.2-0.9,0.6l-11.9,24.4c-0.4,0.5-3.7,4.3-9,4.3c-1.6,0-3.2-0.3-4.9-1
			c-5.7-2.2-6.5-7.8-5.4-12.3c0.9-3.3,21.9-46.4,32-67.1c3.4-6.9,5.8-11.9,6.7-13.7c2.5-5.2,7-7.8,13.3-7.8h18.7h3.3H420.8
			 M420.8,104.1c-2.6,0-13.2,0-18.7,0c-2,0-3.3,0-3.3,0c-5.5,0-16.1,0-18.7,0c-3.6,0-10.6,0.7-14.2,8.4c-3.7,7.8-37.5,76.5-38.7,81
			c-1.3,5.1-0.1,11.1,6,13.4c1.9,0.7,3.7,1,5.2,1c6.3,0,9.8-4.8,9.8-4.8l12-24.5l-8.6,43.9c0,0-1.9,7.8,3.2,7.8c5.2,0,13,0,13,0V306
			c0,0-1.3,11.2,13,11.2s15.5-7.9,15.5-12.5c0-4.5,0-75,0-75h2.5h3.3h2.5c0,0,0,70.4,0,75c0,4.5,1.3,12.5,15.5,12.5
			c14.2,0,13-11.2,13-11.2v-75.6c0,0,7.8,0,13,0s3.2-7.8,3.2-7.8l-8.6-43.9l12,24.5c0,0,3.5,4.8,9.8,4.8c1.6,0,3.3-0.3,5.2-1
			c6.1-2.4,7.3-8.3,6-13.4c-1.1-4.4-35-73.1-38.7-81C431.3,104.8,424.3,104.1,420.8,104.1L420.8,104.1z"/>
	</g>
</g>
<g>
	<circle class="st0" cx="56.3" cy="124.8" r="19.6"/>
	<g>
		<path class="st1" d="M70.5,151c4.7,0,8,1.9,9.8,5.7c0.6,1.4,2.5,5.1,5,10.3c7.6,15.5,23.3,47.7,23.9,50.2c0.8,3.2,0.3,7.3-3.9,8.9
			c-1.2,0.5-2.4,0.7-3.6,0.7c-3.9,0-6.1-2.6-6.5-3.1l-8.9-18.2c-0.2-0.4-0.5-0.6-0.9-0.6c-0.1,0-0.2,0-0.3,0.1
			c-0.5,0.2-0.8,0.6-0.7,1.1l6.4,32.8c0,0,0,0,0,0.1c0.2,0.7,0.5,3.1-0.3,4.1c-0.2,0.2-0.5,0.5-1.2,0.5h-9.7c-0.6,0-1,0.4-1,1v56.6
			c0,0,0,0.1,0,0.1c0,0,0.3,2.8-1.6,4.8c-1.5,1.6-3.9,2.4-7.1,2.4c-4.6,0-10.6-0.9-10.6-8.3V244c0-0.6-0.4-1-1-1h-1.9H54h-1.9
			c-0.6,0-1,0.4-1,1v56.1c0,7.5-6.1,8.3-10.6,8.3c-3.3,0-5.7-0.8-7.1-2.4c-1.9-2.1-1.6-4.8-1.6-4.8c0,0,0-0.1,0-0.1v-56.6
			c0-0.6-0.4-1-1-1h-9.7c-0.7,0-1-0.3-1.2-0.5c-0.8-1-0.4-3.3-0.3-4.1c0,0,0,0,0-0.1l6.4-32.8c0.1-0.5-0.2-1-0.7-1.1
			c-0.1,0-0.2-0.1-0.3-0.1c-0.4,0-0.7,0.2-0.9,0.6l-8.9,18.2c-0.4,0.5-2.7,3.1-6.5,3.1c-1.1,0-2.3-0.2-3.6-0.7
			c-4.1-1.6-4.7-5.6-3.9-8.9c0.6-2.5,16.4-34.7,23.9-50.2c2.5-5.2,4.3-8.9,5-10.3c1.8-3.8,5.1-5.7,9.8-5.7h14h2.5H70.5 M70.5,150
			c-2,0-9.9,0-14,0c-1.5,0-2.5,0-2.5,0c-4.1,0-12.1,0-14,0c-2.7,0-7.9,0.5-10.7,6.3c-2.8,5.9-28.1,57.3-29,60.6
			c-1,3.8-0.1,8.3,4.5,10.1c1.4,0.6,2.7,0.8,3.9,0.8c4.7,0,7.4-3.6,7.4-3.6l9-18.3l-6.4,32.8c0,0-1.5,5.8,2.4,5.8s9.7,0,9.7,0v56.6
			c0,0-1,8.4,9.7,8.4c10.7,0,11.6-5.9,11.6-9.3c0-3.4,0-56.1,0-56.1H54h2.5h1.9c0,0,0,52.7,0,56.1c0,3.4,1,9.3,11.6,9.3
			c10.7,0,9.7-8.4,9.7-8.4v-56.6c0,0,5.8,0,9.7,0s2.4-5.8,2.4-5.8l-6.4-32.8l9,18.3c0,0,2.6,3.6,7.4,3.6c1.2,0,2.5-0.2,3.9-0.8
			c4.5-1.8,5.5-6.2,4.5-10.1c-0.9-3.3-26.2-54.7-29-60.6C78.4,150.5,73.2,150,70.5,150L70.5,150z"/>
	</g>
</g>
<g>
	<g>
		<path class="st1" d="M143.5,88.3c13.9,0,25.2,11.3,25.2,25.2c0,13.9-11.3,25.2-25.2,25.2c-13.9,0-25.2-11.3-25.2-25.2
			C118.3,99.6,129.6,88.3,143.5,88.3 M143.5,87.3c-14.5,0-26.2,11.7-26.2,26.2c0,14.5,11.7,26.2,26.2,26.2
			c14.5,0,26.2-11.7,26.2-26.2C169.7,99,158,87.3,143.5,87.3L143.5,87.3z"/>
	</g>
	<g>
		<path class="st1" d="M163.1,143c6.4,0,10.9,2.6,13.3,7.8c0.9,1.8,3.3,6.8,6.7,13.7c10.1,20.7,31.1,63.8,32,67.1
			c1.2,4.5,0.4,10-5.4,12.3c-1.7,0.6-3.3,1-4.9,1c-5.3,0-8.5-3.8-9-4.3l-19-39c-0.2-0.3-0.5-0.6-0.9-0.6c-0.1,0-0.1,0-0.2,0
			c-0.5,0.1-0.8,0.5-0.8,1l-0.5,66.3v75.6c0,0,0,0.1,0,0.1c0,0,0.4,3.8-2.2,6.7c-2,2.2-5.3,3.4-9.8,3.4c-14.5,0-14.5-8.6-14.5-11.5
			v-75c0-0.6-0.4-1-1-1h-2.5h-3.3h-2.5c-0.6,0-1,0.4-1,1v75c0,2.8,0,11.5-14.5,11.5c-4.5,0-7.8-1.1-9.8-3.4
			c-2.6-2.9-2.2-6.7-2.2-6.7c0,0,0-0.1,0-0.1l0-75.6l0.5-68.3c0-0.5-0.3-0.9-0.8-1c-0.1,0-0.2,0-0.2,0c-0.4,0-0.7,0.2-0.9,0.6
			l-20.1,41c-0.4,0.5-3.7,4.3-9,4.3c-1.6,0-3.2-0.3-4.9-1c-5.7-2.2-6.5-7.8-5.4-12.3c0.9-3.3,21.9-46.4,32-67.1
			c3.4-6.9,5.8-11.9,6.7-13.7c2.5-5.2,7-7.8,13.3-7.8h18.7h3.3H163.1 M163.1,142c-2.6,0-13.2,0-18.7,0c-2,0-3.3,0-3.3,0
			c-5.5,0-16.1,0-18.7,0c-3.6,0-10.6,0.7-14.2,8.4c-3.7,7.8-37.5,76.5-38.7,81c-1.3,5.1-0.1,11.1,6,13.4c1.9,0.7,3.7,1,5.2,1
			c6.3,0,9.8-4.8,9.8-4.8l20.1-41.1l-0.5,68.3v75.6c0,0-1.3,11.2,13,11.2c14.2,0,15.5-7.9,15.5-12.5c0-4.5,0-75,0-75h2.5h3.3h2.5
			c0,0,0,70.4,0,75c0,4.5,1.3,12.5,15.5,12.5c14.2,0,13-11.2,13-11.2v-75.6l0.5-66.3l19.1,39.1c0,0,3.5,4.8,9.8,4.8
			c1.6,0,3.3-0.3,5.2-1c6.1-2.4,7.3-8.3,6-13.4c-1.1-4.4-35-73.1-38.7-81C173.7,142.7,166.7,142,163.1,142L163.1,142z"/>
	</g>
</g>
<g>
	<g>
		<path class="st1" d="M463.5,83.9c10.8,0,19.6,8.8,19.6,19.6s-8.8,19.6-19.6,19.6c-10.8,0-19.6-8.8-19.6-19.6
			S452.7,83.9,463.5,83.9 M463.5,82.9c-11.4,0-20.6,9.2-20.6,20.6s9.2,20.6,20.6,20.6s20.6-9.2,20.6-20.6S474.9,82.9,463.5,82.9
			L463.5,82.9z"/>
	</g>
	<g>
		<path class="st1" d="M479,127c4.9,0,8.4,2,10.3,6c0.7,1.4,2.6,5.3,5.2,10.8c7.9,16.3,24.4,50.1,25.1,52.7c0.9,3.4,0.3,7.7-4.1,9.4
			c-1.3,0.5-2.5,0.8-3.8,0.8c-4,0-6.5-2.8-6.9-3.3l-16-32.6c-0.2-0.3-0.5-0.6-0.9-0.6c-0.1,0-0.2,0-0.2,0c-0.5,0.1-0.8,0.5-0.8,1
			l0.6,54.1v59.4c0,0,0,0.1,0,0.1c0,0,0.3,2.9-1.7,5.1c-1.5,1.7-4.1,2.6-7.5,2.6c-4.8,0-11.2-0.9-11.2-8.8v-58.9c0-0.6-0.4-1-1-1h-2
			h-2.6h-2c-0.6,0-1,0.4-1,1v58.9c0,7.9-6.4,8.8-11.2,8.8c-3.4,0-6-0.9-7.5-2.6c-2-2.2-1.7-5.1-1.7-5.1c0,0,0-0.1,0-0.1v-59.4
			l0.4-53.7c0-0.5-0.3-0.9-0.8-1c-0.1,0-0.2,0-0.2,0c-0.4,0-0.7,0.2-0.9,0.6L421,203.4c-0.4,0.5-2.8,3.3-6.9,3.3
			c-1.2,0-2.5-0.3-3.8-0.8c-4.4-1.7-5-6-4.1-9.4c0.7-2.6,17.2-36.4,25.1-52.7c2.6-5.4,4.5-9.3,5.2-10.8c1.9-4,5.4-6,10.3-6h14.7h2.6
			H479 M479,126c-2.1,0-10.4,0-14.7,0c-1.6,0-2.6,0-2.6,0c-4.3,0-12.7,0-14.7,0c-2.8,0-8.3,0.5-11.2,6.6
			c-2.9,6.2-29.5,60.2-30.4,63.6c-1,4-0.1,8.7,4.7,10.6c1.5,0.6,2.9,0.8,4.1,0.8c5,0,7.7-3.7,7.7-3.7l15.8-32.3l-0.4,53.7v59.4
			c0,0-1,8.8,10.2,8.8c11.2,0,12.2-6.2,12.2-9.8c0-3.6,0-58.9,0-58.9h2h2.6h2c0,0,0,55.4,0,58.9c0,3.6,1,9.8,12.2,9.8
			c11.2,0,10.2-8.8,10.2-8.8v-59.4l-0.6-54.1l16,32.7c0,0,2.8,3.7,7.7,3.7c1.2,0,2.6-0.2,4.1-0.8c4.8-1.9,5.7-6.5,4.7-10.6
			c-0.9-3.5-27.5-57.5-30.4-63.6C487.3,126.5,481.8,126,479,126L479,126z"/>
	</g>
</g>
<g>
	<g>
		<path class="st1" d="M211,57.7c13.9,0,25.2,11.3,25.2,25.2s-11.3,25.2-25.2,25.2c-13.9,0-25.2-11.3-25.2-25.2S197.1,57.7,211,57.7
			 M211,56.7c-14.5,0-26.2,11.7-26.2,26.2c0,14.5,11.7,26.2,26.2,26.2c14.5,0,26.2-11.7,26.2-26.2C237.2,68.5,225.5,56.7,211,56.7
			L211,56.7z"/>
	</g>
	<g>
		<path class="st1" d="M230.6,112.5c6.4,0,10.9,2.6,13.3,7.8c0.9,1.8,3.3,6.8,6.7,13.7c10.1,20.7,31.1,63.8,32,67.1
			c1.2,4.5,0.4,10-5.4,12.3c-1.7,0.6-3.3,1-4.9,1c-5.3,0-8.5-3.8-9-4.3L243,168.5c-0.2-0.3-0.5-0.6-0.9-0.6c-0.1,0-0.2,0-0.2,0
			c-0.5,0.1-0.8,0.5-0.8,1l0.8,68.8v75.6c0,0,0,0.1,0,0.1c0,0,0.4,3.8-2.2,6.7c-2,2.2-5.3,3.4-9.8,3.4c-14.5,0-14.5-8.6-14.5-11.5
			v-75c0-0.6-0.4-1-1-1h-2.5h-3.3h-2.5c-0.6,0-1,0.4-1,1v75c0,2.8,0,11.5-14.5,11.5c-4.5,0-7.8-1.1-9.8-3.4
			c-2.6-2.9-2.2-6.7-2.2-6.7c0,0,0-0.1,0-0.1l0-75.6l0.5-68.3c0-0.5-0.3-0.9-0.8-1c-0.1,0-0.2,0-0.2,0c-0.4,0-0.7,0.2-0.9,0.6
			l-20.1,41c-0.4,0.5-3.7,4.3-9,4.3c-1.6,0-3.2-0.3-4.9-1c-5.7-2.2-6.5-7.8-5.4-12.3c0.9-3.3,21.9-46.4,32-67.1
			c3.4-6.9,5.8-11.9,6.7-13.7c2.5-5.2,7-7.8,13.3-7.8h18.7h3.3H230.6 M230.6,111.5c-2.6,0-13.2,0-18.7,0c-2,0-3.3,0-3.3,0
			c-5.5,0-16.1,0-18.7,0c-3.6,0-10.6,0.7-14.2,8.4c-3.7,7.8-37.5,76.5-38.7,81c-1.3,5.1-0.1,11.1,6,13.4c1.9,0.7,3.7,1,5.2,1
			c6.3,0,9.8-4.8,9.8-4.8l20.1-41.1l-0.5,68.3v75.6c0,0-1.3,11.2,13,11.2s15.5-7.9,15.5-12.5s0-75,0-75h2.5h3.3h2.5c0,0,0,70.4,0,75
			s1.3,12.5,15.5,12.5c14.2,0,13-11.2,13-11.2v-75.6l-0.8-68.8l20.4,41.6c0,0,3.5,4.8,9.8,4.8c1.6,0,3.3-0.3,5.2-1
			c6.1-2.4,7.3-8.3,6-13.4c-1.1-4.4-35-73.1-38.7-81C241.2,112.2,234.2,111.5,230.6,111.5L230.6,111.5z"/>
	</g>
</g>
<g>
	<g>
		<path class="st1" d="M261.9,23c9.3,0,16.9,7.6,16.9,16.9s-7.6,16.9-16.9,16.9c-9.3,0-16.9-7.6-16.9-16.9S252.6,23,261.9,23
			 M261.9,22c-9.9,0-17.9,8-17.9,17.9c0,9.9,8,17.9,17.9,17.9c9.9,0,17.9-8,17.9-17.9C279.8,30.1,271.8,22,261.9,22L261.9,22z"/>
	</g>
	<g>
		<path class="st1" d="M275.3,60.4c4.2,0,7.2,1.7,8.8,5.2c0.6,1.2,2.3,4.6,4.5,9.3c6.9,14.1,21.2,43.5,21.8,45.7
			c0.8,2.9,0.2,6.5-3.5,8c-1.1,0.4-2.2,0.6-3.2,0.6c-3.5,0-5.5-2.4-5.9-2.8L284,98.2c-0.2-0.3-0.5-0.6-0.9-0.6c-0.1,0-0.2,0-0.2,0
			c-0.5,0.1-0.8,0.5-0.8,1l0.5,47v51.6c0,0,0,0.1,0,0.1c0,0,0.2,2.5-1.4,4.3c-1.3,1.5-3.5,2.2-6.4,2.2c-8.6,0-9.6-4.3-9.6-7.5v-51.2
			c0-0.6-0.4-1-1-1h-1.7h-2.3h-1.7c-0.6,0-1,0.4-1,1v51.2c0,3.2-1,7.5-9.6,7.5c-3,0-5.1-0.7-6.4-2.2c-1.7-1.8-1.4-4.3-1.4-4.3
			c0,0,0-0.1,0-0.1l0-51.6l0.4-46.6c0-0.5-0.3-0.9-0.8-1c-0.1,0-0.2,0-0.2,0c-0.4,0-0.7,0.2-0.9,0.6l-13.7,27.9
			c-0.3,0.4-2.4,2.8-5.9,2.8c-1,0-2.1-0.2-3.2-0.6c-3.7-1.4-4.2-5.1-3.5-8c0.6-2.2,14.9-31.6,21.8-45.7c2.3-4.7,4-8.1,4.5-9.3
			c1.6-3.4,4.6-5.2,8.8-5.2h12.8h2.3H275.3 M275.3,59.4c-1.8,0-9,0-12.8,0c-1.4,0-2.3,0-2.3,0c-3.7,0-11,0-12.8,0
			c-2.4,0-7.2,0.5-9.7,5.7c-2.5,5.4-25.6,52.2-26.4,55.3c-0.9,3.5-0.1,7.6,4.1,9.2c1.3,0.5,2.5,0.7,3.6,0.7c4.3,0,6.7-3.3,6.7-3.3
			l13.7-28l-0.4,46.6v51.6c0,0-0.9,7.7,8.8,7.7s10.6-5.4,10.6-8.5c0-3.1,0-51.2,0-51.2h1.7h2.3h1.7c0,0,0,48.1,0,51.2
			c0,3.1,0.9,8.5,10.6,8.5c9.7,0,8.8-7.7,8.8-7.7v-51.6l-0.5-47l13.9,28.4c0,0,2.4,3.3,6.7,3.3c1.1,0,2.3-0.2,3.6-0.7
			c4.1-1.6,5-5.7,4.1-9.2c-0.8-3-23.9-49.9-26.4-55.3C282.5,59.9,277.7,59.4,275.3,59.4L275.3,59.4z"/>
	</g>
</g>
<g>
	<g>
		<path class="st1" d="M103.7,65.4c7.6,0,13.7,6.2,13.7,13.7s-6.2,13.7-13.7,13.7c-7.6,0-13.7-6.2-13.7-13.7S96.1,65.4,103.7,65.4
			 M103.7,64.4c-8.1,0-14.7,6.6-14.7,14.7c0,8.1,6.6,14.7,14.7,14.7s14.7-6.6,14.7-14.7C118.4,71,111.8,64.4,103.7,64.4L103.7,64.4z
			"/>
	</g>
	<g>
		<path class="st1" d="M114.7,96.2c3.5,0,5.8,1.4,7.1,4.2c0.5,1,1.9,3.8,3.7,7.7c5.7,11.6,17.5,35.8,17.9,37.6
			c0.6,2.3,0.2,5.2-2.8,6.4c-0.9,0.3-1.8,0.5-2.6,0.5c-2.7,0-4.4-1.8-4.7-2.2l-11.4-23.3c-0.2-0.3-0.5-0.6-0.9-0.6
			c-0.1,0-0.2,0-0.2,0c-0.5,0.1-0.8,0.5-0.8,1l0.5,38.7v42.5c0,0,0,0.1,0,0.1c0,0,0.2,2-1.1,3.4c-1,1.2-2.8,1.8-5.2,1.8
			c-6.9,0-7.7-3.4-7.7-6v-42.2c0-0.6-0.4-1-1-1h-1.4h-1.9h-1.4c-0.6,0-1,0.4-1,1V208c0,2.6-0.8,6-7.7,6c-2.4,0-4.1-0.6-5.2-1.8
			c-1.3-1.5-1.1-3.4-1.1-3.4c0,0,0-0.1,0-0.1l0-42.5l0.3-38.4c0-0.5-0.3-0.9-0.8-1c-0.1,0-0.2,0-0.2,0c-0.4,0-0.7,0.2-0.9,0.6
			l-11.3,23c-0.3,0.4-1.9,2.2-4.7,2.2c-0.8,0-1.7-0.2-2.6-0.5c-3-1.2-3.4-4-2.8-6.4c0.5-1.8,12.3-26,17.9-37.6
			c1.9-3.9,3.3-6.7,3.7-7.7c1.3-2.8,3.7-4.2,7.1-4.2h10.5h1.9H114.7 M114.7,95.2c-1.5,0-7.4,0-10.5,0c-1.1,0-1.9,0-1.9,0
			c-3.1,0-9.1,0-10.5,0c-2,0-5.9,0.4-8,4.7c-2.1,4.4-21.1,43-21.8,45.5c-0.7,2.9,0,6.2,3.4,7.6c1.1,0.4,2.1,0.6,2.9,0.6
			c3.5,0,5.5-2.7,5.5-2.7l11.3-23.1l-0.3,38.4v42.5c0,0-0.7,6.3,7.3,6.3s8.7-4.5,8.7-7c0-2.5,0-42.2,0-42.2h1.4h1.9h1.4
			c0,0,0,39.6,0,42.2c0,2.5,0.7,7,8.7,7c8,0,7.3-6.3,7.3-6.3v-42.5l-0.5-38.7l11.5,23.4c0,0,2,2.7,5.5,2.7c0.9,0,1.9-0.2,2.9-0.6
			c3.4-1.3,4.1-4.7,3.4-7.6c-0.6-2.5-19.7-41.1-21.8-45.5C120.6,95.6,116.7,95.2,114.7,95.2L114.7,95.2z"/>
	</g>
</g>
<g>
	<g>
		<path class="st1" d="M162.9,21.6c7.6,0,13.7,6.2,13.7,13.7c0,7.6-6.2,13.7-13.7,13.7c-7.6,0-13.7-6.2-13.7-13.7
			C149.2,27.8,155.3,21.6,162.9,21.6 M162.9,20.6c-8.1,0-14.7,6.6-14.7,14.7c0,8.1,6.6,14.7,14.7,14.7s14.7-6.6,14.7-14.7
			C177.7,27.2,171.1,20.6,162.9,20.6L162.9,20.6z"/>
	</g>
	<g>
		<path class="st1" d="M174,52.4c3.5,0,5.8,1.4,7.1,4.2c0.5,1,1.9,3.8,3.7,7.7c5.7,11.6,17.5,35.8,17.9,37.6
			c0.6,2.3,0.2,5.2-2.8,6.4c-0.9,0.3-1.8,0.5-2.6,0.5c-2.7,0-4.4-1.8-4.7-2.2l-11.4-23.3c-0.2-0.3-0.5-0.6-0.9-0.6
			c-0.1,0-0.2,0-0.2,0c-0.5,0.1-0.8,0.5-0.8,1l0.5,38.7v42.5c0,0,0,0.1,0,0.1c0,0,0.2,2-1.1,3.4c-1,1.2-2.8,1.8-5.2,1.8
			c-6.9,0-7.7-3.4-7.7-6v-42.2c0-0.6-0.4-1-1-1h-1.4h-1.9h-1.4c-0.6,0-1,0.4-1,1v42.2c0,2.6-0.8,6-7.7,6c-2.4,0-4.1-0.6-5.2-1.8
			c-1.3-1.5-1.1-3.4-1.1-3.4c0,0,0-0.1,0-0.1l0-42.5l0.3-38.4c0-0.5-0.3-0.9-0.8-1c-0.1,0-0.2,0-0.2,0c-0.4,0-0.7,0.2-0.9,0.6
			l-11.3,23c-0.3,0.4-1.9,2.2-4.7,2.2c-0.8,0-1.7-0.2-2.6-0.5c-3-1.2-3.4-4-2.8-6.4c0.5-1.8,12.3-26,17.9-37.6
			c1.9-3.9,3.3-6.7,3.7-7.7c1.3-2.8,3.7-4.2,7.1-4.2h10.5h1.9H174 M174,51.4c-1.5,0-7.4,0-10.5,0c-1.1,0-1.9,0-1.9,0
			c-3.1,0-9.1,0-10.5,0c-2,0-5.9,0.4-8,4.7c-2.1,4.4-21.1,43-21.8,45.5c-0.7,2.9,0,6.2,3.4,7.6c1.1,0.4,2.1,0.6,2.9,0.6
			c3.5,0,5.5-2.7,5.5-2.7l11.3-23.1l-0.3,38.4v42.5c0,0-0.7,6.3,7.3,6.3s8.7-4.5,8.7-7c0-2.5,0-42.2,0-42.2h1.4h1.9h1.4
			c0,0,0,39.6,0,42.2c0,2.5,0.7,7,8.7,7c8,0,7.3-6.3,7.3-6.3v-42.5l-0.5-38.7l11.5,23.4c0,0,2,2.7,5.5,2.7c0.9,0,1.9-0.2,2.9-0.6
			c3.4-1.3,4.1-4.7,3.4-7.6c-0.6-2.5-19.7-41.1-21.8-45.5C179.9,51.8,176,51.4,174,51.4L174,51.4z"/>
	</g>
</g>
<g>
	<g>
		<path class="st1" d="M317.1,8.1c5,0,9.1,4.1,9.1,9.1s-4.1,9.1-9.1,9.1c-5,0-9.1-4.1-9.1-9.1S312.1,8.1,317.1,8.1 M317.1,7.1
			c-5.6,0-10.1,4.5-10.1,10.1s4.5,10.1,10.1,10.1c5.6,0,10.1-4.5,10.1-10.1S322.6,7.1,317.1,7.1L317.1,7.1z"/>
	</g>
	<g>
		<path class="st1" d="M324.6,29.1c2.2,0,3.7,0.9,4.6,2.7c0.3,0.7,1.3,2.6,2.6,5.3c3.6,7.3,11.9,24.3,12.2,25.6
			c0.2,0.7,0.6,3.1-1.7,4c-0.6,0.2-1.1,0.3-1.6,0.3c-1.7,0-2.7-1.1-2.9-1.4l-7.8-15.9c-0.2-0.3-0.5-0.6-0.9-0.6c-0.1,0-0.2,0-0.2,0
			c-0.5,0.1-0.8,0.5-0.8,1l0.3,26.4v29c0,0,0,0.1,0,0.1c0,0,0.1,1.2-0.7,2.1c-0.7,0.7-1.8,1.1-3.3,1.1c-4.4,0-5-2-5-3.8V76.4
			c0-0.6-0.4-1-1-1h-1h-1.3h-1c-0.6,0-1,0.4-1,1v28.8c0,1.8-0.6,3.8-5,3.8c-1.5,0-2.6-0.4-3.3-1.1c-0.8-0.9-0.7-2.1-0.7-2.1
			c0,0,0-0.1,0-0.1v-29l0.2-26.2c0-0.5-0.3-0.9-0.8-1c-0.1,0-0.2,0-0.2,0c-0.4,0-0.7,0.2-0.9,0.6l-7.7,15.7
			c-0.2,0.3-1.3,1.4-2.9,1.4c-0.5,0-1.1-0.1-1.6-0.3c-2.3-0.9-1.9-3.3-1.7-4c0.4-1.3,8.7-18.4,12.2-25.6c1.3-2.6,2.2-4.6,2.6-5.3
			c0.9-1.8,2.3-2.7,4.6-2.7h7.2h1.3H324.6 M324.6,28.1c-1,0-5.1,0-7.2,0c-0.8,0-1.3,0-1.3,0c-2.1,0-6.2,0-7.2,0
			c-1.4,0-4.1,0.3-5.5,3.2c-1.4,3-14.4,29.4-14.9,31.1c-0.5,2,0,4.3,2.3,5.2c0.7,0.3,1.4,0.4,2,0.4c2.4,0,3.8-1.8,3.8-1.8l7.7-15.8
			l-0.2,26.2v29c0,0-0.5,4.3,5,4.3s6-3,6-4.8s0-28.8,0-28.8h1h1.3h1c0,0,0,27,0,28.8s0.5,4.8,6,4.8c5.5,0,5-4.3,5-4.3v-29L329,50.2
			l7.8,16c0,0,1.4,1.8,3.8,1.8c0.6,0,1.3-0.1,2-0.4c2.3-0.9,2.8-3.2,2.3-5.2c-0.4-1.7-13.4-28.1-14.9-31.1
			C328.7,28.4,326,28.1,324.6,28.1L324.6,28.1z"/>
	</g>
</g>
<g>
	<g>
		<path class="st1" d="M129.3,31.1c5,0,9.1,4.1,9.1,9.1c0,5-4.1,9.1-9.1,9.1c-5,0-9.1-4.1-9.1-9.1C120.2,35.2,124.3,31.1,129.3,31.1
			 M129.3,30.1c-5.6,0-10.1,4.5-10.1,10.1s4.5,10.1,10.1,10.1c5.6,0,10.1-4.5,10.1-10.1S134.8,30.1,129.3,30.1L129.3,30.1z"/>
	</g>
	<g>
		<path class="st1" d="M136.8,52.2c2.2,0,3.7,0.9,4.6,2.7c0.3,0.7,1.3,2.7,2.6,5.3c3.6,7.3,11.9,24.3,12.2,25.6
			c0.2,0.7,0.6,3.1-1.7,4c-0.6,0.2-1.1,0.3-1.6,0.3c-1.7,0-2.7-1.1-2.9-1.4l-7.8-15.9c-0.2-0.3-0.5-0.6-0.9-0.6c-0.1,0-0.2,0-0.2,0
			c-0.5,0.1-0.8,0.5-0.8,1l0.3,26.4v29c0,0,0,0.1,0,0.1c0,0,0.1,1.2-0.7,2.1c-0.7,0.7-1.8,1.1-3.3,1.1c-4.4,0-5-2-5-3.8V99.4
			c0-0.6-0.4-1-1-1h-1h-1.3h-1c-0.6,0-1,0.4-1,1v28.8c0,1.8-0.6,3.8-5,3.8c-1.5,0-2.6-0.4-3.3-1.1c-0.8-0.9-0.7-2.1-0.7-2.1
			c0,0,0-0.1,0-0.1v-29l0.2-26.2c0-0.5-0.3-0.9-0.8-1c-0.1,0-0.2,0-0.2,0c-0.4,0-0.7,0.2-0.9,0.6l-7.7,15.7
			c-0.2,0.3-1.3,1.4-2.9,1.4c-0.5,0-1.1-0.1-1.6-0.3c-2.3-0.9-1.9-3.3-1.7-4c0.4-1.3,8.7-18.4,12.2-25.6c1.3-2.6,2.2-4.6,2.6-5.3
			c0.9-1.8,2.3-2.7,4.6-2.7h7.2h1.3H136.8 M136.8,51.2c-1,0-5.1,0-7.2,0c-0.8,0-1.3,0-1.3,0c-2.1,0-6.2,0-7.2,0
			c-1.4,0-4.1,0.3-5.5,3.2c-1.4,3-14.4,29.4-14.9,31.1c-0.5,2,0,4.3,2.3,5.2c0.7,0.3,1.4,0.4,2,0.4c2.4,0,3.8-1.8,3.8-1.8l7.7-15.8
			l-0.2,26.2v29c0,0-0.5,4.3,5,4.3s6-3,6-4.8c0-1.7,0-28.8,0-28.8h1h1.3h1c0,0,0,27,0,28.8c0,1.7,0.5,4.8,6,4.8c5.5,0,5-4.3,5-4.3
			v-29l-0.3-26.4l7.8,16c0,0,1.4,1.8,3.8,1.8c0.6,0,1.3-0.1,2-0.4c2.3-0.9,2.8-3.2,2.3-5.2c-0.4-1.7-13.4-28.1-14.9-31.1
			C140.9,51.4,138.2,51.2,136.8,51.2L136.8,51.2z"/>
	</g>
</g>
<g>
	<g>
		<path class="st1" d="M345,52.4c10,0,18.2,8.1,18.2,18.2c0,10-8.1,18.2-18.2,18.2s-18.2-8.1-18.2-18.2
			C326.9,60.6,335,52.4,345,52.4 M345,51.4c-10.6,0-19.2,8.6-19.2,19.2s8.6,19.2,19.2,19.2c10.6,0,19.2-8.6,19.2-19.2
			S355.6,51.4,345,51.4L345,51.4z"/>
	</g>
	<g>
		<path class="st1" d="M359.4,92.4c4.5,0,7.7,1.9,9.5,5.6c0.6,1.3,2.4,5,4.9,10c7.4,15.1,22.7,46.6,23.3,49c0.8,3.1,0.3,7.1-3.8,8.6
			c-1.2,0.5-2.3,0.7-3.5,0.7c-3.7,0-6-2.6-6.3-3L368.7,133c-0.2-0.3-0.5-0.6-0.9-0.6c-0.1,0-0.2,0-0.2,0c-0.5,0.1-0.8,0.5-0.8,1
			l0.6,50.3v55.2c0,0,0,0.1,0,0.1c0,0,0.3,2.7-1.5,4.7c-1.4,1.6-3.8,2.4-6.9,2.4c-4.4,0-10.4-0.8-10.4-8.1v-54.8c0-0.6-0.4-1-1-1
			h-1.8h-2.4h-1.8c-0.6,0-1,0.4-1,1V238c0,3.5-1.1,8.1-10.4,8.1c-3.2,0-5.5-0.8-6.9-2.4c-1.8-2-1.5-4.7-1.5-4.7c0,0,0-0.1,0-0.1
			v-55.2l0.4-49.9c0-0.5-0.3-0.9-0.8-1c-0.1,0-0.2,0-0.2,0c-0.4,0-0.7,0.2-0.9,0.6l-14.7,29.9c-0.4,0.5-2.6,3-6.3,3
			c-1.1,0-2.3-0.2-3.5-0.7c-4-1.6-4.6-5.5-3.8-8.6c0.6-2.4,16-33.8,23.3-49c2.5-5,4.2-8.7,4.9-10c1.8-3.7,5-5.6,9.5-5.6h13.7h2.4
			H359.4 M359.4,91.4c-1.9,0-9.7,0-13.7,0c-1.4,0-2.4,0-2.4,0c-4,0-11.8,0-13.7,0c-2.6,0-7.7,0.5-10.4,6.2
			c-2.7,5.7-27.4,55.9-28.3,59.1c-1,3.7-0.1,8.1,4.4,9.8c1.4,0.5,2.7,0.8,3.8,0.8c4.6,0,7.2-3.5,7.2-3.5l14.7-30l-0.4,49.9v55.2
			c0,0-0.9,8.2,9.5,8.2c10.4,0,11.4-5.8,11.4-9.1c0-3.3,0-54.8,0-54.8h1.8h2.4h1.8c0,0,0,51.4,0,54.8c0,3.3,0.9,9.1,11.4,9.1
			c10.4,0,9.5-8.2,9.5-8.2v-55.2l-0.6-50.3l14.9,30.4c0,0,2.6,3.5,7.2,3.5c1.2,0,2.4-0.2,3.8-0.8c4.4-1.7,5.3-6.1,4.4-9.8
			c-0.8-3.2-25.5-53.4-28.3-59.1C367.1,91.9,362,91.4,359.4,91.4L359.4,91.4z"/>
	</g>
</g>
</svg>
