<?xml version="1.0" encoding="UTF-8"?><svg id="a" xmlns="http://www.w3.org/2000/svg" viewBox="0 0 323.03 253.77"><defs><style>.b{fill:none;stroke:#fff;stroke-miterlimit:10;}</style></defs><polygon class="b" points="77.61 223.65 79.29 226.07 81.21 225.22 81.15 218.42 77.61 223.65"/><polygon class="b" points="71.25 195.69 64.27 204.92 66.75 208.07 75.69 201.15 71.25 195.69"/><polygon class="b" points="63.09 185.79 57.86 182.64 56.23 182.75 56.23 210.65 68.72 192.99 63.09 185.79"/><polygon class="b" points="80.7 185.68 80.08 184.84 78.51 184.67 72.99 193.22 81.04 202.78 80.7 185.68"/><polygon class="b" points="76.99 92.87 81.98 97.15 82.05 90.67 70.24 85.95 75.13 93.04 76.99 92.87"/><path class="b" d="M46.5,185.45c-1.01,.9-10.8,18.73-10.8,18.73l15.75,12.15,.11-.96v-31.78l-.28-1.01s-3.77,1.97-4.78,2.87Z"/><path class="b" d="M60.28,80.55s-2.48-1.22-5.57-3.06v31.27l16.03-14.87-10.46-13.33Z"/><path class="b" d="M29.4,145.52c-.67,2.36-1.69,3.38-1.69,3.38l-.68,3.37-1.01,.67v58.69c7.38-11.29,17.39-26.5,18.96-28.31,2.53-2.92,6.47-4.11,6.47-4.11v-58.39h.84v-4.75l-25.09,24.04s2.87,3.04,2.19,5.4Z"/><polygon class="b" points="56.79 215.83 57.86 215.66 64.89 209.87 62.7 207.05 56.79 215.83"/><path class="b" d="M236.34,195.35s.68,.56,1.46,.9c.46,.2,.85,1.41,1.09,2.37l1.28-1.21,4.3-4.56,.15-2.91-7.71,1.36-.56,4.05Z"/><polygon class="b" points="68.04 210.26 76.91 221.91 76.99 222.02 81.21 215.27 81.21 207.73 77.27 203.06 68.04 210.26"/><path class="b" d="M229.7,151.93s-1.24-.67-2.14-1.8c-.9-1.12-3.71-1.46-3.71-1.46l-2.02-.79c-2.03-.79-3.94-4.5-3.94-4.5l.54-1.53c-4.94,.82-11.01,1.12-19.63,.59,10.39,6.61,18.61,16.33,23.35,27.85,1.87-.49,4.66-1.26,4.74-1.48,.11-.34,2.36-5.06,2.92-6.19,.56-1.12-1.24-4.16-2.14-5.51-.9-1.35,2.02-5.17,2.02-5.17Z"/><polygon class="b" points="85.82 224.88 87.45 225.34 89.42 223.25 91.27 220.1 85.82 213.69 85.82 224.88"/><path class="b" d="M66.13,169.37l.68-1.24,.79-6.08-1.01-.45s-2.02-3.82-.34-4.95c1.69-1.12,5.4-4.16,5.4-4.16l1.46-29.25-3.26-3.94,.11-4.73,1.8-.79,.45-8.66,.79-1.01s1.25-.06,3.5-.09l-4.74-6.6-16.67,15.98h4.01v4.22h-2.76v3.21h-.79v57.77l3.54,1.41,1.12-.62,1.29,.22-.23,.56,.23,.39-.06,.73s2.31,1.07,3.38,2.31c1.07,1.24,5.79,6.75,5.79,6.75l6.75-9.62h5.17v-5.19c-8.8-1.5-16.09-3.81-16.09-3.81l-.34-2.36Z"/><polygon class="b" points="88.97 186.75 88.86 186.07 87.62 185 85.87 185.34 85.87 208.97 92.68 217.01 100.72 203.12 91.33 188.72 88.97 186.75"/><path class="b" d="M108.57,177.57c-2.92-.04-10.39-.24-19.27-1.11-.88-.09-1.77-.19-2.64-.3v4.63h3.21l2.98,1.29,.11,1.29-.79,1.29,16.2,25.2,.55,.12c-1.56-5.34-2.4-10.99-2.4-16.84,0-5.39,.71-10.61,2.04-15.58Z"/><path class="b" d="M322.26,246.34c-.59-1.43-2.79-1.86-2.79-1.86l-2.78-4.3-.68,.59s-.59-1.1-.84-1.43c-.25-.34-2.11-2.11-2.11-2.11l-37.71-30.37s-.09-3.12-.09-4.64-1.69-1.94-1.69-1.94h-2.7v-2.45s1.77,0,2.79-.25c1.01-.25,3.54-.84,3.54-.84,0,0,1.1,.34,1.77,.34s.76-1.1,.51-2.53c-.25-1.43-1.94-2.02-1.94-2.02l-1.43-2.45-.5,.25,.93,2.87-.34,1.27s-.76,.25-1.6,.17c-.84-.08-3.21-.93-3.21-.93v-3.37l-1.43-.09v-15.1l2.7-.51,.67,.94,30.37,49.86,2.95-2.11-31.72-51.64-1.6-.17-2.62-1.69V102.49l2.79,10.46s.59,.51,1.35,.17c.76-.34,.76-1.01,.76-1.01l-4.73-20.59v-22.61h3.63v-1.35s4.72-.67,10.29-1.27c5.57-.59,16.2-2.28,15.95-4.39-.25-2.11-24.21-3.21-24.21-3.21,0,0-3.37-1.69-5.91-1.69s-5.99,1.77-5.99,1.77c0,0-.41,.02-1.09,.06l-6.73-24.58,1.69-3.49s4.88-.59,11.36-1.58v26.44h1.12V29.02c13.28-2.06,32.23-5.63,31.05-9.16-1.8-5.4-38.36-3.71-38.36-3.71,0,0-2.03-.79-4.61-.56-2.58,.23-4.95,.56-6.97,1.24-2.02,.68-4.05,.9-8.66,1.57-4.61,.68-29.7,5.51-29.14,10.01,.56,4.5,36.45,2.47,36.45,2.47v4.28h3.04l7.19,23.81c-3.68,.19-9.04,.49-10.76,.65-2.7,.25-12.23,1.01-11.39,4.98,.84,3.97,15.36,3.54,15.36,3.54v2.95h-16.96v-1.52h2.95v-2.28h-7.76l-.25,1.01s-.59-2.53-1.52-4.72c-.93-2.19-2.11-3.04-2.11-3.04,0,0-.17-.59-.51-2.02-.34-1.43-3.54-9.2-5.06-11.73-1.52-2.53-5.4-5.23-7.09-6.08-1.69-.84-10.04-3.29-11.05-3.46-1.01-.17-2.28-.34-3.38-1.27-1.1-.93-2.28-.42-2.28-.42l-.68-.25s1.6-5.48,2.11-8.02c.51-2.53-.67-4.39-.76-5.23-.08-.84,.17-3.12,.09-4.22-.09-1.1-1.44-3.21-1.44-3.21l.93,.68s0-.76,.08-1.94c.08-1.18-.84-5.32-2.45-7.85-1.6-2.53-8.52-6.41-16.12-4.56-7.59,1.86-10.21,8.18-10.12,12.91,.08,4.72,.76,7.26,.76,7.26,0,0-.59-.34-.17,2.36,.42,2.7,3.88,4.98,3.88,4.98,0,0,.17,.93,.51,3.21,.34,2.28,.84,5.06,.84,5.06,0,0-2.36,1.86-3.71,2.78-1.35,.93-4.14,1.69-5.06,2.45-.93,.76-4.47,1.35-8.44,3.37-3.97,2.02-6.58,5.82-7.09,5.91-.51,.09-2.62,5.74-4.3,10.29-1.69,4.56-3.46,13.33-3.8,14.34-.34,1.01-.76,1.69-1.27,2.95-.51,1.27,.67,1.69,.67,1.69,0,0-.17,.84-.59,3.04-.42,2.19-.67,7.17-.84,12.23-.17,5.06,3.04,9.96,5.23,14.51,2.19,4.56,3.71,8.69,3.46,9.53-.25,.84-1.69,3.29-2.19,4.56-.51,1.27-1.35,1.35-2.79,3.8-1.43,2.45,.34,4.89,.34,4.89l-.07,3.52c-1.04,.38-2.07,.78-3.08,1.21l2.22-3.8-.34-2.03-1.58-1.35-2.02,4.5-.22-.56c-.22-.56-1.8-3.15-1.8-3.15l1.35-1.35c1.35-1.35,1.01-4.16,1.01-4.16l3.6-1.46,.9,1.13s1.24-1.8,2.14-2.25c.9-.45,1.01-1.24,1.01-1.24,0,0-1.35-1.35-3.49-3.15-2.14-1.8-6.19-3.04-6.19-3.04l.11-3.6-.79-.56,.11-2.47s-10.57-2.03-30.82-3.94c-8.49-.8-16.07-1.15-22.01-1.28l-.38-7.83,4.22-1.52c13.67,5.74,39.49,7.93,41.85,1.52,2.36-6.41-19.24-18.22-38.14-25.99-12.49-5.13-28.45-8.71-39.15-8.85v-10.39s1.91-1.07,1.63-2.98c7.59,1.58,12.88,2.64,19.86,4.05,6.98,1.41,12.99,2.48,13.56,1.69,.56-.79,1.12-2.92-6.98-6.24-8.1-3.32-21.43-7.48-21.43-7.48,0,0-1.69-1.58-2.81-2.76-1.13-1.18-4.44-2.93-7.93-3.6-3.49-.68-6.92,.06-8.21,.51-1.29,.45-2.19,.79-3.88,.51-1.69-.28-10.69-2.53-17.66-2.98-6.97-.45-13.89-.68-14.23,1.13-.34,1.8,8.44,5.06,19.8,7.99,11.36,2.93,22.56,5.79,22.56,5.79,0,0-.68,1.63,.39,3.04,1.07,1.41,2.93,1.8,2.93,1.8v9.97c-4.26,.18-7.41,1.04-8.72,2.74-2.61,3.38,3.24,8.25,8.72,11.8v35.02L.54,159.02s-.34,1.52,.84,2.7c1.18,1.18,2.53,1.52,2.53,1.52l17.38-16.2,1.35,1.35v66.33c-10.65,.17-19.07,2.25-19.07,4.8,0,2.15,6.02,3.97,14.33,4.59l-4.1,6.97s-.84,1.07-1.52,2.75c-.67,1.69-2.64,4.78-1.35,5.79,1.29,1.01,4.16,.67,5.46-.17,1.29-.84,1.85-2.81,2.14-4.84,.28-2.03-.39-3.71-.39-3.71l4.32-6.6c.53,.01,1.07,.02,1.62,.02,11.32,0,20.5-2.15,20.5-4.81,0-2.28-6.8-4.2-15.91-4.69l4.94-7.55,15.86,12.26-6.25,9.5s-.96,.51-1.52,1.74c-.56,1.24-2.47,6.08-2.47,6.08,0,0,1.97,1.63,4.33,1.18,2.36-.45,4.16-2.36,4.16-2.36l-.17-4.44-.9-1.24,7.76-11.42,2.19-.06s1.63,.62,2.19,.17c.56-.45,1.01-1.63,1.01-1.63l6.36-4.84,9,13.55-1.18,2.03-.51,.11-1.63,4.22s.73,1.01,2.7,1.24c1.97,.22,2.64-.73,2.64-.73l-.11-3.26s.62,.96,1.52,.96,1.8-.28,1.8-.28l.28,.67,2.36,.28,3.15-1.18,1.91-.9s1.29-.34,1.41-.9c.11-.56,0-1.35,0-1.35l2.31-2.7,.84-1.58s1.07,.9,1.52,1.46c.45,.56,.84,1.91,.84,1.91l-.51,.51,.67,5.74s2.08,2.81,4.84,2.02c2.76-.79,2.19-2.76,2.19-2.76l-3.6-6.92-.56,.11-.73-1.01-.73-2.03-2.31-2.14,7.09-12.88,.84-.5,6.08,9.39,.39,2.53,.84,5.62,1.41,.51,4.13,.09c.63,1.05,1.29,2.08,1.98,3.09l-6.81,22.19,.43,.13-2.15-.52-1.77,4.3h7.85l.25-2.79-2.39-.57,6.27-20.44c10.97,14.42,28.32,23.74,47.84,23.74,17.28,0,32.85-7.29,43.8-18.97l3.23,12.47-.55,.23-1.77,4.81,7.59-.5,.25-2.03-3.09-2.18-3.84-14.83c1.72-2.01,3.31-4.13,4.76-6.35l1.42,.33,2.95-5.26c1.45,1.79,3.76,4.25,6.33,3.91,1.67-.22,3.92-1.58,5.76-2.88l-.19,1.28-2.28,4.73s-2.7-.59-3.63,1.69c-.93,2.28,.84,3.71,3.04,4.39,2.19,.67,3.21-.51,3.37-1.69,.17-1.18-.67-3.21-.67-3.21l1.77-4.39,9.2,6.24,1.69,.25,1.6-.25,3.29-.59,4.55-.34,.17-.93,4.56-2.53-.09,5.99,9.62,.51,6.92-2.87-.5-11.64,5.4-2.53s26.32,21.35,29.02,23.62c2.7,2.28,2.62,2.87,2.62,2.87l-.84,.59,2.79,4.05s-.25,1.35,.84,2.87c1.1,1.52,3.12,2.11,4.98,1.18,1.86-.93,2.19-3.46,1.6-4.9ZM51.56,215.38l-.11,.96-15.75-12.15s9.79-17.83,10.8-18.73c1.01-.9,4.78-2.87,4.78-2.87l.28,1.01v31.78Zm.73-94.55h-.84v58.39s-3.94,1.18-6.47,4.11c-1.57,1.82-11.58,17.02-18.96,28.31v-58.69l1.01-.67,.68-3.37s1.01-1.01,1.69-3.38c.67-2.36-2.19-5.4-2.19-5.4l25.09-24.04v4.75Zm29.76-30.15l-.07,6.47-4.99-4.28-1.86,.17-4.89-7.09,11.81,4.72Zm-27.34-13.05v-.14c3.09,1.84,5.57,3.06,5.57,3.06l10.46,13.33-16.03,14.87v-31.13Zm1.52,133.03v-27.9l1.63-.11,5.23,3.15,5.62,7.2-12.49,17.66Zm1.63,5.01l-1.07,.17,5.9-8.77,2.19,2.81-7.03,5.79Zm6.41-10.75l6.98-9.22,4.44,5.46-8.94,6.92-2.48-3.15Zm8.72-11.7l5.51-8.55,1.57,.17,.62,.84,.34,17.1-8.04-9.56Zm6.3,32.85l-1.69-2.42,3.54-5.23,.06,6.81-1.91,.84Zm1.91-10.8l-4.22,6.75-.08-.11-8.86-11.65,9.23-7.2,3.94,4.67v7.54Zm1.35-34.54h-5.17l-6.75,9.62s-4.73-5.51-5.79-6.75c-1.07-1.24-3.38-2.31-3.38-2.31l.06-.73-.23-.39,.23-.56-1.29-.22-1.12,.62-3.54-1.41v-57.77h.79v-3.21h2.76v-4.22h-4.01l16.67-15.98,4.74,6.6c-2.25,.03-3.5,.09-3.5,.09l-.79,1.01-.45,8.66-1.8,.79-.11,4.73,3.26,3.94-1.46,29.25s-3.71,3.04-5.4,4.16c-1.69,1.13,.34,4.95,.34,4.95l1.01,.45-.79,6.08-.68,1.24,.34,2.36s7.29,2.31,16.09,3.81v5.19Zm6.86,42.52l-1.97,2.08-1.63-.45v-11.19l5.46,6.41-1.86,3.15Zm3.26-6.24l-6.81-8.04v-23.63l1.74-.34,1.24,1.07,.11,.67,2.36,1.97,9.39,14.4-8.04,13.89Zm15.69-7.14l-16.2-25.2,.79-1.29-.11-1.29-2.98-1.29h-3.21v-4.63c.88,.11,1.76,.21,2.64,.3,8.88,.87,16.34,1.07,19.27,1.11-1.33,4.97-2.04,10.19-2.04,15.58,0,5.85,.84,11.5,2.4,16.84l-.55-.12Zm121.44-47.25c-.56,1.12-2.81,5.85-2.92,6.19-.07,.22-2.86,.99-4.74,1.48-4.75-11.52-12.96-21.23-23.35-27.85,8.62,.54,14.69,.24,19.63-.59l-.54,1.53s1.91,3.71,3.94,4.5l2.02,.79s2.81,.34,3.71,1.46c.9,1.13,2.14,1.8,2.14,1.8,0,0-2.93,3.82-2.02,5.17,.9,1.35,2.7,4.39,2.14,5.51Zm14.65,30.23l-4.3,4.56-1.28,1.21c-.24-.96-.62-2.17-1.09-2.37-.79-.34-1.46-.9-1.46-.9l.56-4.05,7.71-1.36-.15,2.91Z"/></svg>