<?xml version="1.0" encoding="utf-8"?>
<!-- Generator: Adobe Illustrator 27.0.0, SVG Export Plug-In . SVG Version: 6.00 Build 0)  -->
<svg version="1.1" id="a" xmlns="http://www.w3.org/2000/svg" xmlns:xlink="http://www.w3.org/1999/xlink" x="0px" y="0px"
	 viewBox="0 0 323 345.8" style="enable-background:new 0 0 323 345.8;" xml:space="preserve">
<style type="text/css">
	.st0{fill:none;stroke:#FFFFFF;stroke-miterlimit:10;}
	.st1{fill:#268FCC;}
</style>
<polygon class="st0" points="77.6,223.6 79.3,226.1 81.2,225.2 81.2,218.4 "/>
<polygon class="st0" points="71.2,195.7 64.3,204.9 66.8,208.1 75.7,201.1 "/>
<polygon class="st0" points="63.1,185.8 57.9,182.6 56.2,182.8 56.2,210.6 68.7,193 "/>
<polygon class="st0" points="80.7,185.7 80.1,184.8 78.5,184.7 73,193.2 81,202.8 "/>
<polygon class="st0" points="77,92.9 82,97.2 82.1,90.7 70.2,85.9 75.1,93 "/>
<path class="st0" d="M46.5,185.4c-1,0.9-10.8,18.7-10.8,18.7l15.8,12.1l0.1-1v-31.8l-0.3-1C51.3,182.6,47.5,184.5,46.5,185.4
	L46.5,185.4z"/>
<path class="st0" d="M60.3,80.6c0,0-2.5-1.2-5.6-3.1v31.3l16-14.9L60.3,80.6L60.3,80.6z"/>
<path class="st0" d="M29.4,145.5c-0.7,2.4-1.7,3.4-1.7,3.4l-0.7,3.4l-1,0.7v58.7c7.4-11.3,17.4-26.5,19-28.3
	c2.5-2.9,6.5-4.1,6.5-4.1v-58.4h0.8v-4.8l-25.1,24C27.2,140.1,30.1,143.2,29.4,145.5L29.4,145.5z"/>
<polygon class="st0" points="56.8,215.8 57.9,215.7 64.9,209.9 62.7,207.1 "/>
<path class="st0" d="M236.3,195.4c0,0,0.7,0.6,1.5,0.9c0.5,0.2,0.9,1.4,1.1,2.4l1.3-1.2l4.3-4.6l0.1-2.9l-7.7,1.4L236.3,195.4
	L236.3,195.4z"/>
<polygon class="st0" points="68,210.3 76.9,221.9 77,222 81.2,215.3 81.2,207.7 77.3,203.1 "/>
<path class="st0" d="M229.7,151.9c0,0-1.2-0.7-2.1-1.8c-0.9-1.1-3.7-1.5-3.7-1.5l-2-0.8c-2-0.8-3.9-4.5-3.9-4.5l0.5-1.5
	c-4.9,0.8-11,1.1-19.6,0.6c10.4,6.6,18.6,16.3,23.4,27.9c1.9-0.5,4.7-1.3,4.7-1.5c0.1-0.3,2.4-5.1,2.9-6.2c0.6-1.1-1.2-4.2-2.1-5.5
	C226.8,155.8,229.7,151.9,229.7,151.9L229.7,151.9z"/>
<polygon class="st0" points="85.8,224.9 87.4,225.3 89.4,223.2 91.3,220.1 85.8,213.7 "/>
<path class="st0" d="M66.1,169.4l0.7-1.2l0.8-6.1l-1-0.4c0,0-2-3.8-0.3-4.9c1.7-1.1,5.4-4.2,5.4-4.2l1.5-29.2l-3.3-3.9l0.1-4.7
	l1.8-0.8l0.4-8.7l0.8-1c0,0,1.2-0.1,3.5-0.1l-4.7-6.6l-16.7,16h4v4.2h-2.8v3.2h-0.8v57.8l3.5,1.4l1.1-0.6l1.3,0.2l-0.2,0.6l0.2,0.4
	l-0.1,0.7c0,0,2.3,1.1,3.4,2.3c1.1,1.2,5.8,6.8,5.8,6.8l6.8-9.6h5.2v-5.2c-8.8-1.5-16.1-3.8-16.1-3.8L66.1,169.4L66.1,169.4z"/>
<polygon class="st0" points="89,186.8 88.9,186.1 87.6,185 85.9,185.3 85.9,209 92.7,217 100.7,203.1 91.3,188.7 "/>
<path class="st0" d="M108.6,177.6c-2.9,0-10.4-0.2-19.3-1.1c-0.9-0.1-1.8-0.2-2.6-0.3v4.6h3.2l3,1.3l0.1,1.3l-0.8,1.3l16.2,25.2
	l0.6,0.1c-1.6-5.3-2.4-11-2.4-16.8C106.5,187.7,107.2,182.5,108.6,177.6L108.6,177.6z"/>
<path class="st0" d="M322.3,246.3c-0.6-1.4-2.8-1.9-2.8-1.9l-2.8-4.3l-0.7,0.6c0,0-0.6-1.1-0.8-1.4c-0.2-0.3-2.1-2.1-2.1-2.1
	l-37.7-30.4c0,0-0.1-3.1-0.1-4.6s-1.7-1.9-1.7-1.9h-2.7v-2.4c0,0,1.8,0,2.8-0.2c1-0.2,3.5-0.8,3.5-0.8s1.1,0.3,1.8,0.3
	s0.8-1.1,0.5-2.5s-1.9-2-1.9-2l-1.4-2.4l-0.5,0.2l0.9,2.9l-0.3,1.3c0,0-0.8,0.2-1.6,0.2s-3.2-0.9-3.2-0.9v-3.4l-1.4-0.1v-15.1
	l2.7-0.5l0.7,0.9l30.4,49.9l3-2.1l-31.7-51.6l-1.6-0.2l-2.6-1.7v-67.3l2.8,10.5c0,0,0.6,0.5,1.4,0.2c0.8-0.3,0.8-1,0.8-1l-4.7-20.6
	V68.9h3.6v-1.3c0,0,4.7-0.7,10.3-1.3c5.6-0.6,16.2-2.3,16-4.4s-24.2-3.2-24.2-3.2s-3.4-1.7-5.9-1.7s-6,1.8-6,1.8s-0.4,0-1.1,0.1
	l-6.7-24.6l1.7-3.5c0,0,4.9-0.6,11.4-1.6v26.4h1.1V29c13.3-2.1,32.2-5.6,31-9.2c-1.8-5.4-38.4-3.7-38.4-3.7s-2-0.8-4.6-0.6
	s-4.9,0.6-7,1.2s-4.1,0.9-8.7,1.6c-4.6,0.7-29.7,5.5-29.1,10s36.4,2.5,36.4,2.5v4.3h3L261,59c-3.7,0.2-9,0.5-10.8,0.7
	c-2.7,0.2-12.2,1-11.4,5s15.4,3.5,15.4,3.5v2.9h-17v-1.5h2.9v-2.3h-7.8l-0.2,1c0,0-0.6-2.5-1.5-4.7c-0.9-2.2-2.1-3-2.1-3
	s-0.2-0.6-0.5-2s-3.5-9.2-5.1-11.7s-5.4-5.2-7.1-6.1c-1.7-0.8-10-3.3-11.1-3.5c-1-0.2-2.3-0.3-3.4-1.3s-2.3-0.4-2.3-0.4l-0.7-0.2
	c0,0,1.6-5.5,2.1-8c0.5-2.5-0.7-4.4-0.8-5.2c-0.1-0.8,0.2-3.1,0.1-4.2c-0.1-1.1-1.4-3.2-1.4-3.2l0.9,0.7c0,0,0-0.8,0.1-1.9
	s-0.8-5.3-2.4-7.8c-1.6-2.5-8.5-6.4-16.1-4.6c-7.6,1.9-10.2,8.2-10.1,12.9c0.1,4.7,0.8,7.3,0.8,7.3s-0.6-0.3-0.2,2.4s3.9,5,3.9,5
	s0.2,0.9,0.5,3.2s0.8,5.1,0.8,5.1s-2.4,1.9-3.7,2.8c-1.4,0.9-4.1,1.7-5.1,2.5c-0.9,0.8-4.5,1.3-8.4,3.4s-6.6,5.8-7.1,5.9
	s-2.6,5.7-4.3,10.3c-1.7,4.6-3.5,13.3-3.8,14.3s-0.8,1.7-1.3,2.9c-0.5,1.3,0.7,1.7,0.7,1.7s-0.2,0.8-0.6,3
	c-0.4,2.2-0.7,7.2-0.8,12.2s3,10,5.2,14.5c2.2,4.6,3.7,8.7,3.5,9.5s-1.7,3.3-2.2,4.6c-0.5,1.3-1.4,1.3-2.8,3.8
	c-1.4,2.4,0.3,4.9,0.3,4.9l-0.1,3.5c-1,0.4-2.1,0.8-3.1,1.2l2.2-3.8l-0.3-2l-1.6-1.4l-2,4.5l-0.2-0.6c-0.2-0.6-1.8-3.1-1.8-3.1
	l1.4-1.4c1.4-1.4,1-4.2,1-4.2l3.6-1.5l0.9,1.1c0,0,1.2-1.8,2.1-2.2s1-1.2,1-1.2s-1.4-1.3-3.5-3.2s-6.2-3-6.2-3l0.1-3.6l-0.8-0.6
	l0.1-2.5c0,0-10.6-2-30.8-3.9c-8.5-0.8-16.1-1.2-22-1.3l-0.4-7.8l4.2-1.5c13.7,5.7,39.5,7.9,41.8,1.5s-19.2-18.2-38.1-26
	c-12.5-5.1-28.4-8.7-39.2-8.8V51c0,0,1.9-1.1,1.6-3c7.6,1.6,12.9,2.6,19.9,4c7,1.4,13,2.5,13.6,1.7c0.6-0.8,1.1-2.9-7-6.2
	S61.3,40,61.3,40s-1.7-1.6-2.8-2.8c-1.1-1.2-4.4-2.9-7.9-3.6c-3.5-0.7-6.9,0.1-8.2,0.5c-1.3,0.5-2.2,0.8-3.9,0.5
	c-1.7-0.3-10.7-2.5-17.7-3S7,31,6.6,32.8c-0.3,1.8,8.4,5.1,19.8,8C37.8,43.8,49,46.6,49,46.6s-0.7,1.6,0.4,3s2.9,1.8,2.9,1.8v10
	c-4.3,0.2-7.4,1-8.7,2.7c-2.6,3.4,3.2,8.2,8.7,11.8v35L0.5,159c0,0-0.3,1.5,0.8,2.7s2.5,1.5,2.5,1.5L21.3,147l1.4,1.4v66.3
	C12,214.9,3.6,217,3.6,219.5c0,2.1,6,4,14.3,4.6l-4.1,7c0,0-0.8,1.1-1.5,2.8c-0.7,1.7-2.6,4.8-1.4,5.8s4.2,0.7,5.5-0.2
	c1.3-0.8,1.9-2.8,2.1-4.8c0.3-2-0.4-3.7-0.4-3.7l4.3-6.6c0.5,0,1.1,0,1.6,0c11.3,0,20.5-2.1,20.5-4.8c0-2.3-6.8-4.2-15.9-4.7
	l4.9-7.6l15.9,12.3l-6.2,9.5c0,0-1,0.5-1.5,1.7c-0.6,1.2-2.5,6.1-2.5,6.1s2,1.6,4.3,1.2c2.4-0.4,4.2-2.4,4.2-2.4l-0.2-4.4l-0.9-1.2
	l7.8-11.4l2.2-0.1c0,0,1.6,0.6,2.2,0.2c0.6-0.4,1-1.6,1-1.6l6.4-4.8l9,13.6l-1.2,2l-0.5,0.1l-1.6,4.2c0,0,0.7,1,2.7,1.2
	c2,0.2,2.6-0.7,2.6-0.7l-0.1-3.3c0,0,0.6,1,1.5,1s1.8-0.3,1.8-0.3l0.3,0.7L83,231l3.2-1.2l1.9-0.9c0,0,1.3-0.3,1.4-0.9
	c0.1-0.6,0-1.4,0-1.4l2.3-2.7l0.8-1.6c0,0,1.1,0.9,1.5,1.5c0.4,0.6,0.8,1.9,0.8,1.9l-0.5,0.5l0.7,5.7c0,0,2.1,2.8,4.8,2
	s2.2-2.8,2.2-2.8l-3.6-6.9l-0.6,0.1l-0.7-1l-0.7-2l-2.3-2.1l7.1-12.9l0.8-0.5l6.1,9.4l0.4,2.5l0.8,5.6l1.4,0.5l4.1,0.1
	c0.6,1.1,1.3,2.1,2,3.1l-6.8,22.2l0.4,0.1l-2.2-0.5l-1.8,4.3h7.8l0.2-2.8l-2.4-0.6l6.3-20.4c11,14.4,28.3,23.7,47.8,23.7
	c17.3,0,32.9-7.3,43.8-19l3.2,12.5l-0.6,0.2l-1.8,4.8l7.6-0.5l0.2-2L216,247l-3.8-14.8c1.7-2,3.3-4.1,4.8-6.4l1.4,0.3l2.9-5.3
	c1.4,1.8,3.8,4.2,6.3,3.9c1.7-0.2,3.9-1.6,5.8-2.9l-0.2,1.3l-2.3,4.7c0,0-2.7-0.6-3.6,1.7c-0.9,2.3,0.8,3.7,3,4.4
	c2.2,0.7,3.2-0.5,3.4-1.7c0.2-1.2-0.7-3.2-0.7-3.2l1.8-4.4l9.2,6.2l1.7,0.2l1.6-0.2l3.3-0.6l4.6-0.3l0.2-0.9l4.6-2.5l-0.1,6l9.6,0.5
	l6.9-2.9l-0.5-11.6l5.4-2.5c0,0,26.3,21.4,29,23.6c2.7,2.3,2.6,2.9,2.6,2.9l-0.8,0.6l2.8,4.1c0,0-0.2,1.4,0.8,2.9
	c1.1,1.5,3.1,2.1,5,1.2C322.5,250.3,322.8,247.8,322.3,246.3L322.3,246.3z M51.6,215.4l-0.1,1l-15.8-12.1c0,0,9.8-17.8,10.8-18.7
	s4.8-2.9,4.8-2.9l0.3,1L51.6,215.4L51.6,215.4z M52.3,120.8h-0.8v58.4c0,0-3.9,1.2-6.5,4.1c-1.6,1.8-11.6,17-19,28.3v-58.7l1-0.7
	l0.7-3.4c0,0,1-1,1.7-3.4c0.7-2.4-2.2-5.4-2.2-5.4l25.1-24L52.3,120.8L52.3,120.8z M82.1,90.7L82,97.2l-5-4.3L75.1,93l-4.9-7.1
	L82.1,90.7L82.1,90.7z M54.7,77.6v-0.1c3.1,1.8,5.6,3.1,5.6,3.1l10.5,13.3l-16,14.9L54.7,77.6L54.7,77.6z M56.2,210.7v-27.9l1.6-0.1
	l5.2,3.1l5.6,7.2L56.2,210.7L56.2,210.7z M57.9,215.7l-1.1,0.2l5.9-8.8l2.2,2.8L57.9,215.7L57.9,215.7z M64.3,204.9l7-9.2l4.4,5.5
	l-8.9,6.9L64.3,204.9L64.3,204.9z M73,193.2l5.5-8.6l1.6,0.2l0.6,0.8l0.3,17.1L73,193.2z M79.3,226.1l-1.7-2.4l3.5-5.2l0.1,6.8
	C81.2,225.2,79.3,226.1,79.3,226.1z M81.2,215.3L77,222l-0.1-0.1L68,210.3l9.2-7.2l3.9,4.7L81.2,215.3L81.2,215.3z M82.6,180.7h-5.2
	l-6.8,9.6c0,0-4.7-5.5-5.8-6.8c-1.1-1.2-3.4-2.3-3.4-2.3l0.1-0.7l-0.2-0.4l0.2-0.6l-1.3-0.2l-1.1,0.6l-3.5-1.4v-57.8h0.8v-3.2h2.8
	v-4.2h-4l16.7-16l4.7,6.6c-2.2,0-3.5,0.1-3.5,0.1l-0.8,1l-0.4,8.7l-1.8,0.8l-0.1,4.7l3.3,3.9l-1.5,29.2c0,0-3.7,3-5.4,4.2
	c-1.7,1.1,0.3,4.9,0.3,4.9l1,0.4l-0.8,6.1l-0.7,1.2l0.3,2.4c0,0,7.3,2.3,16.1,3.8L82.6,180.7L82.6,180.7z M89.4,223.3l-2,2.1
	l-1.6-0.4v-11.2l5.5,6.4L89.4,223.3z M92.7,217l-6.8-8v-23.6l1.7-0.3l1.2,1.1l0.1,0.7l2.4,2l9.4,14.4L92.7,217L92.7,217z
	 M108.4,209.9l-16.2-25.2l0.8-1.3l-0.1-1.3l-3-1.3h-3.2v-4.6c0.9,0.1,1.8,0.2,2.6,0.3c8.9,0.9,16.3,1.1,19.3,1.1
	c-1.3,5-2,10.2-2,15.6c0,5.9,0.8,11.5,2.4,16.8L108.4,209.9L108.4,209.9z M229.8,162.6c-0.6,1.1-2.8,5.9-2.9,6.2
	c-0.1,0.2-2.9,1-4.7,1.5c-4.8-11.5-13-21.2-23.4-27.9c8.6,0.5,14.7,0.2,19.6-0.6l-0.5,1.5c0,0,1.9,3.7,3.9,4.5l2,0.8
	c0,0,2.8,0.3,3.7,1.5c0.9,1.1,2.1,1.8,2.1,1.8s-2.9,3.8-2,5.2C228.6,158.5,230.4,161.5,229.8,162.6L229.8,162.6z M244.5,192.9
	l-4.3,4.6l-1.3,1.2c-0.2-1-0.6-2.2-1.1-2.4c-0.8-0.3-1.5-0.9-1.5-0.9l0.6-4.1l7.7-1.4L244.5,192.9L244.5,192.9z"/>
<g>
	<g>
		<path class="st1" d="M126.4,302.1c0,13.9-8.4,25.5-25.2,25.5c-16.5,0-24.5-11.5-24.5-25.4c0-14.1,8.8-25.5,25.2-25.5
			C117.4,276.7,126.4,287.4,126.4,302.1z M91.6,301.9c0,9,3,15.3,10.1,15.3c7.5,0,9.9-6.7,9.9-15c0-9-2.6-15.2-10.1-15.2
			C94.5,287,91.6,292.8,91.6,301.9z"/>
		<path class="st1" d="M134.3,326.7v-49.1h17.2c5.2,11.1,12.6,26,14.7,32h0.2c-0.5-5.1-0.7-13.8-0.7-21.6v-10.4h13.1v49.1h-16.4
			c-4.2-8.9-13-27.3-15.4-33.8H147c0.5,4.6,0.5,14.1,0.5,22.8v11H134.3z"/>
		<path class="st1" d="M225.3,306.8h-22.4v9.2h25l-1.6,10.7h-37.2v-49.1h37.2v10.7h-23.3v7.9h22.4V306.8z"/>
	</g>
</g>
</svg>
