<?xml version="1.0" encoding="utf-8"?>
<!-- Generator: Adobe Illustrator 27.0.0, SVG Export Plug-In . SVG Version: 6.00 Build 0)  -->
<svg version="1.1" id="a" xmlns="http://www.w3.org/2000/svg" xmlns:xlink="http://www.w3.org/1999/xlink" x="0px" y="0px"
	 viewBox="0 0 101 187.4" style="enable-background:new 0 0 101 187.4;" xml:space="preserve">
<style type="text/css">
	.st0{fill:none;stroke:#FFFFFF;stroke-miterlimit:10;}
</style>
<circle class="st0" cx="51.5" cy="18.5" r="18"/>
<path class="st0" d="M64.5,42.5c4.2,0,7.2,1.8,8.8,5.2c0.6,1.2,2.3,4.7,4.6,9.4c6.9,14.2,21.3,43.6,21.9,45.9c0.8,2.9,0.2,6.6-3.5,8
	c-1.1,0.4-2.2,0.7-3.2,0.7c-3.5,0-5.5-2.4-5.9-2.8L79,92.1c-0.2-0.3-0.5-0.6-0.9-0.6c-0.1,0-0.2,0-0.3,0.1c-0.5,0.2-0.8,0.7-0.7,1.1
	l5.9,30c0,0,0,0,0,0.1c0.2,1,0.4,2.9-0.2,3.7c-0.1,0.2-0.4,0.4-1,0.4h-8.9c-0.6,0-1,0.4-1,1v51.7c0,0,0,0.1,0,0.1
	c0,0,0.2,2.5-1.4,4.4c-1.3,1.5-3.5,2.2-6.5,2.2c-8.6,0-9.6-4.3-9.6-7.5v-51.3c0-0.6-0.5-1-1-1h-5.7c-0.5,0-1,0.4-1,1v51.3
	c0,3.2-1,7.5-9.6,7.5c-3,0-5.1-0.7-6.5-2.2c-1.7-1.9-1.4-4.3-1.4-4.4c0,0,0-0.1,0-0.1v-51.7c0-0.6-0.5-1-1-1h-8.9
	c-0.6,0-0.9-0.2-1-0.4c-0.6-0.8-0.5-2.7-0.2-3.7c0,0,0,0,0-0.1l5.9-30c0.1-0.5-0.2-1-0.7-1.1c-0.1,0-0.2-0.1-0.3-0.1
	c-0.4,0-0.7,0.2-0.9,0.6l-8.2,16.7c-0.4,0.4-2.4,2.8-5.9,2.8c-1,0-2.1-0.2-3.2-0.7c-3.7-1.4-4.2-5.1-3.5-8
	c0.6-2.2,14.9-31.7,21.9-45.9c2.3-4.7,4-8.1,4.6-9.4c1.6-3.5,4.6-5.2,8.9-5.2H64.5"/>
</svg>
