<?xml version="1.0" encoding="utf-8"?>
<!-- Generator: Adobe Illustrator 27.0.0, SVG Export Plug-In . SVG Version: 6.00 Build 0)  -->
<svg version="1.1" id="Layer_1" xmlns="http://www.w3.org/2000/svg" xmlns:xlink="http://www.w3.org/1999/xlink" x="0px" y="0px"
	 viewBox="0 0 245.3 435.3" style="enable-background:new 0 0 245.3 435.3;" xml:space="preserve">
<style type="text/css">
	.st0{fill:none;}
	.st1{fill:none;stroke:#FFFFFF;}
	.st2{fill:#117AC1;}
</style>
<g>
	<path class="st0" d="M24.5,208.7c-0.1-0.1-0.3-0.6-0.1-0.9c0.3-0.3,0.5-2.2,0.5-2.7s-0.6-1.3-0.1-2s0.6-3.7,0.9-4.4s0.7-5.8,1-7.1
		s0.6-2.3,0.5-3c-0.1-0.8,0-3.2,0.2-4.1c0.2-0.9-0.1-1.6-0.1-1.6s-2.4,4.1-3.5,5.5s-2.3,3.4-2.4,3.9s-0.2,5-1,8.2
		c-0.8,3.1-3.4,9.8-3.4,9.8s0,0.2,0,0.6C20.1,209.8,22.4,209.6,24.5,208.7z"/>
	<path class="st1" d="M116.6,134.2c-2.7-2.4-21.7,11-21.7,11s0,0-2.5,1.9s0.2,3.2,0.2,3.2l-5.1,5c-0.1-0.3-0.2-0.6-0.3-0.8
		c-0.4-1-2.6-3.6-4.1-5.1c-1.6-1.6-7.2-5.6-8.8-6.7c-1.6-1.1-4-0.5-4-0.5s-2.7-1.1-3.9-1.6c-1.2-0.5-3.4-1.9-3.4-1.9l-0.3,0.1
		l-0.3-0.5c0,0,1-2.1,1.4-3.3s0.6-2.6,0.6-2.6s0.5,0.2,0.8-0.4c0.3-0.5-0.2-1.8-0.2-1.8s0.2-1.7,0.2-3.1c-0.1-1.4-0.2-3.4-0.2-3.6
		c0-0.3,0.1-1.6,0.1-1.6s0.6-6.2-1.5-9.5c-3.6-6-10.7-5.2-10.7-5.2c-4.3,0.2-8.2,3.4-10.1,6.4s-1.1,9-1.1,9s-1.4-0.5-2.4,0.5
		c-0.9,0.9,0.3,3.1,0.3,3.7c0,0.5,0.6,2.3,0.6,2.3l-0.2,0.4c0,0,0,0,0,1s0.9,1.9,1.9,2.1c1,0.2,1.4-0.5,1.4-0.5s0.1,0.2,0.2,0.7
		c0.1,0.5,0.5,1.6,0.5,1.6s0.7,2.3,0.6,3.5c0,1.2-0.2,3.8-0.2,3.8s-3.2,1.4-5.3,2.8c-2.1,1.3-5.3,3.4-7.7,4.8
		c-2.4,1.4-4.7,3.2-6.6,5.2c-1.8,2-2.5,3-3.1,4.6c-0.7,1.6-2,5.8-2.2,6.6s-0.1,1.6-0.6,2.2c-0.5,0.6-1.3,1.9-1.5,2.5
		c-0.3,0.6-1.1,1.6-1.3,2.1c-0.3,0.5-1.1,1.6-1.1,1.6l0.3,0.2c0,0-4.4,8.8-5.1,10.8c-0.7,2-0.6,4.1-1.4,7.5
		c-0.9,3.4,0.3,10,0.6,12.1c0.3,2,0.6,6.7,0.6,6.7s-1.3,0.8-2.3,1.5s-2.2,2.2-2.6,2.9c-0.4,0.8-1.9,4-2,5c-0.2,1,1.4,3.2,1.9,4
		l0.1,0.1c-0.5,2-0.9,3.9-1.3,5.6c-1.6,6.3,1.8,14.8,1.8,14.8c2.7,6.8,5.2,8.5,9.5,10c1.2,0.4,2.4,0.6,3.4,0.6v0.5
		c0,0-0.6,0.6-0.2,1.5c0.5,0.9,0.1,1.3,0.3,2.4c0.2,1.1,0,1.7-0.1,2.4c-0.1,0.6,0.6,1.9,1.2,2.9s1.3,2.1,1.4,2.8
		c0.2,0.6,1.4,0.8,1.7,0.9c0.3,0,1.1,1.2,1.1,1.2s-0.1,0.2-0.2,0.8c-0.2,0.5,0.6,2.2,1.1,2.5c0.5,0.4,0.5,1.1,1.9,3.7
		s4.9,7.5,4.9,7.5s-0.1,1,0.2,2c0.2,1,2.1,4.1,2.1,4.1s-0.9,0.6-1.3,1.4c-0.5,0.8,1.9,1.9,2.7,2.2c0.8,0.3,0.5,1.4,0.2,1.7
		c-0.2,0.3-0.2,2.1-0.2,2.1L35,299c0,0-1.3,0-2.7,1c-1.4,0.9-4.1,2.6-4.7,2.8c-0.6,0.3-5.3,1.6-6.3,2.2s-1.7,1.8-0.9,2.5
		c0.4,2.4,4.1,2.5,6.8,2.6s11.2-0.6,11.2-0.6c3.6,0,13.5-0.3,14.4-0.3c0.9,0,2.7-1,2.7-1.3s-0.8-1.8-0.8-1.8s0.3-1.7,0.4-2.2
		s0.3-0.9-0.4-1.7c-0.7-0.8-1.8-3.1-1.7-3.7s-0.1-1.5-0.5-2s-0.1-1.9,0.2-2.7c0.3-0.8-0.2-2.9-0.3-3.9c-0.2-1-4.2-4-4.7-4.4
		s-0.6-2-1.2-3.5c-0.5-1.4-0.7-2.5-0.7-3.3s-0.6-2.2-1.1-4.1c-0.6-1.9-2-5.3-2.5-6.6c-0.5-1.3-2.2-2.9-1.5-3.6s1.5-1.3,0.3-2.2
		c-1.2-0.9-1.1-1.9,0.2-2.8c1.4-0.9,0.4-1.8,0-2.9s0.4-1.5,1-2.5c0.6-0.9,0.8-2.4,0.7-3c-0.2-0.7,1.2-3.9,1.9-5.5
		c0.7-1.7,0.9-2.7,0.9-2.7s0.7,0.3,1.1,0.9c0.4,0.6,1.3,2.1,1,3.3c-0.3,1.3-0.3,1.9,0.7,2.9s0.3,2.5-0.1,6.9
		c-0.5,4.3,4.1,7.5,4.1,7.5s0.3,1.4,1.2,4.6c0.8,3.2,2.5,14,3.1,16.7s3.8,10.6,3.8,10.6s-0.3,1.4-0.9,4.1c-0.6,2.7-1.1,5.5-0.9,7
		c0.2,1.5,2.5,3.5,3.1,4.6c0.6,1.2,1.4,1,1.4,1s0,0.4,0,0.9s0.3,1.1,0.3,1.1s-0.8,1.5-0.8,2.9c0.1,1.4-0.1,2.1-0.1,2.1l0.4,0.2
		c0,0-0.2,0.7-0.4,1.6s-1.7,2.2-5,7.3c-3.3,5.1-2,7.1-2,7.1l-0.4,0.7c0,0,0,0,0,0.6s1.6,0.9,1.6,0.9s0,0,3.7,0.6s8.5,0.1,12.9-1.3
		c4.4-1.3,3.7-3.9,4.1-4.8s2.8-2.7,3-3s-0.5-1.6-0.5-1.6s0.3-1.6,0.3-2.7s-0.2-2.4-0.2-2.4s0.3-0.1,0.8-0.2c0.5-0.2,1-0.5,1-0.5
		s0.4-1.7,0.5-2.4c0.1-0.7-0.2-2.3-0.7-4.2c-0.5-1.9,0.3-1.8,2-2.4s2.8-2.7,2.3-4.1c-0.6-1.4-3.8-2-4.4-2.1s-1.6-1.7-1.9-2.5
		s0.5-1.2,0.6-3.2s-1.1-4.2-1.1-4.2s1.4-2,1.5-2.8s0-3.5-0.4-5.8c-0.4-2.4-1.2-7.5-1.6-9.1s-0.4-7.8-1.2-11.2
		c-0.8-3.4-2.2-9.4-2.9-11.3c-0.6-1.8-1.6-3-1.7-3.3c-0.2-0.3,0-2.2-0.2-3.8s-2.2-3.5-2.2-3.5s0-1-0.2-1.4c-0.2-0.3,0-1,0.3-1.8
		s0.1-3,0-3.6c-0.1-0.5,0.3-2,0.7-3.4c0.4-1.4,0.6-4,0.6-4s0,0,0-0.4s1.5-3.9,1.8-4.6c0.3-0.6-0.8-4.6-0.8-4.6l0.6-1.3
		c0,0,0,0,0-0.6s1.3-3.6,1.3-3.8s0,0,0.2-1s0.3-4.8,0.3-4.8s0.2-0.5,0.6-0.9c0.5-0.4,1.1-1.4,1.1-1.9s0.5-1.4,0.8-2.6
		c0.3-1.1-1.5-1.6-1.5-1.6s0,0-0.3-0.6s0.8-1.3,1.2-1.6c0.4-0.3,0.4-1.1,0.4-2.1s0.3-4.7,0.3-4.7s3.6,0.9,4.7,0.7s3.6-1,5.5-2.8
		c1.8-1.9,1.9-4.7,2.1-6.5s-0.7-3.1-0.9-3.8c-0.3-0.7-0.7-2.7-0.7-4.5s0.4-3.9,0.4-3.9l0.2,0.3c0,0-0.2-2.3-0.5-3.1
		c-0.2-0.8,0.2-2.3-0.2-8.2c0-0.1,0-0.2,0-0.3l8.7-8.8c0,0,2.6,0.9,4.1,0.6c1.5-0.3,10.8-10.5,10.8-10.5s0,0,3.4-3.9
		C119.3,137.4,119.3,136.6,116.6,134.2z M20.5,200.3c0.8-3.1,0.9-7.7,1-8.2s1.3-2.6,2.4-3.9c1.1-1.4,3.5-5.5,3.5-5.5
		s0.3,0.7,0.1,1.6c-0.2,0.9-0.3,3.4-0.2,4.1c0.1,0.8-0.2,1.7-0.5,3s-0.7,6.4-1,7.1c-0.3,0.7-0.4,3.8-0.9,4.4c-0.5,0.7,0.1,1.5,0.1,2
		s-0.3,2.4-0.5,2.7s0,0.8,0.1,0.9c-2.1,0.9-4.5,1.1-7.4,2c0-0.3,0-0.6,0-0.6S19.7,203.5,20.5,200.3z"/>
</g>
<path class="st1" d="M241.6,212.6L241,211c0,0-0.2-0.5-1.6-3.9c-0.4-0.9-0.7-1.6-1-2.1c-0.9-1.6-1.7-2.1-1.7-2.1l-0.3,0.2
	c-1.1-1.1-2.2-2.2-2.8-3c-1.6-2-7.8-11.9-12.6-18.5s-12-12.8-12-12.8l1.3-0.1c0,0-7.9-5.3-8.8-6.1c-0.9-0.8-0.4-1.3,0.9-1.9
	c1.3-0.6-3.1-6-3.8-7.7s0.6-6.1,1.3-7.8s-1.3-2.2-1.8-3.3c-0.6-1.1-1.3-3.8-1.3-3.8s0.9-6.3,1.6-8.2c0.7-1.9,0.5-9.1,0.5-9.1
	s1.6,1.3,2,1.3c0.5-0.1-0.5-10.8-0.8-13.8c-0.3-3.1-1-6.5-0.6-10.3s-0.3-14.1-1-17.8s0.9-13.2,0.7-17c-0.2-3.8-2-19.4-3.1-23
	s-5.6-7.6-7.1-9.4c-1.5-1.9-8.6-3.4-8.6-3.4s-0.5-2.2-0.2-3.6c0.2-1.4,2.3-7.2,2.4-12.2c0.2-5-4-9.6-13.1-10.8
	c-9-1.2-12.4,5.6-13.1,7.7c-0.7,2.1-0.1,4.1-0.2,4.7c-0.1,0.6-2.8,2.1-3,3.2s2.3,2.7,2.3,2.7s-1.2,1.9-1.5,2.4
	c-0.3,0.6,0.9,2.1,0.9,2.1s-0.3,0.2-0.6,0.6c-0.3,0.3,0.1,1.2,0.5,1.8c0.4,0.6-0.1,0.9-0.2,3.5c-0.1,2.5,7.2,1.7,7.2,1.7
	s0.5,1.4,0.6,2.3c0.2,0.9,2.1,3.5,2.1,3.5s-2.6,0.2-4.9,1.1c-2.3,0.9-6.5,4.7-8.6,6s-9.4,6.7-9.4,6.7s-0.1-0.6-0.2-1.7
	c-0.2-1-0.6-5.9-0.6-8.9c-0.1-3,0.5-9,0.5-9s1.4-0.2,2.3-0.6c0.9-0.3,2.1-1.5,3.1-2.4s1.6-3.1,2-3.6c0.4-0.6-0.6-1.6-0.9-1.9
	c-0.4-0.3-0.5-1.4-0.7-2c-0.2-0.5-0.9,0-0.9,0l-0.2-0.5l0.4-1c0,0,0,0,0.1-0.7s-0.5-1.4-1.5-1.9s-2.4,1.2-2.4,1.2s-0.5-0.7-1.5-0.7
	s-2,1.2-2,1.2s-0.2-0.2-0.8,0.2c-0.6,0.4-1.3,0.9-1.3,0.9s-0.4-0.3-1.6,0.2c-1.2,0.5-2.3,1.3-2.6,2.9c0,0.1,0,0.2,0,0.3l-12.4,4.4
	c0,0-1.1,0.9-0.9,1.3c0.2,0.5,1.7,0.8,1.7,0.8l11.8-2.8c0.1,0.9,0.3,1.6,0.5,1.9c0.5,0.8,0.2,2.1-0.1,4.6s-2.2,6.2-3.5,13.7
	C128.6,54,130,60.6,131,62c1,1.3,3.1,1.7,5.3,2c2.2,0.2,13.8-1.4,13.8-1.4s0.6,0.9,1.1,0.6c0.5-0.3,2-2,2-2s0.2,1.3,0.2,3.8
	c0,2.5-0.2,8.3-0.3,14.2c-0.1,5.9-0.6,13.7-0.4,16.1c0.2,2.4,0.6,4.6,0.6,4.6s-0.4,0.2-1.3,0.9c-0.9,0.7-3.9,2.1-5.1,3.5
	c-1.2,1.3,0,3,0,3s-0.1,0.6,0.2,2.1c0.3,1.6,2.6,2.4,2.6,2.4s0.1,0.7,0.3,1.5s1.3,1.3,1.3,1.3s0.8,1.1,1.2,2.3
	c0.4,1.2,1.3,1.2,2,0.9c0.7-0.2,0.2-1.5,0-2.2s0-1.5,0-1.5l1.5-0.2c0,0,1,5.1,0.9,6.9s0.2,3.5,0.2,3.5l1.2-0.1c0,0-0.8,11.8-0.8,14
	s-0.7,8-0.7,9.3s0.4,2,0.1,3.5c-0.3,1.5,0.9,3.1,0.9,3.1s-1.1,9.7-1.5,12.5s0.1,13.8,0.2,14.4c0.1,0.6,3.1,0.5,5.3,0.2
	c2.3-0.2,6,0.1,6,0.1s1.7,7.8,3.3,17.1c1.7,9.4,1.5,14.4,1.5,14.4l0.2,5c-0.7,0.8-4.9,5-6.6,5c0,0-10.6,1-11.5,2.3s-0.9,2.5-0.9,2.5
	v2c0,0,4.1,1.7,10.6,1.7s19.7-2,19.7-2v-4.8c0,0,0-0.6,0-4.2c0-1.5-0.2-2.6-0.3-3.3v-4.1c0,0,0.2-5.2,0.6-10.1
	c0.3-4.9,1.6-10.4,2.4-13.8c0.8-3.4-1.3-8.4-1.3-8.4l0.9-0.3l-0.9-3.6l2.1-1.2c0,0,11.8,8.4,16.8,13.1c5,4.7,15,11.2,18.3,14.8
	c1.9,2.1,3.8,4.8,5.1,6.9c-0.8,1.9-2.6,5.6-3.9,6.1c0,0-9.4,4.9-9.8,6.4c-0.4,1.5,0.1,2.7,0.1,2.7l0.7,1.8c0,0,4.4,0,10.4-2.4
	s17.5-9.2,17.5-9.2L241.6,212.6z"/>
<g>
	<g>
		<path class="st2" d="M14.8,49.3H6.5V43h25v6.3h-8.2V72h-8.5V49.3z"/>
		<path class="st2" d="M39.4,72l-7-29h8.9c2,11.1,2.6,15.9,3,20.5h0.1c1.2-6.3,3-13.7,4.4-20.5h7.6c1.3,5.9,3.2,13.9,4.2,20.2h0.1
			c0.7-6,2.6-15.7,3.3-20.2h8.2L65,72h-8.7c-1.3-6-3-12.9-4-18.5h-0.1c-1,5.5-2.8,12.9-4.1,18.5H39.4z"/>
		<path class="st2" d="M103.8,57.5c0,8.2-4.9,15.1-14.9,15.1c-9.8,0-14.5-6.8-14.5-15c0-8.3,5.2-15.1,14.9-15.1
			C98.5,42.4,103.8,48.8,103.8,57.5z M83.2,57.4c0,5.3,1.8,9,6,9c4.4,0,5.9-3.9,5.9-8.9c0-5.3-1.5-9-6-9
			C84.9,48.6,83.2,52,83.2,57.4z"/>
	</g>
</g>
</svg>
