<?xml version="1.0" encoding="utf-8"?>
<!-- Generator: Adobe Illustrator 26.5.0, SVG Export Plug-In . SVG Version: 6.00 Build 0)  -->
<svg version="1.1" id="Layer_1" xmlns="http://www.w3.org/2000/svg" xmlns:xlink="http://www.w3.org/1999/xlink" x="0px" y="0px"
	 viewBox="0 0 505.4 505.4" style="enable-background:new 0 0 505.4 505.4;" xml:space="preserve">
<style type="text/css">
	.st0{fill:#FFFFFF;}
</style>
<g>
	<g>
		<path class="st0" d="M252.7,227.1c14.1,0,25.6,11.5,25.6,25.6c0,14.1-11.5,25.6-25.6,25.6c-14.1,0-25.6-11.5-25.6-25.6
			C227.1,238.6,238.6,227.1,252.7,227.1 M252.7,226.1c-14.7,0-26.6,11.9-26.6,26.6s11.9,26.6,26.6,26.6s26.6-11.9,26.6-26.6
			S267.4,226.1,252.7,226.1L252.7,226.1z"/>
	</g>
	<g>
		<path class="st0" d="M252.7,198.8c29.7,0,53.9,24.2,53.9,53.9s-24.2,53.9-53.9,53.9s-53.9-24.2-53.9-53.9S223,198.8,252.7,198.8
			 M252.7,197.8c-30.3,0-54.9,24.6-54.9,54.9s24.6,54.9,54.9,54.9s54.9-24.6,54.9-54.9S283,197.8,252.7,197.8L252.7,197.8z"/>
	</g>
	<g>
		<path class="st0" d="M252.7,170.6c45.3,0,82.1,36.8,82.1,82.1s-36.8,82.1-82.1,82.1s-82.1-36.8-82.1-82.1S207.4,170.6,252.7,170.6
			 M252.7,169.6c-45.9,0-83.1,37.2-83.1,83.1s37.2,83.1,83.1,83.1s83.1-37.2,83.1-83.1S298.6,169.6,252.7,169.6L252.7,169.6z"/>
	</g>
	<g>
		<path class="st0" d="M252.7,142.3c29.5,0,57.2,11.5,78.1,32.3c20.8,20.8,32.3,48.6,32.3,78.1s-11.5,57.2-32.3,78.1
			c-20.8,20.8-48.6,32.3-78.1,32.3s-57.2-11.5-78.1-32.3c-20.8-20.8-32.3-48.6-32.3-78.1s11.5-57.2,32.3-78.1
			S223.2,142.3,252.7,142.3 M252.7,141.3c-61.5,0-111.4,49.9-111.4,111.4s49.9,111.4,111.4,111.4s111.4-49.9,111.4-111.4
			S314.2,141.3,252.7,141.3L252.7,141.3z"/>
	</g>
	<g>
		<path class="st0" d="M252.7,114c37,0,71.8,14.4,98,40.6c26.2,26.2,40.6,61,40.6,98s-14.4,71.8-40.6,98c-26.2,26.2-61,40.6-98,40.6
			s-71.8-14.4-98-40.6c-26.2-26.2-40.6-61-40.6-98s14.4-71.8,40.6-98S215.7,114,252.7,114 M252.7,113C175.6,113,113,175.6,113,252.7
			s62.5,139.6,139.6,139.6s139.6-62.5,139.6-139.6S329.8,113,252.7,113L252.7,113z"/>
	</g>
	<g>
		<path class="st0" d="M252.7,85.8c44.6,0,86.5,17.4,118,48.9s48.9,73.4,48.9,118s-17.4,86.5-48.9,118s-73.4,48.9-118,48.9
			s-86.5-17.4-118-48.9s-48.9-73.4-48.9-118s17.4-86.5,48.9-118S208.1,85.8,252.7,85.8 M252.7,84.8C160,84.8,84.8,160,84.8,252.7
			S160,420.6,252.7,420.6s167.9-75.2,167.9-167.9S345.4,84.8,252.7,84.8L252.7,84.8z"/>
	</g>
	<g>
		<path class="st0" d="M252.7,57.5c26.3,0,51.9,5.2,76,15.3c23.2,9.8,44.1,23.9,62,41.8c17.9,17.9,32,38.8,41.8,62
			c10.2,24.1,15.3,49.6,15.3,76s-5.2,51.9-15.3,76c-9.8,23.2-23.9,44.1-41.8,62c-17.9,17.9-38.8,32-62,41.8
			c-24.1,10.2-49.6,15.3-76,15.3s-51.9-5.2-76-15.3c-23.2-9.8-44.1-23.9-62-41.8c-17.9-17.9-32-38.8-41.8-62
			c-10.2-24.1-15.3-49.6-15.3-76s5.2-51.9,15.3-76c9.8-23.2,23.9-44.1,41.8-62c17.9-17.9,38.8-32,62-41.8
			C200.8,62.7,226.3,57.5,252.7,57.5 M252.7,56.5c-108.3,0-196.2,87.8-196.2,196.2s87.8,196.2,196.2,196.2S448.8,361,448.8,252.7
			S361,56.5,252.7,56.5L252.7,56.5z"/>
	</g>
	<g>
		<path class="st0" d="M252.7,29.3c30.2,0,59.4,5.9,87,17.6c26.6,11.3,50.5,27.4,71,47.9c20.5,20.5,36.6,44.4,47.9,71
			c11.7,27.5,17.6,56.8,17.6,87s-5.9,59.4-17.6,87c-11.3,26.6-27.4,50.5-47.9,71c-20.5,20.5-44.4,36.6-71,47.9
			c-27.5,11.7-56.8,17.6-87,17.6s-59.4-5.9-87-17.6c-26.6-11.3-50.5-27.4-71-47.9c-20.5-20.5-36.6-44.4-47.9-71
			c-11.7-27.5-17.6-56.8-17.6-87s5.9-59.4,17.6-87c11.3-26.6,27.4-50.5,47.9-71c20.5-20.5,44.4-36.6,71-47.9
			C193.3,35.2,222.5,29.3,252.7,29.3 M252.7,28.3c-123.9,0-224.4,100.5-224.4,224.4s100.5,224.4,224.4,224.4
			s224.4-100.5,224.4-224.4S376.6,28.3,252.7,28.3L252.7,28.3z"/>
	</g>
	<g>
		<path class="st0" d="M252.7,1c34,0,66.9,6.7,98,19.8c30,12.7,56.9,30.8,80,53.9s41.3,50,53.9,80c13.1,31,19.8,64,19.8,98
			s-6.7,66.9-19.8,98c-12.7,30-30.8,56.9-53.9,80s-50,41.3-80,53.9c-31,13.1-64,19.8-98,19.8s-66.9-6.7-98-19.8
			c-30-12.7-56.9-30.8-80-53.9s-41.3-50-53.9-80c-13.1-31-19.8-64-19.8-98s6.7-66.9,19.8-98c12.7-30,30.8-56.9,53.9-80
			s50-41.3,80-53.9C185.7,7.7,218.7,1,252.7,1 M252.7,0C113.1,0,0,113.1,0,252.7s113.1,252.7,252.7,252.7s252.7-113.1,252.7-252.7
			S392.2,0,252.7,0L252.7,0z"/>
	</g>
</g>
</svg>
