<?xml version="1.0" encoding="UTF-8"?><svg id="a" xmlns="http://www.w3.org/2000/svg" viewBox="0 0 187.39 194.59"><defs><style>.b{fill:none;stroke:#ba0000;stroke-linecap:round;stroke-linejoin:round;}.c{fill:#ba0000;}</style></defs><path class="c" d="M137.35,8.23c9.35,0,16.95,7.6,16.95,16.95s-7.6,16.95-16.95,16.95-16.95-7.6-16.95-16.95,7.6-16.95,16.95-16.95m0-1c-9.91,0-17.95,8.04-17.95,17.95s8.04,17.95,17.95,17.95,17.95-8.04,17.95-17.95-8.04-17.95-17.95-17.95h0Z"/><path class="b" d="M64.97,47.69s0,0-.01,0h-27.89c-2.44,0-7.24,.48-9.75,5.76C24.76,58.82,1.62,105.84,.83,108.87c-.91,3.51-.06,7.58,4.09,9.2,6.54,2.55,10.31-2.55,10.31-2.55l13.78-28.11-.36,46.73v51.74s-.89,7.67,8.87,7.67,10.64-5.43,10.64-8.54v-51.32h5.72v51.32c0,3.1,.89,8.54,10.64,8.54s8.87-7.67,8.87-7.67v-3.06"/><path class="b" d="M113.19,134.67h.82v51.74s-.89,7.67,8.87,7.67,10.64-5.43,10.64-8.54v-51.32h5.72v51.32c0,3.1,.89,8.54,10.64,8.54s8.87-7.67,8.87-7.67v-51.74h8.87c3.55,0,2.22-5.32,2.22-5.32l-5.87-30.04,8.2,16.74s3.77,5.1,10.31,2.55c4.15-1.62,5-5.69,4.09-9.2-.79-3.03-23.93-50.05-26.48-55.42-2.52-5.29-7.32-5.76-9.75-5.76h-27.89c-1.26,0-3.15,.13-5.03,.98"/><path class="c" d="M51.52,11.2c9.35,0,16.95,7.6,16.95,16.95s-7.6,16.95-16.95,16.95-16.95-7.6-16.95-16.95,7.6-16.95,16.95-16.95m0-1c-9.91,0-17.95,8.04-17.95,17.95s8.04,17.95,17.95,17.95,17.95-8.04,17.95-17.95-8.04-17.95-17.95-17.95h0Z"/><path class="c" d="M91.33,1c9.35,0,16.95,7.6,16.95,16.95s-7.6,16.95-16.95,16.95-16.95-7.6-16.95-16.95S81.99,1,91.33,1m0-1c-9.91,0-17.95,8.04-17.95,17.95s8.04,17.95,17.95,17.95,17.95-8.04,17.95-17.95S101.25,0,91.33,0h0Z"/><path class="c" d="M73.89,91.45l11.43,23.32c.74,2.22,2.33,3.87,4.61,4.76,1.33,.52,2.66,.78,3.95,.78,4.76,0,7.42-3.52,7.53-3.67,.04-.05,.07-.1,.09-.15l4.87-9.94-4.42,22.58c-.11,.47-.8,3.58,.59,5.35,.42,.54,1.22,1.18,2.61,1.18h7.05v40.02s0,.08,0,.11c0,.02,.24,2.5-1.42,4.35-1.32,1.46-3.49,2.21-6.45,2.21-8.64,0-9.64-4.3-9.64-7.54v-51.32c0-.55-.45-1-1-1h-5.72c-.55,0-1,.45-1,1v51.32c0,3.23-1,7.54-9.64,7.54-1.08,0-2.06-.1-2.94-.3v-47.93s-.5-42.68-.5-42.68m-1.05-4.42l.55,47.11v48.68c1.07,.34,2.36,.54,3.94,.54,9.75,0,10.64-5.43,10.64-8.54v-51.32h5.72v51.32c0,3.1,.89,8.54,10.64,8.54s8.87-7.67,8.87-7.67v-41.02h-8.05c-3.55,0-2.22-5.32-2.22-5.32l5.88-30.04-8.2,16.74s-2.41,3.26-6.73,3.26c-1.08,0-2.28-.2-3.58-.71-2.2-.86-3.47-2.41-4.04-4.2l-13.41-27.36h0Zm35.96,12.28h0Z"/><path class="c" d="M104.77,38.49c4.23,0,7.21,1.75,8.85,5.19,.39,.82,1.26,2.61,2.46,5.07-1.85,1.07-3.3,2.68-4.3,4.79-.59,1.24-2.25,4.64-4.55,9.35-3.61,7.41-8.96,18.37-13.41,27.62-4.5-9.36-9.96-20.57-13.66-28.14-2.3-4.71-3.96-8.12-4.55-9.36-1.26-2.64-3.84-5.74-9.08-6.26,.7-1.44,1.21-2.5,1.49-3.08,1.64-3.45,4.62-5.19,8.85-5.19h27.89m0-1h-27.89c-2.44,0-7.24,.48-9.75,5.76-.36,.75-1.11,2.3-2.15,4.43,2.44,0,7.23,.48,9.74,5.76,1.65,3.46,11.86,24.25,19.11,39.38,7.24-15.09,17.23-35.43,18.86-38.86,1.22-2.56,2.97-3.98,4.73-4.78-1.42-2.91-2.45-5.03-2.88-5.94-2.52-5.29-7.32-5.76-9.75-5.76h0Z"/></svg>