<?xml version="1.0" encoding="utf-8"?>
<!-- Generator: Adobe Illustrator 26.5.0, SVG Export Plug-In . SVG Version: 6.00 Build 0)  -->
<svg version="1.1" xmlns="http://www.w3.org/2000/svg" xmlns:xlink="http://www.w3.org/1999/xlink" x="0px" y="0px"
	 viewBox="0 0 41.2 41.2" style="enable-background:new 0 0 41.2 41.2;" xml:space="preserve">
<style type="text/css">
	.st0{fill:#FEE201;stroke:#FFFFFF;stroke-width:0.25;stroke-miterlimit:10;}
	.st1{fill:none;stroke:#FFFFFF;stroke-width:0.25;stroke-miterlimit:10;}
	.st2{display:none;}
	.st3{display:inline;fill:none;stroke:#FFFFFF;stroke-width:0.25;stroke-miterlimit:10;}
	.st4{display:inline;fill:#A4DF53;stroke:#FFFFFF;stroke-width:0.25;stroke-miterlimit:10;}
	.st5{display:inline;fill:#390052;stroke:#FFFFFF;stroke-width:0.25;stroke-miterlimit:10;}
</style>
<g id="tier_1">
	<circle class="st0" cx="20.6" cy="20.6" r="2.4"/>
	<circle class="st1" cx="20.6" cy="20.6" r="9.2"/>
	<circle class="st1" cx="20.6" cy="20.6" r="11.5"/>
	<circle class="st1" cx="20.6" cy="20.6" r="13.8"/>
	<circle class="st1" cx="20.6" cy="20.6" r="16.1"/>
	<circle class="st1" cx="20.6" cy="20.6" r="18.3"/>
	<circle class="st1" cx="20.6" cy="20.6" r="20.6"/>
	<path class="st0" d="M20.6,13.6c-3.9,0-7,3.1-7,7s3.1,7,7,7s7-3.1,7-7S24.5,13.6,20.6,13.6z M20.6,23c-1.3,0-2.4-1.1-2.4-2.4
		c0-1.3,1.1-2.4,2.4-2.4c1.3,0,2.4,1.1,2.4,2.4C23,22,22,23,20.6,23z"/>
	<circle class="st1" cx="20.6" cy="20.6" r="4.7"/>
</g>
<g id="tier_2" class="st2">
	<circle class="st3" cx="20.6" cy="20.6" r="2.4"/>
	<circle class="st3" cx="20.6" cy="20.6" r="4.7"/>
	<circle class="st3" cx="20.6" cy="20.6" r="7"/>
	<path class="st4" d="M20.6,6.8C13,6.8,6.8,13,6.8,20.6S13,34.4,20.6,34.4s13.8-6.2,13.8-13.8S28.2,6.8,20.6,6.8z M20.6,27.6
		c-3.9,0-7-3.1-7-7s3.1-7,7-7s7,3.1,7,7S24.5,27.6,20.6,27.6z"/>
	<circle class="st3" cx="20.6" cy="20.6" r="9.2"/>
	<circle class="st3" cx="20.6" cy="20.6" r="11.5"/>
	<circle class="st3" cx="20.6" cy="20.6" r="16.1"/>
	<circle class="st3" cx="20.6" cy="20.6" r="18.3"/>
	<circle class="st3" cx="20.6" cy="20.6" r="20.6"/>
</g>
<g id="tier_3" class="st2">
	<path class="st5" d="M20.6,0C9.2,0,0,9.2,0,20.6s9.2,20.6,20.6,20.6S41.2,32,41.2,20.6S32,0,20.6,0z M20.6,34.4
		c-7.6,0-13.8-6.2-13.8-13.8S13,6.8,20.6,6.8S34.4,13,34.4,20.6S28.2,34.4,20.6,34.4z"/>
	<circle class="st3" cx="20.6" cy="20.6" r="16.1"/>
	<circle class="st3" cx="20.6" cy="20.6" r="18.3"/>
	<circle class="st3" cx="20.6" cy="20.6" r="2.4"/>
	<circle class="st3" cx="20.6" cy="20.6" r="4.7"/>
	<circle class="st3" cx="20.6" cy="20.6" r="7"/>
	<circle class="st3" cx="20.6" cy="20.6" r="9.2"/>
	<circle class="st3" cx="20.6" cy="20.6" r="11.5"/>
</g>
</svg>
