<?xml version="1.0" encoding="utf-8"?>
<!-- Generator: Adobe Illustrator 27.0.0, SVG Export Plug-In . SVG Version: 6.00 Build 0)  -->
<svg version="1.1" xmlns="http://www.w3.org/2000/svg" xmlns:xlink="http://www.w3.org/1999/xlink" x="0px" y="0px"
	 viewBox="0 0 706.2 773.3" style="enable-background:new 0 0 706.2 773.3;" xml:space="preserve">
<style type="text/css">
	.st0{fill:#B1816E;}
	.st1{fill:#DDDAD7;}
	.st2{fill:#FFFFFF;}
	.st3{fill:#0A0A0A;}
	.st4{fill:#6D443C;}
	.st5{fill:#825044;}
	.st6{fill:#282828;}
	.st7{fill:#D3A190;}
	.st8{fill:#1B1E1F;}
	.st9{fill:#E5E2E1;}
	.st10{fill:#9E7364;}
	.st11{display:none;}
	.st12{display:inline;}
	.st13{fill:#4F7679;}
	.st14{fill:#C69B8F;}
	.st15{fill:#C9B3AC;}
	.st16{fill:#725B53;}
	.st17{fill:#B5827E;}
	.st18{fill:#B5827F;}
	.st19{fill:#B5837F;}
	.st20{fill:#7A6B83;}
	.st21{fill:#598DB9;}
	.st22{fill:#426590;}
	.st23{fill:#A68179;}
	.st24{fill:#7A6C83;}
	.st25{fill:#98808C;}
	.st26{fill:#544E4C;}
	.st27{fill:#BC8985;}
	.st28{fill:#79835D;}
	.st29{fill:#7A835E;}
	.st30{fill:#7A825D;}
	.st31{fill:#567A7F;}
	.st32{fill:#BA9B90;}
	.st33{fill:#EDE2DF;}
	.st34{fill:#C79B8F;}
	.st35{fill:#98786F;}
	.st36{fill:#FCF9F7;}
	.st37{fill:#FAF9F8;}
	.st38{fill:#5A8DB8;}
	.st39{fill:#A37C80;}
	.st40{fill:#EFEBEB;}
	.st41{fill:#654437;}
	.st42{fill:#EF9369;}
	.st43{fill:#BEA093;}
	.st44{fill:#887C80;}
	.st45{fill:#483940;}
	.st46{fill:#DDD3C9;}
	.st47{fill:#EF9469;}
	.st48{fill:#87492E;}
	.st49{fill:#483830;}
	.st50{fill:#523933;}
	.st51{fill:#DCD2C8;}
	.st52{fill:#3E2D2E;}
	.st53{fill:#EF9368;}
	.st54{fill:#88492E;}
</style>
<g id="Layer_1">
	<g id="_x32_">
		<path id="_x31__17_" class="st0" d="M180.4,87.8c0,0,5.6,23.6-4,37.1s-11.2,43.9-11.2,43.9l36.7,122.7l-3.8,38.1
			c0,0,70.2,8.4,96.2,1.2s30.5-22,30.5-22l-37.7-89.2l-20.4-89.3c0,0-31.9,5.7-34.1,5.3c-2.2-0.4-5.6-9.8-5.6-9.8l-29.2-37.3
			L180.4,87.8z"/>
		<g id="_x32__14_">
			<g id="_x31__15_">
				<path id="_x31__16_" class="st1" d="M179.6,141.5c-0.8-1-9.4-12.3-9.4-12.3s-32,26.2-36.7,39.1c-2.7,7.3,4.2,45.8,4.2,45.8
					l60.9,76l-5,21c0,0,36.7,14.4,68.1,11.4s61.3-18.3,61.3-18.3l-29.7-81.5l-26.3-92.3l-37.1,1.5c0,0,1.2,27.8-7.8,31.6
					c-9,3.8-21.6-2.6-21.6-2.6L179.6,141.5z"/>
				<path id="_x32__17_" class="st1" d="M266.8,130.4c2.2,0.2,42.4,24.5,57.7,37.1c15.4,12.6,28.8,25.7,28.8,25.7l41.6-41.9
					l20.4,10.5c0,0-32,75.1-45.2,80.5c-13.2,5.4-47.6-7.3-62.3-17.7s-37.4-39.8-37.4-39.8L266.8,130.4z"/>
			</g>
			<g id="_x32__15_">
				<polygon id="_x31__14_" class="st2" points="229.6,131.9 222.8,161.2 229.6,173.7 238.2,148.5 				"/>
				<path id="_x32__16_" class="st2" d="M174.6,119c0.4,1.2,11.4,26.9,23.3,34.7c11.8,7.8,17.2,9.8,17.8,10
					c0.6,0.2-12.6,14.4-12.6,14.4s-11.6-18.6-18.6-22.2s-22.6-7.4-22.6-7.4L174.6,119z"/>
			</g>
		</g>
		<g id="_x33__4_">
			<g id="_x31__10_">
				<g id="_x31__12_">
					<path id="_x31__13_" class="st0" d="M272,654.2c-3,4.8-18,29.6-18,29.6s6.3,16.8,14.4,24.5s8.1,7.8,8.1,7.8s-4.8,8.1-18.6,3.9
						c-13.8-4.2-38.6-22.5-38.6-22.5s5.7-14.4,6-16.2c0.3-1.8,10.5-35.3,10.5-35.3L272,654.2z"/>
					<path id="_x32__13_" class="st3" d="M219.3,693.5c0,0,19.9,16.8,28.6,20.8c8.7,4,14.5,2.8,18.1,2c3.6-0.8,4.7-5.7,4.7-5.7
						s21.3,12.1,24.7,15.9c3.4,3.8,3.4,9.2,3.4,9.2s-5.4,5-14.6,4.4S240,724.6,240,724.6s-13.6,2.4-20.8,0.2s-8.6-10.4-7.4-14
						C213.1,707.3,219.3,693.5,219.3,693.5z"/>
				</g>
				<g id="_x32__11_">
					<path id="_x31__11_" class="st3" d="M96,712c0,0-3.5,18.8-7.7,24.4c-4.2,5.6-9.4,3.6-14.2,6.8s-25.7,17.6-34.5,22.9
						s-22.3,3.3-26.5-0.8s-0.3-19.6,13.1-30s27.9-16.2,27.9-16.2L96,712z"/>
					<path id="_x32__12_" class="st0" d="M90,648.5c0,0-17.1,49.1-18,50c-0.6,0.6-10.3,11.9-17.8,20.6h0h0c-1,1.2-2,2.4-3,3.5
						c-1.1,1.8-1.6,4.1,0.5,6.2c4.2,4.4,17.2,5.3,21.2,4.3c4-1,15.9-7.6,18-10.1c4.2-5.1,7.5-19.2,7.5-19.2l21.3-39.8L90,648.5z"/>
				</g>
			</g>
			<path id="_x32__10_" class="st3" d="M198.5,290.2c3.4,1.4,60.7,0.6,78.2-2.2c17.6-2.8,34.2-16.3,34.2-16.3s27.2,56.6,32.4,108.5
				c5.2,51.9-25.1,177.2-25.1,177.2l-47,108.2L230,655.2c0,0,8.8-66.3,14.8-79s20.8-32.7,20.8-32.7L260,412.9c0,0-49.7,111-56,124.5
				c-6.3,13.6-33,46.3-33,46.3l-47.5,92.6l-40.7-17.6c0,0,29.1-89.4,47.5-122.9S159,474,159,474s12.4-108.6,19.6-131.3
				S198.5,290.2,198.5,290.2z"/>
		</g>
		<g id="_x34__2_">
			<g id="_x31__3_">
				<g id="_x31__8_">
					<path id="_x31__9_" class="st4" d="M232,128.1c3.4-9.7,9.9-17.1,25.4-16.8c15.5,0.3,14.9,1.6,20.3,0.9c5.4-0.7,10.6-4,10.6-4
						s3.4,13.2,20.1,10.3c16.6-2.8,14.5-12,14.5-12s5.8,0.6,9.3,0c3.4-0.6,12.9-8.5,29.3-6c16.5,2.6,25.3,9.1,25.4,21.1
						c0.1,12,1.6,23-15.7,28s-23.8,3.6-28.3,5.5s-5.4,3-5.4,3s-1.9-9.4-17.4-6.9c-15.4,2.5-19.5,16-19.5,16s-4.6-1-8.1,0.9
						s-10.2,13.2-31.1,11.7c-21-1.5-29.3-16.9-31.1-25C228.6,146.8,228.6,137.8,232,128.1z"/>
					<path id="_x32__9_" class="st5" d="M232,116.4c3.4-9.7,9.9-17.1,25.4-16.8c15.5,0.3,14.9,1.6,20.3,0.9s10.6-4,10.6-4
						s3.4,13.2,20.1,10.3c16.6-2.8,14.5-12,14.5-12s5.8,0.6,9.3,0c3.4-0.6,12.9-8.5,29.3-6c16.5,2.6,25.3,9.1,25.4,21.1
						c0.1,12,1.6,23-15.7,28s-23.8,3.6-28.3,5.5c-4.5,1.9-5.4,3-5.4,3s-1.9-9.4-17.4-6.9c-15.4,2.5-19.5,16-19.5,16s-4.6-1-8.1,0.9
						s-10.2,13.2-31.1,11.7c-21-1.5-29.3-16.9-31.1-25C228.6,135.1,228.6,126.2,232,116.4z"/>
				</g>
				<g id="_x32__7_">
					<path id="_x31__7_" class="st6" d="M229.4,128.4c0.8,0.2,46.9-12.8,46.9-12.8l4,13.7l-49,9.1L229.4,128.4z"/>
					<path id="_x32__8_" class="st6" d="M316.5,107.6l3,13.2c0,0,64.5-8.8,78.2-10c13.8-1.2,48.1-0.2,48.1-0.2v-10.5
						c0,0-36.3-1.2-52.1,0C377.9,101.2,316.5,107.6,316.5,107.6z"/>
				</g>
				<g id="_x33__2_">
					<g id="_x31__5_">
						<path id="_x31__6_" class="st6" d="M465.2,104.3c0-0.4,4.8-6.4,2.2-9.1c-2.5-2.7-9.1-2.9-9.4-0.9s1.8,8.7,1.8,8.7L465.2,104.3
							z"/>
						<path id="_x32__6_" class="st6" d="M451.9,101.3c0.1-0.9-1.3-13.6-3.1-13.5c-1.8,0.2-5.2,4.9-4.6,6.4s6.7,7.1,6.7,7.1H451.9z"
							/>
					</g>
					<path id="_x32__5_" class="st5" d="M474.5,103.4c0,0-2.7-5.5,1.8-7.6c4.5-2.1,11.1-1.9,12.4,0s4,10.6,4,10.6s-1.8,8.8-8.4,9.7
						c-6.6,0.9-18.4-2.4-23.8-3.4c-5.4-1-14.8-2.1-14.8-2.1v-10.5c0,0,9.8-1.4,16.4,0.7c6.6,2.1,12.4,6.7,12.4,6.7L474.5,103.4z"/>
					<g id="_x33__3_">
						<path id="_x31__4_" class="st6" d="M466.2,112.8c0,0,4.3,7.2,1.9,7.9s-9.7-1.5-9.4-3c0.3-1.5,0-7.6,0.9-7.6
							C460.5,110.1,466.2,112.8,466.2,112.8z"/>
						<path id="_x32__4_" class="st6" d="M479,113.1c0,0,3.1,4.8,1.5,7.8c-1.6,3-8.1,3.9-8.8,2.4c-0.7-1.5,0-10.2,0-10.2H479z"/>
					</g>
				</g>
			</g>
			<path id="_x32__3_" class="st0" d="M414.1,161.2c0.8-0.8,11.1-21.5,18.5-32c7.4-10.5,15.8-26.6,11.4-30.6
				c-4.4-4-11.6-3.2-11.6-3.2s-0.9-6.8-3.9-5.2c-2.9,1.6-4.5,4.3-4.5,4.3s-3,3.1-5.6,4.1c-2.6,0.9-9.8,2.6-10.4,4.6
				c-0.6,2-6,0.7-5.4,4s8.6,11.4,8.6,11.4s-6.5,12.6-8.6,18.4c-2.1,5.8-5.4,15.5-5.4,15.5L414.1,161.2z"/>
		</g>
		<g id="_x35__1_">
			<g id="_x31__2_">
				<g>
					<polygon class="st7" points="328.2,227.1 290.5,3.5 291.8,3.3 329.5,226.9 					"/>
				</g>
				<g>
					
						<rect x="312" y="-0.4" transform="matrix(0.9869 -0.1616 0.1616 0.9869 -13.9714 52.0916)" class="st8" width="2.6" height="224.8"/>
				</g>
				
					<rect x="326.1" y="221.5" transform="matrix(0.9818 -0.19 0.19 0.9818 -37.101 66.9264)" class="st8" width="8.9" height="10.9"/>
				<rect x="289.2" y="0.2" transform="matrix(0.9818 -0.19 0.19 0.9818 4.2666 55.9126)" class="st8" width="9" height="11.1"/>
			</g>
			<g id="_x32__2_">
				<path class="st0" d="M257.9,204.7c6.6-4.2,28.9-15.8,28.9-15.8s23.2-16.6,27.9-15.3c4.8,1.3,17.4,7.9,18.1,8.9
					c0.7,1,0.9,3.6,0.9,3.6s7.5,5.8,7.9,7.8c0.4,1.9-1,4.6-1,4.6s-12-1.3-11.5-0.6c0.4,0.7,11.4,12.9,11.7,15.4s-1.9,5.5-3.9,4.2
					c-1.9-1.3-9.9-10-9.9-10s-10.5,2.5-20.4,4.6c-9.9,2.1-24.2,3-24.2,3l-16.9,7.6L257.9,204.7z"/>
				<path class="st9" d="M125.3,197.6c-1.4,22.4,9.8,76.5,20.2,87.3c10.4,10.8,29.8,23,39.5,19c32.7-13.6,97-77.3,97-77.3
					l-11.8-30.8l-81.3,42.3l-6.3-34.1c0,0-5.2-31.5-10.6-37.7c-5.4-6.2-21.1-11.3-29.7-6.2C133.7,165.3,126.7,175.3,125.3,197.6z"/>
			</g>
		</g>
		<g id="_x36__1_">
			<path id="_x31__1_" class="st10" d="M221.8,125.4c-3-2-16.7-14.2-23.6-20.8c0.7,7.4,5.9,14,12.1,19.8
				c9.6,8.9,18.6,10.5,18.6,10.5l2.2-4.6C229.6,130.5,229.4,130.4,221.8,125.4z"/>
			<path id="_x32__1_" class="st0" d="M239.6,30.4c0,0,9.6,13.5,9.9,22.8s0,15.9,0,15.9s8.7,13.8,7.8,18.3c-0.9,4.5-6.1,5.4-6.1,5.4
				l-0.3,6.3l-3.3,5.5c0,0,2.2,4.3,1.8,6.1c-0.4,1.8-1.6,4.2-1.6,4.2s1.6,10-0.4,11.4s-16,6.1-19.9,4c-25.9-13.6-31.6-28-31.6-28
				l-7.5-43L239.6,30.4z"/>
			<path id="_x33__1_" class="st3" d="M230.2,38c0,0-5.4,20.1-8.2,21.3s-9.6,3-12.3,6.1C207,68.5,204,75,201,77.2
				c-3,2.2-6.9,3.2-6.9,3.2l-10.4,19.2l-4,24.4c0,0-13.8,21-20.2,21.3s-19.9,0.7-20.1-9.3s1.3-21.1,1.3-21.1s-10.6-10-6-16.3
				c4.6-6.3,9.1-6.9,9.1-6.9s1.8-7.2,4.6-7.9c2.8-0.7,6.1,0,6.1,0S138.6,47,156,31.1s45.6-21.4,66.9-11.4s20,15.6,20,15.6L230.2,38z
				"/>
			<path id="_x34__1_" class="st0" d="M194.1,80.4c-0.6-0.3-7-7.4-11.2-5.9c-4.2,1.5-8.7,10.6-5.4,15.9c3.3,5.2,6.6,6.6,9,8.7
				c2.4,2.1,9.6,3.3,11.1,1.2C199.1,98.2,194.1,80.4,194.1,80.4z"/>
		</g>
	</g>
</g>
<g id="Layer_2" class="st11">
	<g id="XMLID_818_" class="st12">
		<path id="XMLID_870_" class="st13" d="M726.5,501.8c0.2,1.6,1.7,2,2.8,2.4c5,1.7,10,3.6,15.4,3.7c7.3,0.1,13.6,3.5,20.1,6.3
			c3.1,1.3,6.1,3,9.1,4.5c5.5,2.7,10.4,6.1,14.9,10.3c4.5,4.3,10.4,6.8,15.1,10.9c6.5,5.6,13.2,10.9,16.9,18.8
			c2.3,4.8,3.8,10,4.5,15.2c1,7.2,2.7,14.2,4,21.3c1.3,6.9,2.3,13.8,3.4,20.7c0.2,1.1,0,2.3-0.5,3.4c-2.5,6-4.4,12.4-10.2,16.4
			c-1.5,1.1-2.9,2.3-3.6,4.1c-1.2,1.6-1.4,3.6-2,5.4c-1.5,4.6-6.7,5.6-10,2c-2.1-2.3-3.6-5-4.7-7.9c-1.2-3.1-2.9-5.8-4.9-8.4
			c-3.7-4.9-5.6-10.6-6.4-16.6c-0.8-5.4-3.4-9.5-8.1-12.3c-3.9-2.3-7.3-5.3-10.3-8.6c-1.1-1.2-2.5-2-3.6-3.1c-0.5-0.6-1-1.3-0.5-2.1
			c1.7-3.1,2.3-6.5,2.6-9.9c0.7-6.5,2.9-12.4,6.3-18c3.5-5.7,3.2-9.6-5.1-12.9c-3.2-1.3-6.6-1.6-9.9-0.9c-9.2,1.7-17.3,5.7-24.3,12
			c-3.4,3.1-4.5,6.8-3.9,11.2c0.3,2.1,0.2,4.2,0.7,6.3c0.3,1,0.1,1.7-1.1,1.9c-3.2,0.1-5.8-1.9-8.9-2.2c-7.2-0.6-14.2-0.4-19.6,5.3
			c-3.8,4-8.1,4.7-13.2,2.8c-2-0.8-4.2-1.1-6.4-1.6c-1.3-0.3-1.5-1.2-1.5-2.4c-0.1-2.9-0.6-3.4-3.4-3.2c-1.9,0.1-3.9-0.1-5.8-0.4
			c-3-0.5-5.1-2.2-5.9-5.2c0.2-0.2,0.4-0.3,0.7-0.4c1.5,0.1,2.6,0.9,3.7,1.8c2,1.6,4.1,1.6,6.4,0.6c2.8-1.3,4.9-3.4,6.5-6
			c2.1-3.5,3.9-7.1,6.3-10.4c2.9-4.1,4.7-4.5,9-1.7c1.9,1.2,3.7,2.8,5.6,3.9c2.2,1.3,2.9,1.1,4-1.3c3.4-7.1,4.9-14.7,6.3-22.3
			c1.6-8.2,2.4-16.5,0.6-24.9c-0.1-1.1-0.8-2-0.9-3.1c0.1-2.1,1.5-3.4,3.1-4.5c1.3-0.9,2.8-1.2,4.2-1.9
			C725.3,500.6,726.2,500.7,726.5,501.8z"/>
		<path id="XMLID_869_" class="st14" d="M733.5,577.5c1.8-0.7-0.2-1.2-0.1-1.9c0.4-3.2-0.8-6.4-0.5-9.7c0.4-4.3,3.1-7.1,6.1-9.5
			c6.6-5.3,14.1-9,22.4-10.5c5.3-1,10.5,0,15,3.3c3.2,2.4,4.1,5.1,2.5,8.7c-0.9,2-1.7,4.1-3,5.9c-2.7,3.8-3.5,8.2-4.4,12.5
			c-0.8,4.3-0.6,8.8-3.4,12.6c-0.1,0.2,0.5,0.9,0.7,1.3c0.2,0.7,0.1,1.4,0,2.1c-2,8.7-4.3,17.4-5.8,26.2c-1.1,1.6-0.1,3.4-0.6,5.1
			c-3.7,13-9,25.3-14.9,37.4c-0.5,1.1-1.7,1.6-2,2.7c-0.7,0.7-1.5,1.2-2.1,2c-3.1,4.3-7.6,5.3-12.5,5.4c-8.8,0.2-17.6,0-26.4,0.7
			c-8.8,0.7-17.5-0.7-26.3-0.7c-2.1,0-4.2-0.6-6.3-0.4c-2.6,0.7-5.2,0.2-7.8,0c-5.3-0.4-10.5-0.7-15.8-0.9c-2.4-0.1-4.6,0.5-6.5,1.9
			c-2.3,1.7-4.7,3.4-7.1,5c-2.5,2.7-5,5.4-8.8,6.4c-1.7,0.4-3.4,0.6-4.7-0.7c-1.4-1.5-0.3-2.9,0.2-4.4c0.3-0.7,1.4-1.4,0-2.1
			c-1.1-0.7-2.5-0.7-3.6-0.3c-3.3,1-6.2,0-9.1-1.2c-3-1.3-5.9-2.6-9-3.6c-2.6-0.1-3.5-2-4.3-4c-0.8-1.9,0.8-2.8,2.1-3.8
			c0.9-0.7,1-1.5,1.2-2.4c0.4-2.2,1.9-3.5,4.3-3.7c1.6,0,3.3,0.7,4.9-0.2c-0.9-0.6-2.4-0.8-2.2-2.3c0.2-1.4,1.1-2.4,2.6-2.9
			c6.4-2.2,9.1-2.4,16-0.5c-1.1-2.6,0.1-4.4,2.3-5.4c3.9-1.8,7.8-3.5,12.3-3c5.9-0.9,11.6-0.4,16.4,3.6c1.2,1,2.5,1.5,4,1.5
			c5.1,0,10.2,0.2,15.1-1.5c0.8-0.3,1.7-0.4,2.6-0.5c9.5-0.7,18.7-3.1,27.9-5.5c1.3-0.3,2.5-0.7,3.9-0.9c3.5-0.1,7-0.5,10.4-1.4
			c1.8-0.3,2.6-1.4,2.9-3.2c0.5-2.6,0.1-5.4,0.9-8c-0.4-13.3,3.4-25.7,8.1-38c0.9-2.3,1.4-4.5,1.4-6.9
			C732.7,580.3,732.3,578.7,733.5,577.5z"/>
		<path id="XMLID_868_" class="st15" d="M467.7,486.4c-1.1-2.7-1-5.7-1.5-8.5c-0.4-1.9,3.2-6.7,5.4-6.7c4-0.1,6.6-2.8,9.4-4.9
			c4.9-3.6,9.8-7.1,15.3-9.8c12.6-6.2,25.3-5.8,38-0.1c1.8,0.8,2.8,2.3,4.2,3.6c5.6,5.2,8.9,11.7,10.6,18.9c0.6,2.4,0.3,5.1,1.2,7.5
			c2.1,7.3,2.9,14.7,1.8,22.3c-1.5,10-3.2,20-7,29.5c-0.5,1.2-0.6,2.6-0.9,3.9c-0.3,1.2-0.5,2.4-1.9,2.9c-0.7,0.2-0.8,0.9-1,1.5
			c-0.5,1.7-1.6,2.9-3.3,3.6c-0.5,0.2-1,0.4-1.3,0.8c-3.3,4.5-8.5,4.8-13.3,5.8c-3.8,0.1-7.8,0-11.4,1c-4.9,1.5-10,1.1-15,2.3
			c-3.8,0.9-5,0-7.3-4.3c-0.4-0.2-0.8-0.4-1.2-0.6c-1-0.6-1.3-2.1-2.6-2.1c-1.4,0-1.5,1.6-2.3,2.3c-1.1,1.1-1.9,0.5-2.6-0.5
			c-1.2-1.7-1.4-3.8-1.7-5.8c-0.2-1.2-0.5-2.1-1.7-2.9c-1.9-1.3-1.7-3.8-1.4-5.8c0.5-3.2,1-6.4,1.8-9.6c0.6-2.5-0.4-4.7-1.4-6.8
			c-0.2-0.5-0.5-1-1.2-0.8c-0.5,0.1-0.5,0.7-0.6,1.1c-0.1,0.3,0-0.1-0.1,0.3c-0.4,1.4-0.8,3.3-2.7,3c-2-0.4-1.8-2.3-1.7-3.9
			c0.1-1.3,0.4-2.6,0.7-3.9c1-3.9,1-7.8-0.1-11.7c-0.5-1.6-0.7-3.2,0.3-4.8c0.6-0.9,0.3-1.9-0.1-2.8c-1.8-4.1-3.7-8.2-3-12.9
			C468.2,487,467.9,486.7,467.7,486.4z"/>
		<path id="XMLID_867_" class="st16" d="M726.5,501.8c-1.9-0.7-6.7,1.5-8.2,3.8c-0.4,0.6-0.5,1.3-0.8,1.9c-0.4,0.5-0.3,1.1-0.5,1.7
			c-1.9,6.3-4.6,8.3-12.3,5.2c-2.5-1-4.9-1.8-7.6-1.9c-1.6,0-3-0.8-4.5-1.4c-1.7-0.7-3.3-0.8-5,0.5c-4.7,3.6-5.9,8.4-0.6,13
			c2.3,2,4.5,4.2,7.1,5.9c1.7,1.2,2,5.6,0.6,7.1c-1.2,1.3-2.6,0.7-3.6-0.2c-2.4-2-5.1-3.8-7-6.4c-2.1-2.7-4.9-4.5-7.8-6.1
			c-2.6-1.5-5.2-0.7-7.6,0.3c-2.6,1.1-5.1,2.3-7.9,3.1c-1.9,0.6-2.2,1.8-1.4,3.5c1.5,3.5,2.6,7.1,2.3,11c-0.1,2.1-0.5,3.9-3.2,3.8
			c-0.4,0-0.9,0.1-1.2,0.4c-2.9,2.5-6.7,3.5-9.8,5.6c-1.4,1-2.2,3.9-1.4,5.3c0.4,0.8,1.1,0.7,1.8,0.6c0.8-0.1,1.5-0.5,2.3-0.6
			c0.6-0.1,1.3,0,1.5,0.7c0.3,0.7,0,1.2-0.7,1.5c-1.4,0.4-2.8,1-4.4,0.9c-2.2-0.1-3.2-1.1-3.3-3.3c-0.1-1.1,0.2-2.1,0.3-3.2
			c0.4-3.1-0.8-4.3-3.9-4c-0.8,0.1-1.5,0.4-2.4,0.2c-2.5,0.6-4.3,2.5-6.5,3.6c-0.5,0.3-0.5,0.5-0.6,0.9c-0.6,2.4-1.3,2.6-3.3,1
			c-4.4-3.4-7.3-8-9.4-13c-4.6-10.5-4.3-21.2-1.4-32c1.3-4.7,1.5-9.6,2.4-14.4c0.3-1.3,0.5-2.6,1.1-3.7c0.2-0.3,1.1-0.4,0.5-1.1
			c1.2-3.1,2-6.3,4.3-8.8c0.3-0.4,0.4-0.8,0.4-1.2c1.4-11.1,7.6-18.7,17.3-23.9c8.3-4.5,17-4.8,26-3.7c1.8,0.2,3.5,0.9,4.7,2
			c1.9,1.7,4.1,2.2,6.5,2.2c4.5-0.1,8.2,1.7,11.9,4.2c2.9,2,6.5,2.9,9.2,5.4c3.2,3.1,7.2,5.3,9.9,9c0.6,0.8,1.4,1.7,1.7,2.6
			c1.2,4.5,4.3,7.9,6.7,11.7c1.4,2.1,1.5,4.8,2.9,6.9c0.6,1,1.2,1.4,2.2,1.5c2.6,0.2,5.2,0.4,7.9,0.6c0.7,0.1,1.8-0.4,1.7,0.9
			c-0.1,1-1.2,0.8-1.7,0.6C730,501.5,728.3,501.8,726.5,501.8z"/>
		<path id="XMLID_866_" class="st17" d="M490.3,703.4c2.7,7.5,5.5,14.9,7.6,22.5c0.7,2.5-0.1,4.8-0.4,7.2c-0.1,0.9-0.3,2-1.7,2
			c-1.2,0-1.8-0.7-2.2-1.6c-2.3-5.3-4.6-10.6-6.9-15.9c-0.4-0.9-0.8-1.9-1.4-2.8c0.2,2.7,0.9,5.4,2,7.9c1.3,2.9,2.5,5.8,3.6,8.7
			c0.3,0.9,0.5,1.9,0.6,2.8c0.2,2.3,0.1,4.7-2.7,5.3c-2.5,0.6-3.5-1.6-4.3-3.4c-2.6-5.9-5-11.9-7.5-17.9c-0.3-0.3-0.6-0.5-0.6-0.9
			c-0.1,0.3,0.1,0.6,0.1,0.9c0.2,4.2,1.3,8.3,3,12.2c0.8,1.9,1.6,3.9,1.8,6c0.2,1.7-0.3,3.4-2,3.9c-1.6,0.5-2.2-1.1-2.9-2.2
			c-3.1-5-5.9-10.2-7.3-16c-0.6-2.5-1.4-5-3.2-7.5c-0.1,3.2,0.5,5.9,1.3,8.5c1,3.5,0.4,7-0.3,10.4c-0.3,1.4-1.2,0.9-1.9,0.2
			c-2-2.1-2.9-4.7-3.8-7.4c-2.2-7-4.4-14-7.2-20.8c-3-7.6-8-13.6-13.8-19c-9.4-8.7-18.5-17.6-25.7-28.3c-2.7-4-5.6-7.8-8.1-12
			c-3.1-5.1-3.5-10.2-1.6-15.8c2.6-7.8,5.2-15.6,9-22.9c2.1-4,3.8-8.3,5.1-12.6c0.7-5.8,3.9-10.8,5.8-16.2c2.8-8,5.9-16,6.8-24.6
			c0.1-0.7,0.3-1.4,0.6-2c0.5-0.9,1.1-1.6,2.1-1.9c0.1,0,0.2,0,0.3,0c2.6,3,6.4,4.4,9.1,7.3c0.6,0.6,1.3,0.9,1.9,1.4
			c2.6,2.1,5.3,4.3,8.3,5.8c3.3,1.7,5.1,5.7,9.3,6.4c1.9,0.3,0.7,2,0.6,3.1c-2.8,5.9-6,11.6-9,17.3c-1.4,2.7-2.5,5.5-3.7,8.2
			c-3.5,7.8-7.3,15.4-12,22.6c-0.3,0.5-0.6,1.1-0.7,1.7c-0.2,0.7-0.5,1.4-0.9,1.9c-4.1,5.4-1.7,10.6,0.5,15.8
			c3.4,8,9.7,14.2,13.8,21.8c1.8,3.3,3.7,6.4,6.1,9.2c5.4,5.8,11.2,11.2,18.2,15.2c2.5,1.4,4.5,3.5,6.2,5.7
			C484.9,696.9,488.6,699.4,490.3,703.4z"/>
		<path id="XMLID_865_" class="st18" d="M490.4,555.2c0.3,0.1,0.9,0.2,0.9,0.4c0.2,3.8,1.8,4.8,5.8,3.8c3.4-0.9,7-1,10.5-1.3
			c1.1-0.1,2,0,2.8-0.8c1.4-1.4,3.1,0.2,4.8-0.6c2.3-1.1,5.1-0.4,7.6-0.5c2,3,1.9,6.4,1.6,9.8c-0.2,2-0.5,4-1.1,5.9
			c-2.3,12.7-6.4,24.9-12.1,36.5c-2.1,4.2-4.9,7.7-8.1,11c-3.4,3.5-6.9,6.8-9.8,10.7c-0.8,1.1-2.3,1.3-2.9,2.5
			c-4.4,4.5-3.3,9.9-2.5,15.2c0.2,1.2,0.3,2.4,0.4,3.6c-0.1,1.3,1,2.2,1.1,3.4c0.1,0.8,0.3,1.6,0.5,2.3c0.2,0.6,0.3,1.2,0.4,1.8
			c0.2,2.3-0.7,3.3-3.1,3.1c-1.9-0.2-3.9-0.3-5.7-0.8c-3.1-0.9-6-0.6-9,0.7c-2.6,1.1-5.3,1.9-8,2.7c-2.1,0.7-2.7,0.3-2.9-1.9
			c-0.1-0.9-0.2-1.8,0-2.6c0.6-3.3,0.3-6.5-0.4-9.7c-0.4-1.9,0.4-3.6,1.1-5.3c0.2-1.3,0.8-2.5,1.5-3.6c1-1.7,1.1-3.5,0.9-5.4
			c-1.4-3.2-1-6.7-1.5-10.1c-0.2-1.4-0.3-2.8-0.3-4.2c-0.1-6.9-1.4-13.7-0.6-20.5c0.8-7.4,4-13.8,9.4-19c4.9-5.3,8.6-11.4,12-17.7
			c1.2-2.2,2.5-4.4,3.8-6.6C488.3,556.7,489.1,555.7,490.4,555.2z"/>
		<path id="XMLID_864_" class="st19" d="M572.3,624.1c-4,1.7-8,3.4-12,5.2c-7.3,3.4-15,6-21.7,10.5c-2.5,1.7-4.6,3.8-5.3,6.9
			c0.9,2.1-0.8,2.2-2,2.3c-2.7,0.2-5.5,0.2-8.2,0c-4.1-0.3-7.9,0.5-11.7,1.7c-1.1,0.3-2.2,0.7-3.3,0.9c-2,0.3-3.5-0.4-4.2-2.4
			c-1.1-3.4-2-6.9-2.6-10.5c-0.3-2.1,0.7-3.8,1.9-5.3c0.7-0.8,1.4-1.6,2-2.5c0.2-0.2,0.3-0.4,0.5-0.5c1.2-2,3.4-2.5,5.4-3
			c3.6-0.8,6.2-3,8.1-5.9c3.9-5.8,8.6-11,13.6-15.8c2.4-2.3,5.2-3.5,8.5-3.6c4.3-0.2,8.6-0.9,12.9-1.1c2.2-0.1,3-1.6,3.6-3.4
			c1.2-4,2.3-8,3.9-11.8c3.3-7.9,9-12.9,17.6-14.2c7.3-1,14.1,3.7,16.8,9.4c1,2.1,0.9,4.3,0.1,6.4c0.3,3.5-0.5,7-0.6,10.5
			c-0.3,7-4.1,12.3-8.7,17.1c-3.4,3.6-7.2,6.7-11.9,8.5C574.2,624,573.4,624.5,572.3,624.1z"/>
		<path id="XMLID_863_" class="st20" d="M490.4,555.2c-4.2,4.9-6.7,10.9-10,16.4c-2.3,3.8-5,7.3-7.9,10.6
			c-4.3-7.7-2.7-14.8,2.1-21.6c-1.6,2-2.5,4.3-3.7,6.4c-1.3,2.2-2.4,4.5-3.5,6.8c-1.2,2.4-2.2,2.4-4,0.4c0.7-2.4-0.7-2.8-2.6-2.9
			c-0.5,0-1.4-0.2-1.4-0.5c-0.8-3-4-3.7-5.9-5.4c-2.3-2.1-5.4-3.2-7.7-5.6c-0.9-1-2.6-1.4-3.2-3c-0.1-0.3-0.4-0.8-0.6-0.8
			c-4.3,0.5-4.8-4.1-7.6-5.5c-0.5,0-1.1-0.2-1.6-0.2c-0.7,0-1.3,0.4-1.9,0.2c-2.4-1.2-2.8-3.1-1.7-5.4c1.4-2.9,2-6.1,2.7-9.3
			c1-4.4,4.4-7.6,5.7-11.7c3.4-10.7,9.7-19.6,17-27.8c3.7-4.1,8.2-7.4,13.2-9.9c0.9,0.1,1.7,0.3,1.4,1.4c-1.3,4.4,0.9,8,2.5,11.7
			c0.6,1.5,1.5,3-0.2,4.5c-0.5,0.5-0.5,1.2-0.2,2c1.9,5.5,1.5,11-0.1,16.5c-0.1,0.3-0.2,0.5-0.2,0.8c0,1.4-0.5,3.4,1.1,3.7
			c1.9,0.3,1.7-1.7,2-3c0.2-0.9,0.1-2.3,1.1-2.4c0.9-0.1,1.5,1.1,2,1.9c2,3.3,1.7,6.8,0.9,10.5c-0.7,3.5-2.2,7.1-1,10.8
			c0.2,0.4-0.1,1.2,0.7,1c2.2-0.5,1.8,1.1,2,2.3c0.3,2.2,0.4,4.6,1.7,6.5c0.7,1,1.3,1.5,1.9-0.1c1.5-3.5,2.3-3.7,4.5-0.8
			C488.7,554.5,489.5,555,490.4,555.2z"/>
		<path id="XMLID_862_" class="st21" d="M596.3,587.5c-0.3-0.2-0.8-0.5-0.8-0.5c2.4-5-0.9-8.1-4-10.9c-7.2-6.4-17.2-4.1-23.3,1.5
			c-5.3,4.9-6.6,11.4-8.8,17.6c-0.4,1.1-0.7,2.2-1,3.3c-0.7,2.3-2.2,3.2-4.7,3.3c-5.2,0.3-10.5,0.6-15.7,1.5c-1.6,0.3-2.9,1.2-4,2.3
			c-5.4,5.2-10.4,10.7-14.6,17c-1.7,2.5-4,4.7-7.3,5.2c-2.2,0.4-4.3,1.5-6.2,2.6c-2.9-0.4-5.3,1.4-8.1,1.7c-2.4,0.3-4.8,0.4-7.2,0.6
			c-0.4-0.3-1.5-0.9-0.6-1c2.5-0.3,3.2-2.4,4.4-3.9c3.2-4.1,7.1-7.5,10.7-11.3c4.4-4.8,6.6-10.7,9.3-16.4c4-8.4,6.2-17.4,8-26.5
			c0.1-0.5,0.3-1,0.5-1.5c0.4-0.5,0.9-0.9,1.5-1c5.7-0.8,10.6-4.1,16.1-5.4c2-0.4,3.7-1.6,5.2-3c0.9-0.8,1.9-1.6,1.9-3
			c0-1.4,1-1.4,2-1.6c2.3-0.1,4.5,0.2,6.6,1.1c1.3,1,2.8,0.4,4.3,0.7c4.8,1,9.4,2.9,14.3,3.3c1.8,0.2,3.7,0.3,5.5,0.4
			c2.6,0.1,5.2,0.6,7.1,2.6c3.7,0.5,5.8,2.8,7.1,6.1c0.6,1.5,1.5,2.7,2.5,4C599.9,579.9,599.6,584,596.3,587.5z"/>
		<path id="XMLID_817_" class="st22" d="M762.4,618.7c1.6-9.7,3.8-19.2,6.6-28.6c3.9,2.3,6.4,6.2,10.1,8.9c2.4,1.7,5.2,3,7.3,5.1
			c2.8,2.8,4.2,6.1,4.8,10c1,6.5,3,12.6,7.4,17.7c1.6,1.9,2.7,4.1,3.6,6.4c1.2,3.2,2.8,6.1,5,8.6c1.4,1.7,3.4,1.8,5.5,1.6
			c2.3-0.2,2.9-1.7,3.3-3.4c0.4-1.5,0.9-3,1.3-4.5c0.2-0.6,0.5-1.2,1.3-0.7c0,0.2,0,0.4,0,0.6c-0.3,1.8-0.9,3.6-1.5,5.3
			c-5.2,9.2-10.2,18.7-19.1,25c-5.1,3.6-10.8,6.7-17.4,7.4c-1.1,0.1-1.2-0.8-1.6-1.5c-3.5-6.5-5.7-13.4-8.1-20.3
			c-2.5-7.1-3.5-14.3-3.3-21.8c0.1-2.5-0.7-4.8-1.9-7C764.2,624.7,762.4,622,762.4,618.7z"/>
		<path id="XMLID_816_" class="st23" d="M677.3,646.2c-6.5,2.3-13.2,2.3-20,2.1c-0.7,0-1.2-0.2-1.6-0.8c-2.6-3.3-6.2-4.3-10.2-4.5
			c-2.1-0.2-4.3-0.4-6.4-0.5c1.1-2.5,3.1-4.2,4.7-6.3c-0.1-1.1,0.6-1.8,1.3-2.5c6.9-7,9.9-15.6,10.3-25.3c0.1-2.4,0.4-4.7,0.7-7.1
			c0.9-6.9-0.2-13.7-1.5-20.4c-1.2-5.6-3-11.2-1.5-17.1c0.4-0.8,1.1-1.1,2-0.8c1,0.3,2.1,0.3,3.1,0.1c1.4-0.2,2.6,0.3,3.2,1.4
			c1.3,2.8,3.6,3.6,6.3,4c0.8,0.7,1.1,1.5,1.2,2.5c2.6,4.9,7.1,5.1,11.7,4.9c3.1-0.2,4.5,1,4,4.2c-0.1,0.8-0.5,1.4,0.7,1.5
			c1.2,2.1,1.1,4.4,1.3,6.6c0.4,5.8-0.4,11.5-1.6,17.2c-0.3,1.4-0.5,2.8-0.4,4.2c-0.7,2-0.8,4.1-1.2,6.2c-1.7,9.1-4,18-4.7,27.3
			C678.4,644.2,678.1,645.3,677.3,646.2z"/>
		<path id="XMLID_815_" class="st24" d="M549.2,558.8c-0.4,0.1-0.8,0.2-1.3,0.3c1.1,3.2-1.8,3.8-3.4,5.3c-0.6,0.5-1.3,1-2,1.2
			c-5.1,1.9-10.3,3.8-15.5,5.6c-1.4,0.5-2.9,0.6-4.3,0.9c0.3-2.2,0.7-4.3,1-6.5c0.4-3.2-0.5-6.3-1-9.4c3.6-0.6,7.5-1.2,10.4-3.2
			c2.5-1.7,5.3-3.5,7.2-6.2c0.4-0.6,0.4-1.3,0.4-2c0-0.4-0.1-1.2,0.5-0.8c2.2,1.2,1.9-0.8,2.1-1.7c0.4-2.9,1.4-5.6,2.4-8.3
			c2.5-6.5,3.7-13.3,4.8-20.1c1-5.7,1.8-11.6,1.3-17.5c-0.1-1.1-0.4-2.3-0.8-3.3c-0.6-1.2-1-2.5-0.5-3.8c0.3-0.9,0-1.2-0.6-1.7
			c-0.9-0.6-0.1-1,0.4-1.3c9.1,2.9,16,8.6,21.3,16.5c2,3,5,5.4,5.9,9.2c0.5,2,1,3.9,1.1,5.9c0.2,4.5,2.2,8.4,4,12.4
			c1.9,4.2,1.6,8.3-0.9,12.2c-0.3,1.8-1.4,3-2.6,4.1c-3.4,3.3-7.5,5.5-11.8,7.1c-4.5,1.7-8.7,0.7-12.9-1.1
			C552.2,554.4,551.3,557.1,549.2,558.8z"/>
		<path id="XMLID_814_" class="st25" d="M505.3,630.9c0,0.7-0.1,1.4-0.7,1.9c-2.8,2.3-3,5.2-2,8.5c0.7,2.2,1.1,4.4,1.7,6.6
			c0.8,2.9,1.9,3.6,4.8,2.7c3-0.9,6-2.2,9.1-2.3c4.3-0.2,8.6,0,12.8,0c1.1,0,2.4,0.2,2.3-1.6c0.7,0,1.2,0.2,1.4,0.9
			c1.7,4.1,3.5,8.2,4.9,12.4c1.7,5.5,4.8,10.2,9.3,13.8c4.7,3.8,4.8,14.2-1.1,18.2c-10,6.8-23,5-32.3-1.9c-4.1-3-6.7-6.9-7.5-11.6
			c-0.8-4.8-3.5-8.3-6.7-11.6c-4-4-5.5-8.5-4.1-14.1c1.3-5.1,1.3-10.4,3.2-15.3C501.5,634.9,502.6,632.4,505.3,630.9z"/>
		<path id="XMLID_813_" class="st26" d="M621.7,675.8c0.8,0.2,1.1-1.5,1.9-0.5c0.6,0.7-0.4,1.2-0.7,1.8c-0.8,1.5-2.4,3.1-1.1,4.7
			c1.3,1.6,3.3,0.8,5.1,0.2c3.2-1,5-3.7,7.5-5.6c1-0.4,1.7,0.2,2.4,0.6c1.1,0.6,2.2,1.2,3.1,2c4.9,4.5,10.9,6.2,17.3,6.9
			c4.7,0.5,9.4-0.2,14.1-0.7c2.3-0.3,2.7-1.4,2.1-3.8c-0.2-0.8-1.6-1.8,0.2-2.5c2.4-0.2,3.9,1.4,5.6,2.5c0.3,0.2,0.6,0.7,0.6,1.1
			c0.7,6-3.4,12.3-9.5,14.4c-2,0.7-4.2,1.3-6.4,1.1c-7-0.6-13.6,1.1-19.6,4.5c-5,2.9-10.5,3.6-16.1,3.9c-5.5,0.3-10.9,1.5-16.5,1.7
			c-6.8,0.3-12.8-2.2-18.4-5.5c-2.3-1.3-1.9-3.9-1.2-5.7c1.3-3.3,3.6-6,6.6-8.2C606,683.6,614.6,681,621.7,675.8z"/>
		<path id="XMLID_812_" class="st27" d="M572.3,624.1c12.2-4.7,20.2-13.2,23.4-26c0.7,5.5-0.5,10.8-1.2,16.2
			c-0.7,5.8,0,11.4,1.4,16.9c0.4,1.7,1.9,2.6,3.5,3.4c4.5,2.4,5.4,6,2.4,10.1c-1.6,2.2-0.2,4.2,0.1,6.3c0.3,2,1.2,3.8,1.3,5.9
			c-2.1,1.2-4.3,2.1-3.6,5.3c0.2,0.8-0.9,0.9-1.5,1.2c-2.4,1.7-2.2,5.2,0.3,6.6c0.2,0.1,0.2,0.2,0.4,0c0.3-0.3-0.2-1.5,0.8-0.8
			c0.3,0.2,0.2,1,0.3,1.5c-0.1,5.8-2.3,7.5-8.3,6.9c-1.8-0.2-3.4,0.7-5.3,0.7c-3.1,0.1-5.8-0.2-8.8-1.1c-3.7-1.1-5.1-2.6-3.8-6.1
			c0.8-2,1.2-4.2,1.1-6.2c-0.3-6.8,1.5-13.4,1.2-20.2c-0.1-1.9-0.2-3.9-0.8-5.7C573.6,634.1,573.4,629,572.3,624.1z"/>
		<path id="XMLID_811_" class="st28" d="M762.4,618.7c1.4,3.3,2.9,6.6,4.7,9.7c1.1,1.8,1.2,4,1.3,6.1c0.1,3.1,0.2,6.1,0.3,9.2
			c0.2,5.4,2.5,10.2,3.9,15.2c1.9,6.7,4.7,13.1,8,19.2c3.1,3.7,6,7.5,7.9,12c0.3,0.5,0.4,1.1,0.6,1.7c0.4,1.3-0.1,1.9-1.4,1.9
			c-3-0.1-5.9-0.2-9-1.3c-7.3-2.5-14.2-1.5-20,4.3c-2.1,2.1-2.1,2-3.1-0.8c-2-11.2-5.1-22.1-10.2-32.3c0.2-0.6-2.7-2.3,0.7-1.8
			c0.1,0,0.4-0.5,0.5-0.8c6-12.1,11.4-24.4,14.9-37.5c0.3-1.2,0.7-2.2,0.1-3.4C761.3,619.5,761.8,619.1,762.4,618.7z"/>
		<path id="XMLID_810_" class="st26" d="M755.7,696c1.2,0,0.4,1.4,1.2,1.7c3.2-3.2,6.5-6.4,11.2-6.9c4.5-0.4,9.1-0.9,13.3,1.9
			c2.2,1.4,4.5-0.4,6.9,0.3c0.8,0.2-0.3-1.9,0.2-2.9c3.2,4.5,5.8,9.5,8.4,14.4c2.3,4.5,5.3,8.6,6.1,13.8c0.2,1.4,0.7,2.7,0.7,4.1
			c0,1.7-0.7,2.9-2.7,2.6c-8.6-1-16.8,2.1-25.2,2.5c-3.7,0.2-7.4,0.7-11-0.5c-1.8-0.6-3-1.5-2.8-3.8c0.3-2.5-0.4-4.8-1.5-7.1
			c-2.3-5-2.5-10.4-3.7-15.7C756.4,699.1,755,697.7,755.7,696z"/>
		<path id="XMLID_809_" class="st25" d="M488.9,654.7c0.2-1.2-1.6-2-0.5-3.3c4.2,6.6,5.9,14.1,8.4,21.3c2.7,8,4.2,16.2,4.8,24.6
			c0.1,1,0.1,2.1,0,3.2c-0.3,2.2-1.6,2.9-3.9,2.6c-2.4-0.4-4.9-1.7-7.2,0.3c-2.3-2.5-4.5-5-6.8-7.5c-2.8-3.1-5.6-6.2-9.3-8.4
			c-6.4-3.8-11.8-8.7-16.6-14.3c-1.9-2.9-1.4-6.1-1.1-9.2c0.5-5.3,2.2-10.5,3-15.8c0.2-1.7,0.6-3.9,3.4-3.1
			c-1.5,3.2-0.7,6.5-0.1,9.8c0.5,2.6-0.7,5.2-0.4,7.9c0.1,1.4-0.1,2,1.9,1.3c3.4-1.3,7-2.3,10.5-3.6c1.9-0.7,3.9-0.7,5.7-0.1
			c2.4,0.8,4.9,0.6,7.3,1.2c1.6,0.4,2.5-0.4,2.1-2.3c-0.2-0.8-0.3-1.5-0.4-2.3C489.4,656.1,489.3,655.4,488.9,654.7z"/>
		<path id="XMLID_808_" class="st29" d="M655.1,581.1c1.4,1.9,1.2,4.2,1.4,6.3c1.4,11.1,0.1,22.1-2.3,32.9c-1.1,5.1-4.5,9.1-7.7,13
			c-0.8,1-1.8,1.9-2.6,2.9c-0.6-0.1-0.9-0.2-1-0.9c-0.5-6.4-1-12.7-1.6-19.1c-0.7-7-1.4-14.1-2.4-21.1c-0.3-2.4,0.1-4.6,0.4-6.8
			c0.5-4,0.2-8.1,0.5-12.1c0.2-1.4-0.4-2.8,0.4-4.1c0.3-0.5,0.6-0.9,1.2-0.8c0.5,0.1,0.8,0.5,0.8,0.9c0.1,1.7,1.4,2.3,2.6,2.9
			c2.8,1.5,5.5,3.2,8.5,4.3C654.1,579.9,654.6,580.4,655.1,581.1z"/>
		<path id="XMLID_807_" class="st30" d="M673.7,679c-0.9,1.2,0.6,1.9,0.8,2.9c0.4,2.6,0,3.6-2.6,4c-8.2,1.3-16.4,1.3-24.4-1.1
			c-2.3-0.7-4-2.4-6-3.8c-2.3-1.6-4.5-3.3-7-4.6c-0.1-0.5-1-1.5,0.1-1.3c2.3,0.4,3.5-1.3,4.7-2.4c4-4,9-4.2,14-3.5
			c4.2,0.6,8.4-0.1,12.6,0.9c1.1,0.3,2.3,0,3.4,0.4c0.5,0.2,1.2,0.4,1.6-0.4c0.2-0.4-0.1-1.3,0.7-1c0.7,0.2,0.4,1.1,0.5,1.7
			C672.3,673.5,672.9,676.2,673.7,679z"/>
		<path id="XMLID_164_" class="st22" d="M655.1,581.1c-4.3-1.5-8.1-4.1-12.2-5.9c-1.8-0.8-1.2-2.1-1.2-3.9c-1.1,1.5-1.8,2.6-1.2,3.9
			c0.4,0.8,0.2,1.1-0.7,1.2c-3.6-3.9-4.9-9.4-9.3-12.8c-1.5-1.1-0.7-2.3,0.2-3.4c2.5-2.9,4.6-6.1,6.6-9.3c1.7-1.6,3.8-1.3,5.6-0.5
			c2,0.9,1.7,2.8,1.4,4.6c0,0.1-0.1,0.2-0.1,0.3c-0.1,1.6-1,3.5,0.5,4.7c1.5,1.2,3.3,0.8,5-0.1c0.4-0.2,0.8-0.3,1.2,0.1
			c1,1.2,2.1,2.3,2.6,3.9C652.5,569.6,654.3,575.3,655.1,581.1z"/>
		<path id="XMLID_163_" class="st18" d="M553.9,552.1c0.2-0.4,0.2-1.4,0.8-0.8c4,3.8,8.6,3.2,13.1,1.5c4.2-1.6,8.2-3.9,11.4-7.3
			c0.8-0.9,2.2-1.6,1.5-3.3c-0.1-0.3,0.2-0.7,0.6-0.4c0.2,0.1,0.2,0.5,0.3,0.7c2.7,7.2,4.7,14.7,5.2,22.4c0,0.4,0.3,0.8,0.5,1.2
			c-0.1,0.5-0.6,1.3-0.7,0.9c-1-3.2-3.9-2.7-5.9-2.7c-6.1-0.1-11.9-1.4-17.7-3.1c-1.4-0.4-2.9-0.6-4.3-0.9c-0.3-0.1-0.7-0.3-1-0.2
			c-0.9,0.3-1.2,0.3-1.7-0.5C554.4,557.4,553.9,554.8,553.9,552.1z"/>
		<path id="XMLID_162_" class="st21" d="M430.8,550.4c0.6-0.3,1.1-1.1,1.9-0.5c0.7,0.7,0.2,1.4,0.1,2.1c-1.2,11.6-5.5,22.3-9.6,33
			c-1.2,3.2-3.5,6.1-3.3,9.9c0,0.4-0.6,0.1-0.9,0c-0.6-2.3-1.2-4.6-2-6.7c-1.3-3.6-0.8-6.9,1-10c4.3-7.3,6.7-15.5,10.2-23.1
			C429,553.4,430,551.9,430.8,550.4z"/>
		<path id="XMLID_161_" class="st31" d="M817,645.7c0-1.9,0.7-3.6,1.5-5.3C818.8,642.4,818.4,644.2,817,645.7z"/>
		<path id="XMLID_160_" class="st32" d="M620.2,492.1c0.5,0.1,1.3-0.2,1.3,0.4c-0.1,1.2-1.2,0.5-1.8,0.7
			C619.8,492.9,620,492.5,620.2,492.1z"/>
		<path id="XMLID_159_" class="st33" d="M476.6,718.2c-0.6-0.5-0.6-1.1-0.1-1.9c0.3,0.7,0.5,1.3,0.7,1.9
			C477,718.2,476.8,718.2,476.6,718.2z"/>
		<path id="XMLID_158_" class="st34" d="M653.4,563.7c-1.4-1-2.5-2.1-2.6-3.9c0.8-1.1,0.4-1.5-0.7-1.2c-0.6,0.1-1.1,0.6-1.7,0.8
			c-2.6,0.8-3.5,0.1-3.5-2.6c0-0.8,0-1.6,0-2.4c0.1-1.1,0.4-1.5,1.6-2.3c2.8-1.8,6.3-2.3,8.8-4.7c1-1,2.3-1.8,4-1.5
			c1.6,0.2,1.4-1.2,1.5-2.2c0.5-4.2-0.5-8.2-2.4-12c-1.2-2.4-0.4-3.4,1.8-4c2.5-0.7,4.8-1.6,7.1-2.8c4.8-2.6,9.1-1.4,13.1,1.8
			c3.3,2.6,5.6,6.1,9,8.5c0.5,0.4,0.8,0.9,1.3,1.3c0.9,0.6,1.8,1.8,3,1.3c1.3-0.5,0.5-2.2,0.9-2.9c1.5-2.7-0.6-3.4-2.1-4.6
			c-2.9-2.3-5.7-4.6-8.1-7.4c-3.1-3.6-1.7-7.5,1-10.4c3.2-3.4,4.5-3.4,8.8-1.2c0.9,0.4,1.8,0.7,2.8,0.7c2.5,0,4.8,0.5,7.1,1.5
			c8.1,3.5,10.3,2.2,12.5-4.7c1.2-0.2,1.3,1.1,2,1.5c1.4,5.4,1.1,10.9,0.7,16.4c-0.5,8.4-2.9,16.3-4.9,24.4
			c-0.7,3.1-2.2,5.9-3.5,8.7c-0.8,1.6-2.4,0.9-3.6,0.2c-2.4-1.5-4.6-3.2-7-4.7c-3.3-2.1-4.9-1.9-7,1.3c-2.3,3.6-4.4,7.4-6.7,11
			c-1.7,2.8-3.9,4.9-6.9,6.3c-2.8,1.3-5,1-7.3-0.9c-0.9-0.8-2.1-1.3-3.1-1.9c-0.8-0.5-1.1-1.3-1.6-2.1c-3,0.2-5.5-0.3-6.7-3.6
			c-0.4-1.2-1.6-2.1-3.2-1.3C656.4,564.7,654.9,563.7,653.4,563.7z"/>
		<path id="XMLID_157_" class="st22" d="M684.1,609.5c-0.5-1.1-0.5-1.9-0.2-3.2c1.6-6.6,2.5-13.4,1.7-20.2c-0.2-1.5-0.2-3-0.3-4.4
			c3.1,0.7,6.1,1.4,9.2,2.2c3.1,0.8,5.8,0.6,8.2-1.8c8-8.2,17.6-8.8,27.8-5.3c1,0.3,2,0.7,3,0.7c1.2,6.8-2.1,12.6-4.1,18.7
			c-2.9,8.9-5.1,18-5.4,27.4c0,1,0,2.1-0.1,3.1c-2,1.2-4.3,0.5-6.4,0.6c-1.1,0.1-2.3,0-3.7,0c2.3,2.6,3.6,5.6,5.4,8.3
			c0.5,0.8,1.2,1.6,0.6,2.6c-3.4,1.4-7,1.7-10.6,1.5c-2.2-1-3.8-2.9-5.3-4.7c-6.3-7.3-12.8-14.5-18.4-22.4
			C684.8,611.8,683.7,611,684.1,609.5z"/>
		<path id="XMLID_156_" class="st35" d="M718.5,510.2c-1.1,0.1-1.3-1-2-1.5c-0.1-0.7,0.2-1.1,0.9-1.1
			C717.9,508.4,718.6,509.2,718.5,510.2z"/>
		<path id="XMLID_155_" class="st36" d="M667.8,568.9c0.8,0.5,1.6,1,1.6,2.1c-0.2,0-0.4,0.1-0.6,0.1
			C668,570.7,667.5,570,667.8,568.9z"/>
		<path id="XMLID_153_" class="st28" d="M719.7,638.3c-2.5-3.8-3.8-8.4-8.2-11.6c4.4,0,8.3,0,12.3,0c-0.3,2.8-0.9,5.6-0.9,8.5
			C722.9,637.5,721.7,638.1,719.7,638.3z"/>
		<path id="XMLID_152_" class="st37" d="M472.8,521.3c0.2,1.5,0.6,3-0.6,4.4C471.5,524,472.1,522.6,472.8,521.3z"/>
		<path id="XMLID_151_" class="st38" d="M463.4,574.1c1.6,1.2,2.6,1.5,3.6-1c1.9-4.5,4.4-8.8,6.9-13c0.4-0.7,0.9-1.7,1.7-1.1
			c1.1,0.7-0.2,1.4-0.5,1.9c-2,3.4-3.5,6.9-4.5,10.8c-0.8,3.2,1.7,5.3,1.6,8.1c0,0.8,0.2,1.5,0.4,2.3c-4.6,5-8,10.7-9.3,17.4
			c-0.6,3.2-0.3,6.3-0.2,9.5c0.2,5.7,0.5,11.4,1,17.1c0.3,3.3,0.2,6.8,1.3,10c-0.9,0.6-1.7,0.2-2.5-0.2c-6-3.1-12.8-4.3-18.7-7.5
			c-2.3-1.2-4.9-1.9-6.1-4.6c-0.1-0.5-0.7-0.8-0.2-1.4c3.9-4.7,6.6-10.3,9.2-15.8C452.1,595.7,457.3,584.7,463.4,574.1z"/>
		<path id="XMLID_122_" class="st39" d="M432.8,552c-0.6-0.7,0-1.4-0.1-2.1c0.9-1,1.3-0.1,1.6,0.5C434,551.1,433.5,551.6,432.8,552z
			"/>
		<path id="XMLID_121_" class="st40" d="M488.9,654.7c0.5,0.6,1.4,1.2,0.5,2.2C488.6,656.3,488.9,655.5,488.9,654.7z"/>
	</g>
</g>
<g id="Layer_3">
	<g id="XMLID_51_">
		<path id="XMLID_2090_" class="st41" d="M567.5,305.2c1.9-17.6,10.6-32.6,19.4-47.3c7.6-12.6,19.4-18.6,34.2-18.3
			c2.7,0.1,5.1-0.5,7.7-1.2c9.3-2.4,17.7-0.9,24.6,6.4c0.5,0.6,1.3,1.1,2,1.3c8.7,2.9,13.4,9.9,18.1,17c2.3,3.4,4.9,6.6,7.7,9.7
			c6.2,7,8,15.6,9.4,24.5c0.9,6,1.5,12,3.3,17.8c0,7.5,0,14.9,0,22.4c-1.4,6-3.3,12-3.3,18.2c0,6.1-0.4,12.1-1.6,18.1
			c-0.6,2.7-1.6,5.1-5.2,4.7c-1.1-0.1-1.1,1.1-1.3,1.7c-0.8,2-1.8,4.1-2.1,6.2c-0.8,5.1-4.6,7.1-8.7,8.1c-1.2,0.3-2.3,0.8-3.5,1.1
			c-4.1,1.3-6.4-0.3-8.6-5.6c-2.5-2.5-2.6-5.7-2.6-8.9c0-6.4-0.9-12.7-2.4-18.9c-2.3-9.5-9-15-17-19.3c-3.2-1.7-6.8-0.6-10.2-0.6
			c-2.6-0.7-2.8-2.8-2.6-5c0.4-3.6,2-6.7,4.9-8.8c4.3-3.1,7.3-7.1,9.4-11.9c1.5-3.4,3.8-5.6,7.5-6.6c2.4-0.6,4.8-1.4,7-2.6
			c3-1.5,5-3.9,6-7.1c1.7-5.6-0.7-8.7-6.5-7.9c-3.4,0.5-4.9-0.6-5.4-3.9c-0.6-3.7-1.4-7.3-2-11c-0.7-3.7-2.5-6.1-6.3-6.7
			c-4.9-0.9-8.1-4-10.3-8.2c-3.1-5.9-7.5-8-14-6.5c-2.9,0.7-5.6,1-8.6,0.7c-3-0.4-5.3,0.9-7.1,3.4c-4.6,6.5-8.5,13.4-10.7,21
			c-1.8,6.2-2.2,12.9,1.4,18.9c3.4,5.6,3.4,11.2,0.6,17c-1.8,3.7-3.4,7.5-4.6,11.5c-1.9,0.9-3.5-0.3-5.1-0.9c-3-1.1-5.7-2.7-9.4-2.2
			c-3.3,0.4-5-2.9-5.4-5.8C565.3,314.8,564.7,309.8,567.5,305.2z"/>
		<path id="XMLID_2089_" class="st42" d="M573.4,170.7c3,3,0.5,6.1,0.1,9.6c1.4-0.3,2.8-2.3,4.2-0.7c1.3,1.5,0.9,3.6,0.5,5.2
			c-0.6,2.5-0.6,4.1,1.7,5.9c2.6,2.1,1.7,7-1.6,10.3c-4.4,4.4-9.1,8.4-12.8,13.5c-4.6,6.3-8.6,12.8-11.6,20
			c-5.2,12.8-12,24.8-18.9,36.7c-4,7-3.8,7.1,2,12.4c8.4,7.6,17,15,22.7,25c0.1,0.2,0.2,0.5,0.3,0.8c1.8,1.6,1.8,3.6,1.4,5.7
			c-0.6,3-1.4,5.9-3,8.5c-2,3.4-3.1,7-3.3,10.9c-0.2,4.4-0.5,4.5-4.5,2.9c-4.4-1.2-7.3-4.6-10.8-7.3c-1.3-1-2.5-2.1-3.8-3.1
			c-0.8-0.8-1.4-1.7-1.6-2.8c-2.1-14.4-7.4-27.9-12.6-41.4c-1.4-3.6-4.4-4.5-7.6-5.6c-2.5-0.8-5.7,0.2-7.4-2.8
			c3.1-12,9.1-22.5,16.3-32.5c5.8-7.9,11.8-15.5,17.9-23.2c6.5-8.2,8.4-18.2,9.8-28.3c0.5-4,1.7-7.7,3.3-11.3
			c0.6-1.3,1.3-2.5,2.9-2.6c1.9-0.1,1.9,1.7,2.4,2.9c1.1-1.9,1.2-4.8,3.6-5.1c1.6-0.2,1.5,2.2,2.3,3.8c1.1-3.1,3.7-4.9,5.3-7.4
			C571.7,170.7,572.5,170.7,573.4,170.7z"/>
		<path id="XMLID_2088_" class="st43" d="M506.9,274.5c3.5,0.8,6.9,1.6,10.4,2.5c2.5,0.7,4.4,2,5.5,4.6c5.1,12.6,9.3,25.6,12.7,38.8
			c0.6,2.2-0.9,4.8,1.4,6.5c3.2,8,7,15.8,9.5,24.1c1.3,4.3,0.4,5.7-3.6,7.1c-0.7-0.1-1.4-0.6-1.4-1.3c-0.3-4.3-2.9-4.3-6.3-4.1
			c-5.6,0.3-11.3,0.1-16.8,1.6c-0.5,0.1-1.1-0.2-1.3,0.6c1,0.1,1.3,0.7,1,1.6c-0.3,1.3-1.5,1.9-2.5,2.6c-3.2,2.1-4.7,4.9-4,8.8
			c0.2,1.1-0.1,2.3,0.2,3.3c2.8,9.6,0.6,18.9-1.3,28.2c-1.9,9.4-0.4,18.1,4.4,26.3c2.1,3.6,2.1,7.5,1.6,11.3
			c-1.3,9.9-1.7,19.8-1.6,29.7c0,2.3,0.1,4.9-3.3,5.2c-3-0.7-6-0.2-9,0.4c-10,2.1-19.7,1.2-29.2-2.4c-17.2-6.5-34.8-10.3-53.3-9.5
			c-1.3,0-2.5-0.3-3.7-0.5c-3.2-0.3-6.3-0.6-9.5-0.9c-3.8-0.4-4.9-1.9-4-5.8c1.1-5.2,2.7-10.4,3.2-15.7c1-10,4.1-19.3,8.6-28.2
			c0.8-1.5,0.9-3.4,1.1-5.2c2.1-13.1,5.2-26.2,4.1-39.7c-0.5-5.9,0.6-11.8,1.2-17.7c0.6-5.4-0.2-11.3-2.9-16.4
			c-3.7-7-6.2-14.5-7.1-22.3c-0.9-6.8,2.9-17.8,12.9-22.1c5.7-2.4,11.1-5.5,15.7-9.7c2.8,0.2,4.5,2.5,4.1,5.8
			c-0.2,1.6-0.9,3.2-1.1,4.8c-0.5,4,0.6,6.1,4.1,8.1c3.6,2.1,7.5,2.6,11.6,2.4c10-0.6,19.2-3.4,27.3-9.4c4.3-3.2,4.4-4.6,1.1-8.7
			c-1.3-1.6-2.4-3.4-3.6-5.1c-0.6-0.8-1.4-2,0.6-2.3C491.4,272.8,499.2,273.7,506.9,274.5z"/>
		<path id="XMLID_2086_" class="st44" d="M416.2,459.9c0.7-3.2,2.3-0.1,3.5-0.4c8.5-1.7,16.8,0.6,25.3,1.5
			c11.1,1.2,21.1,5.6,31.6,8.8c8.3,2.6,16.9,3.5,25.5,1.3c2.7-0.7,5.5-0.1,8.1-1.1c0.5-0.2,0.7,0.7,0.8,1.2
			c0.3,4.9-1.7,9.2-2.8,13.8c-0.2,0.2-0.3,0.3-0.5,0.5c-3.1,9.4-5.1,19.1-7.5,28.8c-2.7,11-4.3,22.2-8,33
			c-2.7,7.8-4.3,16.1-6.5,24.1c-2,7.3,0.2,14.2,3.6,20.6c5.3,10.2,8.5,20.8,7.7,32.4c-0.2,3.4,1,6.7,2.8,9.3
			c4.1,6,4.5,13.5,8.6,19.4c2.2,3.1-1.3,4.3-3.2,5.9c-1.1,3.6-3.8,5.4-7.2,5.9c-3.9,0.6-7.4,1.9-10.9,3.5c-2.9,1.3-6,3.1-9.3,0.7
			c-2.7-4.2-7.4-7.1-7.3-13.1c-2.4,4.4-2.9,9-4.6,13.3c-1.4,3.4-2.7,4.3-5.4,1.5c-4.7-0.1-8.7-2.6-13.1-3.8
			c-5.4-1.4-11.2-0.6-16.7-1.3c-0.9-0.3-0.9-1-0.7-1.7c3.2-11.8,3.9-24.4,10.4-35.3c1.6-2.6,2.1-5.9,2-9.2
			c-0.4-10.9,1.4-21.7,2.4-32.5c0.9-8.9-1.7-17.1-4-25.4c-3.2-11.7-3.8-24.2-8.9-35.3c-4.9-10.8-8.2-22.1-10.7-33.6
			c-0.7-3.3-1.3-6.8-1.2-10.2C420.2,474.7,418.4,467.2,416.2,459.9z"/>
		<path id="XMLID_2085_" class="st45" d="M639.1,507.1c-0.4,5.5-0.5,11.1-1.4,16.5c-1.3,8.2-6.2,14.8-11.6,20.8
			c-11.4,12.4-18.7,27-23.3,43.1c-1.7,6.1,1,11.5,2.3,17.2c0.2,0.8,0.6,1.6,0.6,2.4c0.8,18.7,8,35.1,17,51.2
			c8.2,14.7,14.7,30.2,13.8,47.7c-0.3,4.7,2.1,9,1.6,13.7c-1.2,2.6-3.7,3.4-6.2,3.4c-5.2,0-10.1,1.2-15,2.6c-4,1.1-4.8,0.5-6-3.4
			c-1.1-3.5-2.2-7.1-2.2-11c-1.6,2.1-3.8,2-5.9,2c-6.2,0.2-12.3-1.4-18.5-1.1c-2.5-0.6-3.5-2.2-3.3-4.8c0.7-11.6-2.3-22.8-4.4-34
			c-0.4-2.2-1.4-4.4-2.4-6.5c-3.3-6.8-4.6-14-4.7-21.4c-0.1-5.4-0.3-10.8,0-16.2c0.5-7.3-2.1-13.4-6.1-19.1
			c-3.6-5.1-6.1-10.5-7.6-16.6c-1.4-5.6,0.6-10.7,1.4-15.8c1.2-7.2-0.3-13.9-1.6-20.7c-1.9-10-4.9-19.8-6.1-30
			c-0.8-6.9,1.6-12.9,4.4-18.9c2.2-4.6,4.3-9.1,3.9-14.4c0.9-4.2,0.8-4,4.6-1.9c2.9,1.5,6.3,2,9.4,3c8.2,2.7,16.1,5.5,25.3,4.9
			c7.3-0.5,14.8,1.5,21.9,3.5c5.7,1.6,11.4,3.3,17.4,2.5C637.3,505.6,638.9,505.1,639.1,507.1z"/>
		<path id="XMLID_2084_" class="st46" d="M550.9,336.7c1.1-1.2,1.1-1.2,3.5,1.8c-1-7.5,2-13.2,4.8-19c1.5-3.2,2.5-6.7,1-10.3
			c2.1-2,4.6-3.1,7.2-4.1c-0.4,3.7-0.9,7.3-0.8,11c0.2,6.7,1.7,7.7,8.3,8.1c3.7,0.3,7.2,2.7,10.8,4.1c3,2.8,5.2,6.3,9,8.3
			c10.3,5.3,21,7.9,32.6,5.1c4-1.5,7.9-1.7,11.8,0.5c11.3,6.3,17.1,15.6,18.3,28.6c0.6,6.3-0.5,12.9,2.1,19
			c-1.2,1.3-0.7,2.9-0.8,4.3c-0.7,8.3-6.2,11.8-13.3,13.9c-2.3-1.4-0.5-2.9,0-4.2c1.4-4.3,2.9-8.4,0.3-13.1
			c-4.1-7.2-12-9.9-19.4-5.8c-7.5,4.1-11,10.6-11.1,19c-0.1,6.9-0.2,13.8,0,20.8c0.1,5.2-2.1,8.7-6.4,11.2
			c-10.8,6.4-21.4,13.2-32.5,19.1c-12.7,6.8-26.4,10.5-40.5,13.2c-1,0.2-1.9,0.2-2.7-0.6c-1-3.6,0.1-7.1,0.8-10.5
			c1.5-8.2,3-16.5,5.2-24.6c2.8-11.2,3.9-22.8,5.6-34.2c0.7-5,1-10.1,2.1-15.1c2.5-7.6,3.4-15.6,5.9-23.2c0.7-2.3-0.3-4.2-1.2-6.3
			C548.9,348.3,549.1,342.5,550.9,336.7z"/>
		<path id="XMLID_2082_" class="st47" d="M533.5,467.9c13-2.9,26.1-5.4,38.1-11.5c11.2-5.7,22-12,32.6-18.8c1.4-0.9,2.9-1.7,4.3-2.5
			c3.8-2.1,5.8-5.1,5.7-9.7c-0.2-6.8,0.1-13.6-0.1-20.3c-0.2-9.1,3.4-15.9,11.1-20.7c7.7-4.8,17.1-1.8,21.4,6
			c3.4,5.9,1.2,10.7-1.1,15.8c-0.3,0.8-1,1.3-0.1,2.1c-2.7,9.7-3.1,19.8-3.8,29.7c-0.3,4.9-1.9,8.4-6,10.9
			c-4.5,4.7-10.6,6.4-16.3,8.6c-18.7,7.2-37,15.2-55.4,23.1c-5.4,2.3-8.9,6.8-12.8,10.8c-4.3,5.2-9.8,8.7-16.1,11
			c-2.2,0.8-4.8,1.9-6.5-1.2c-0.5-0.9-1.4-0.7-2.2-0.7c-0.3,0-0.5,0.1-0.8,0.2c-4.3,1.8-5.2-4-7.5-3.9c-4.2,0.3-5.9-0.9-6.2-4.8
			c0-0.7-0.2-1.4-1.1-1.5c-3.8-0.1-2.9-2.8-3-5.1c0,0-0.1,0-0.1,0c0.7-2.1,1.8-4,3.5-5.5c2.3-2.1,4.4-4.1,5.7-7.4
			C518.6,468.1,527.8,465.8,533.5,467.9z"/>
		<path id="XMLID_2080_" class="st48" d="M483.7,272c0.1,1.4,2.4,5.6,4.7,7.6c3,2.6,2.5,5.6,0.2,7.5c-11,8.9-23.7,13.5-37.9,10.6
			c-9.1-1.8-11.1-6.1-8.2-14.7c1.1-3.4-0.4-5.1-2.8-6.7c-1.4-1.1-0.5-2.6-0.7-3.8c-0.1-0.8,0.1-1.9-1-2c-4.3-0.5-4.2-3.6-4-6.7
			c0.2-1.8-0.4-3.1-1.9-4.2c-2.9-2-4.2-5-3.9-8.5c0.3-3.3-0.4-6.5-1.6-9.6c-1.1-3,0.5-6.1-0.7-9.3c-1.1-3-0.8-6.5-1.1-9.8
			c-1.7-5.8-1-7,4.7-7.3c5.7-0.3,11.4,1.4,17.2,0.7c1.4-0.2,2.9-0.1,4.4-0.3c11.7-1,19.6,0.5,19.7,13.6c0,0.8,0,1.7,0.3,2.5
			c1.1,2.5,0.6,6.7,2.8,7.4c2.4,0.8,3.4-3.3,5.3-5c2.3-2.1,4.6-4.3,8-3.1c3.7,1.2,5.4,4.2,5.8,7.9c0.3,2.3,0.3,4.7-0.8,6.9
			c-2,3.6-4.6,6.6-7,9.9c-2.9,4-2.5,9.2-1.8,14.1C483.4,270.4,483.6,271.2,483.7,272z"/>
		<path id="XMLID_2078_" class="st49" d="M584.2,712.2c0.7-0.8,0.5-2.2,2.8-1.6c6.1,1.4,12.5,1.8,18.8,1.6c2.2-0.1,2.4-1.8,2.8-4.5
			c1.5,5.9,2,10.9,3.6,15.6c0.7,2,1.2,2.3,3.1,1.7c5.5-1.6,11.1-3.4,17-2.9c2.1,0.2,3.8-1.5,5.7-2.4c3.8,7,8.2,13.5,12.5,20.2
			c3.3,5.1,3.2,11.3,5.4,16.9c1,2.6,0.8,5-0.1,7.6c-0.7,2-1.8,3.3-3.5,4.3c-7.2,4.5-13.2,3.5-20.4-1.7c-5.3-3.8-9.7-8.1-12.7-13.8
			c-1.7-3.3-3-6.8-4-10.3c-0.7-2.3-3.2-3.2-3.3-6c-0.1-1.4-1.9,0-2.5,0.6c-3.7,3.7-8,6.9-10.4,11.7c-3.8,7.9-10.7,12.1-18.6,14.6
			c-7.7,2.4-16.5-4.7-16.8-13.3c-0.1-2.6,0.3-5.1,1.3-7.7c1.5-3.7,2.9-7.4,4.4-11.1c2.3-5.6,6-10.5,12.1-13
			C584,717.6,582.8,714.2,584.2,712.2z"/>
		<path id="XMLID_2076_" class="st50" d="M492.1,245.6c-0.7-1.9,0.1-3.7-0.1-5.6c-0.2-3.7-1.4-6.8-5.1-8.2c-3.4-1.3-5.4,1.3-7.4,3.3
			c-2.1,2.1-3.4,5-6.6,6.7c-1.3-4.5-3.6-8.7-3.4-13.4c0.2-3.4-1.3-6.1-2.7-9c-1.1-2.4-3.3-1.9-5.2-2.2c-4-0.7-8.1-2.9-12.1,0.3
			c-0.2,0.2-0.6,0.4-0.7,0.3c-3.6-2.8-7.5,0-11.1-0.7c-3.1-0.6-6.1-0.9-9.2-1c-4.5-0.3-4.3,1.5-3.5,4.4c0.2,0.8,0.2,1.3-0.5,1.8
			c-5-3.7-6.2-9.8-3.1-16.4c0.8-1.6,1.5-3.1,1.5-5c0-4.8,3.2-8.2,6.3-10.8c4.8-3.9,9.9-8,16.8-7.9c1.4,0,1.1-1.9,2.4-2.5
			c7.5-3.1,15-4.4,22.8-1.4c0.6,0.2,1.6,0.7,1.9,0.5c3.2-3.3,5.5,0,7.6,1.3c4.7,2.9,8.4,7.1,11.8,11.5c1,1.4,0.8,3.1,1.2,4.7
			c0.5,1.8-1.3,5.6,3.3,4.6c-0.4,3.1,4.1,2.8,4.1,5.8c0,4.4-0.5,8.9,1.6,13.2c0.8,1.7-1.5,3-1.7,4.9c-0.4,4.3-0.2,9-2.6,12.7
			C496.7,240.3,495.6,244,492.1,245.6z"/>
		<path id="XMLID_2074_" class="st51" d="M551.2,491.3c1.6-2.9,3.1-5.8,6-7.8c7.3-5,15.6-8,23.7-11.4c15.7-6.5,31.5-13,47.2-19.5
			c2.6-1.1,5.1-2.5,7.6-3.8c-0.4,7.8,0.7,15.3,2.8,22.8c3.1,11,2.1,22.4,2.1,33.7c0,1-0.6,1.5-1.5,1.7c-13.9,1-26.7-5.2-40.2-6.4
			c-0.4,0-0.8-0.3-1.2-0.2c-10.7,2.6-19.9-2.6-29.6-5.6c-1.5-0.5-3.2-0.7-4.7-1.1c-0.8-0.2-1.7-0.3-2.3-0.8
			c-2.2-1.6-2.2-1.6-3.4,0.8C556.1,491.3,553.4,492,551.2,491.3z"/>
		<path id="XMLID_2070_" class="st52" d="M430.6,665.7c0.9-0.1,0.8-1.6,1.9-1.3c7.1,1.9,15-0.6,21.7,4.2c1.1,0.8,3.3,2.1,5.3,0.3
			c0.9-0.8,1.1-0.5,1.1,1.8c-7.7,8.4-8.6,18.5-7.1,29.1c0.2,1.6,0.4,3.3,0.6,4.9c0.7,8.3,0,11.5-9.9,14.2c-8,2.2-15.8,1.7-22.4-5
			c-4-4.1-4.3-8.6-3.1-13.3c1.5-6,5-11.3,5-17.9c0-3.3,1.8-6.5,4.4-9C430.1,671.5,430.6,668.6,430.6,665.7z"/>
		<path id="XMLID_2069_" class="st52" d="M477.8,669c9.8-1.5,19.4-3.6,27.5-10c1.4,3.2,3.8,4.4,7.2,4.1c10.4-0.9,11.3,7.3,7.6,13.9
			c-2.7,4.9-5.9,9.6-4.8,15.6c0.2,1.2-0.3,2.1-1.2,2.9c-4.1,3.9-8.7,7-14.4,8.3c-3.2,0.7-9.1-2.9-10.9-7.6
			c-2.1-5.5-6.2-10.1-6.3-16.6C482.5,675.8,478.2,673.1,477.8,669z"/>
		<path id="XMLID_2065_" class="st53" d="M627.4,341.9c-4,3-8.8,3-13.2,2.2c-7.5-1.4-15.1-2.7-21.5-7.3c-3-2.2-6-4.4-6.9-8.3
			c-0.8-4.4,2-7.7,3.7-11.1c2.9-5.8,2.9-11-0.3-16.8c-4.1-7.2-3.6-15.1-0.4-22.6c2.7-6.5,6.1-12.6,9.9-18.5c2.2-3.4,5.1-4.2,8.8-3.5
			c1.3,0.2,3,0.8,4,0.2c4.1-2.3,8.3-0.6,12.5-0.7c2.2-0.1,3.6,0.9,4.4,3.1c0.5,1.5,1.3,3.1,2.1,4.5c2,3.4,4.3,6.3,8.7,6.8
			c4.5,0.5,7.1,3,7.5,7.8c0.4,4.1,1.7,8,2.3,12.1c0.3,2.1,1,2.7,2.9,2.1c3-1,6.4-1.5,8.3,1.4c2.3,3.3,1.3,7.1-0.6,10.5
			c-3,5.3-8.5,6.2-13.5,7.9c-2.8,0.9-4.4,2.2-5.5,4.9c-2.1,5-5,9.5-9.7,12.6c-2.7,1.7-4.3,4.4-4.9,7.4
			C625.6,338.3,624.9,340.6,627.4,341.9z"/>
		<path id="XMLID_2062_" class="st54" d="M540.1,433c-5.3-7-5.1-15.7-7.5-23.7c-4.9-16.2-10-32.3-14.8-48.5c-0.5-1.7-2-2-2.7-3.2
			c1.2-0.1,2.3-0.3,2.2-1.8c-0.1-0.9-1.3-0.3-2.4-0.5c4.1-3.5,8.6-3.1,12.9-3.5c3.4-0.3,6.8,0.2,10.2-0.5c2.1-0.4,3.5,0.5,3.9,3
			c0.2,1.1-1.1,2.5,0.6,3.3c0.5,8.8,1.6,17.5,5.1,25.7c-1.4,9.7-2.1,19.5-3.9,29.2C542.5,419.3,542.4,426.3,540.1,433z"/>
	</g>
</g>
</svg>
