<?xml version="1.0" encoding="utf-8"?>
<!-- Generator: Adobe Illustrator 27.0.0, SVG Export Plug-In . SVG Version: 6.00 Build 0)  -->
<svg version="1.1" id="Layer_1" xmlns="http://www.w3.org/2000/svg" xmlns:xlink="http://www.w3.org/1999/xlink" x="0px" y="0px"
	 viewBox="0 0 416.3 768" style="enable-background:new 0 0 416.3 768;" xml:space="preserve">
<style type="text/css">
	.st0{opacity:0.25;}
	.st1{clip-path:url(#SVGID_00000142878685429137466900000002099645744846901431_);}
	.st2{fill:#FFFFFF;}
	.st3{opacity:0.1;fill:#390052;stroke:#FFFFFF;stroke-miterlimit:10;enable-background:new    ;}
	.st4{opacity:0.1;fill:#FEE201;stroke:#FFFFFF;stroke-miterlimit:10;}
	.st5{fill:#A4DF53;stroke:#FFFFFF;stroke-miterlimit:10;}
	.st6{fill:#B1816E;}
	.st7{fill:#DDDAD7;}
	.st8{fill:#0A0A0A;}
	.st9{fill:#6D443C;}
	.st10{fill:#825044;}
	.st11{fill:#282828;}
	.st12{fill:#D3A190;}
	.st13{fill:#1B1E1F;}
	.st14{fill:#E5E2E1;}
	.st15{fill:#9E7364;}
	.st16{fill:#654437;}
	.st17{fill:#EF9369;}
	.st18{fill:#BEA093;}
	.st19{fill:#887C80;}
	.st20{fill:#483940;}
	.st21{fill:#DDD3C9;}
	.st22{fill:#EF9469;}
	.st23{fill:#87492E;}
	.st24{fill:#483830;}
	.st25{fill:#523933;}
	.st26{fill:#DCD2C8;}
	.st27{fill:#3E2D2E;}
	.st28{fill:#EF9368;}
	.st29{fill:#88492E;}
</style>
<g id="Layer_1_00000064332795385367215990000006408753576020418214_">
	<g class="st0">
		<g>
			<defs>
				<rect id="SVGID_1_" x="0.1" y="1.5" width="204.3" height="392"/>
			</defs>
			<clipPath id="SVGID_00000169524347991901387990000001004312113978560956_">
				<use xlink:href="#SVGID_1_"  style="overflow:visible;"/>
			</clipPath>
			<g style="clip-path:url(#SVGID_00000169524347991901387990000001004312113978560956_);">
				<g>
					<path class="st2" d="M1.2,173.7c8.1,0,14.7,6.6,14.7,14.7S9.3,203,1.2,203s-14.7-6.6-14.7-14.7S-6.9,173.7,1.2,173.7
						 M1.2,172.7c-8.6,0-15.7,7-15.7,15.7c0,8.6,7,15.7,15.7,15.7s15.7-7,15.7-15.7S9.9,172.7,1.2,172.7L1.2,172.7z"/>
				</g>
				<g>
					<path class="st2" d="M1.2,157.1c17.3,0,31.3,14,31.3,31.3s-14,31.3-31.3,31.3s-31.3-14-31.3-31.3S-16,157.1,1.2,157.1
						 M1.2,156.1c-17.8,0-32.3,14.5-32.3,32.3s14.5,32.3,32.3,32.3s32.3-14.5,32.3-32.3S19.1,156.1,1.2,156.1L1.2,156.1z"/>
				</g>
				<g>
					<path class="st2" d="M1.2,140.4c26.4,0,47.9,21.5,47.9,47.9s-21.5,47.9-47.9,47.9s-47.9-21.5-47.9-47.9S-25.2,140.4,1.2,140.4
						 M1.2,139.4c-27,0-48.9,21.9-48.9,48.9s21.9,48.9,48.9,48.9s48.9-21.9,48.9-48.9S28.2,139.4,1.2,139.4L1.2,139.4z"/>
				</g>
				<g>
					<path class="st2" d="M1.2,123.8c35.6,0,64.6,29,64.6,64.6S36.8,253,1.2,253s-64.6-29-64.6-64.6S-34.4,123.8,1.2,123.8
						 M1.2,122.8c-36.2,0-65.6,29.4-65.6,65.6S-35,254,1.2,254s65.6-29.4,65.6-65.6S37.4,122.8,1.2,122.8L1.2,122.8z"/>
				</g>
				<g>
					<path class="st2" d="M1.2,107.2c44.8,0,81.2,36.4,81.2,81.2S46,269.5,1.2,269.5S-80,233.1-80,188.3S-43.5,107.2,1.2,107.2
						 M1.2,106.2c-45.4,0-82.2,36.8-82.2,82.2s36.8,82.2,82.2,82.2s82.2-36.8,82.2-82.2S46.6,106.2,1.2,106.2L1.2,106.2z"/>
				</g>
				<g>
					<path class="st2" d="M1.2,90.5c53.9,0,97.8,43.9,97.8,97.8s-43.9,97.8-97.8,97.8s-97.8-43.9-97.8-97.8S-52.7,90.5,1.2,90.5
						 M1.2,89.5c-54.6,0-98.8,44.2-98.8,98.8s44.2,98.8,98.8,98.8s98.8-44.2,98.8-98.8S55.8,89.5,1.2,89.5L1.2,89.5z"/>
				</g>
				<g>
					<path class="st2" d="M1.2,73.9c30.6,0,59.3,11.9,80.9,33.5s33.5,50.4,33.5,80.9s-11.9,59.3-33.5,80.9s-50.4,33.5-80.9,33.5
						s-59.3-11.9-80.9-33.5s-33.5-50.4-33.5-80.9s11.9-59.3,33.5-80.9S-29.3,73.9,1.2,73.9 M1.2,72.9
						c-63.8,0-115.5,51.7-115.5,115.5S-62.5,303.8,1.2,303.8s115.5-51.7,115.5-115.5S65,72.9,1.2,72.9L1.2,72.9z"/>
				</g>
				<g>
					<path class="st2" d="M1.2,57.3c35,0,67.9,13.6,92.7,38.4s38.4,57.7,38.4,92.7s-13.6,67.9-38.4,92.7s-57.7,38.4-92.7,38.4
						s-67.9-13.6-92.7-38.4s-38.4-57.7-38.4-92.7s13.6-67.9,38.4-92.7S-33.8,57.3,1.2,57.3 M1.2,56.3c-73,0-132.1,59.1-132.1,132.1
						s59.2,132,132.1,132s132.1-59.1,132.1-132.1S74.2,56.3,1.2,56.3L1.2,56.3z"/>
				</g>
				<g>
					<path class="st2" d="M1.2,40.6c39.5,0,76.6,15.4,104.5,43.3s43.3,65,43.3,104.5s-15.4,76.6-43.3,104.5s-65,43.3-104.5,43.3
						s-76.6-15.4-104.5-43.3s-43.3-65-43.3-104.5s15.4-76.6,43.3-104.5C-75.3,56-38.2,40.6,1.2,40.6 M1.2,39.6
						c-82.1,0-148.7,66.6-148.7,148.7S-80.9,337.1,1.2,337.1S150,270.5,150,188.3S83.4,39.6,1.2,39.6L1.2,39.6z"/>
				</g>
			</g>
		</g>
	</g>
	<g>
		<path class="st3" d="M213.2,95.8c-111,0-200.9,90-200.9,200.9s90,200.9,200.9,200.9s200.9-90,200.9-200.9S324.2,95.8,213.2,95.8z
			 M213.2,363c-36.6,0-66.3-29.7-66.3-66.3s29.7-66.3,66.3-66.3s66.3,29.7,66.3,66.3S249.8,363,213.2,363z"/>
		<path class="st3" d="M213.2,118.2c-98.6,0-178.5,79.9-178.5,178.5s79.9,178.5,178.5,178.5s178.5-79.9,178.5-178.5
			S311.8,118.2,213.2,118.2z M213.2,363c-36.6,0-66.3-29.7-66.3-66.3s29.7-66.3,66.3-66.3s66.3,29.7,66.3,66.3S249.8,363,213.2,363z
			"/>
		<path class="st3" d="M213.2,140.7c-86.2,0-156,69.9-156,156s69.9,156,156,156s156-69.9,156-156S299.4,140.7,213.2,140.7z
			 M213.2,363c-36.6,0-66.3-29.7-66.3-66.3s29.7-66.3,66.3-66.3s66.3,29.7,66.3,66.3S249.8,363,213.2,363z"/>
	</g>
	<circle class="st4" cx="213.2" cy="296.7" r="66.3"/>
	<circle class="st4" cx="213.2" cy="296.7" r="43.9"/>
	<circle class="st4" cx="213.2" cy="296.7" r="21.4"/>
	<path class="st5" d="M213.2,163.1c-73.8,0-133.6,59.8-133.6,133.6s59.8,133.6,133.6,133.6s133.6-59.8,133.6-133.6
		S287,163.1,213.2,163.1z M213.2,363c-36.6,0-66.3-29.7-66.3-66.3s29.7-66.3,66.3-66.3s66.3,29.7,66.3,66.3S249.8,363,213.2,363z"/>
</g>
<g id="Layer_3">
	<path class="st5" d="M213.2,185.5c-61.4,0-111.2,49.8-111.2,111.2s49.8,111.2,111.2,111.2s111.2-49.8,111.2-111.2
		S274.6,185.5,213.2,185.5z M213.2,385.4c-49,0-88.7-39.7-88.7-88.7s39.7-88.7,88.7-88.7s88.7,39.7,88.7,88.7
		S262.2,385.4,213.2,385.4z"/>
</g>
<g id="Layer_4">
	<g id="_x32_">
		<path id="_x31__17_" class="st6" d="M119.9,369.8c0,0,3.2,13.3-2.2,20.9c-5.4,7.6-6.3,24.7-6.3,24.7l20.7,69.1L130,506
			c0,0,39.6,4.7,54.2,0.7s17.2-12.4,17.2-12.4L180,444.1l-11.5-50.3c0,0-18,3.2-19.2,3s-3.1-5.5-3.1-5.5l-16.5-21L119.9,369.8z"/>
		<g id="_x32__14_">
			<g id="_x31__15_">
				<path id="_x31__16_" class="st7" d="M119.4,400.1c-0.4-0.6-5.3-6.9-5.3-6.9s-18,14.8-20.7,22c-1.5,4.1,2.3,25.8,2.3,25.8
					l34.3,42.8l-2.8,11.8c0,0,20.7,8.1,38.3,6.4s34.5-10.3,34.5-10.3l-16.7-45.9l-14.8-52l-20.9,0.8c0,0,0.7,15.7-4.4,17.8
					s-12.1-1.5-12.1-1.5L119.4,400.1z"/>
				<path id="_x32__17_" class="st7" d="M168.6,393.8c1.2,0.1,23.9,13.8,32.5,20.9s16.2,14.5,16.2,14.5l23.4-23.6l11.5,5.9
					c0,0-18,42.3-25.5,45.3c-7.4,3-26.8-4.1-35.1-10c-8.3-5.9-21.1-22.4-21.1-22.4L168.6,393.8z"/>
			</g>
			<g id="_x32__15_">
				<polygon id="_x31__14_" class="st2" points="147.6,394.7 143.8,411.2 147.6,418.2 152.5,404 				"/>
				<path id="_x32__16_" class="st2" d="M116.6,387.4c0.2,0.7,6.4,15.2,13.1,19.6s9.7,5.5,10,5.6s-7.1,8.1-7.1,8.1
					s-6.5-10.5-10.5-12.5c-3.9-2-12.7-4.2-12.7-4.2L116.6,387.4z"/>
			</g>
		</g>
		<g id="_x33__4_">
			<g id="_x31__10_">
				<g id="_x31__12_">
					<path id="_x31__13_" class="st6" d="M171.5,688.9c-1.7,2.7-10.1,16.7-10.1,16.7s3.5,9.4,8.1,13.8c4.6,4.4,4.6,4.4,4.6,4.4
						s-2.7,4.6-10.5,2.2c-7.8-2.4-21.8-12.6-21.8-12.6s3.2-8.1,3.4-9.1s5.9-19.9,5.9-19.9L171.5,688.9z"/>
					<path id="_x32__13_" class="st8" d="M141.8,711c0,0,11.2,9.5,16.1,11.7s8.2,1.6,10.2,1.1c2-0.4,2.6-3.2,2.6-3.2
						s12,6.8,13.9,8.9c1.9,2.1,1.9,5.2,1.9,5.2s-3,2.8-8.2,2.5s-24.8-8.7-24.8-8.7s-7.6,1.3-11.7,0.1s-4.8-5.8-4.2-7.9
						S141.8,711,141.8,711z"/>
				</g>
				<g id="_x32__11_">
					<path id="_x31__11_" class="st8" d="M72.4,721.4c0,0-2,10.6-4.3,13.7c-2.4,3.1-5.3,2-8,3.8s-14.5,9.9-19.4,12.9
						s-12.6,1.9-14.9-0.5c-2.4-2.4-0.1-11,7.4-16.9s15.7-9.1,15.7-9.1L72.4,721.4z"/>
					<path id="_x32__12_" class="st6" d="M69,685.7c0,0-9.6,27.7-10.1,28.2c-0.3,0.3-5.8,6.7-10,11.6l0,0l0,0
						c-0.6,0.7-1.2,1.3-1.7,1.9c-0.6,1-0.9,2.3,0.3,3.5c2.3,2.5,9.7,3,12,2.4s9-4.3,10.1-5.7c2.4-2.9,4.2-10.8,4.2-10.8l12-22.4
						L69,685.7z"/>
				</g>
			</g>
			<path id="_x32__10_" class="st8" d="M130.1,483.8c1.9,0.8,34.2,0.3,44.1-1.2c9.9-1.6,19.3-9.2,19.3-9.2s15.3,31.9,18.3,61.1
				c3,29.2-14.2,99.8-14.2,99.8l-26.5,60.9l-23.2-5.8c0,0,4.9-37.3,8.3-44.5c3.4-7.2,11.7-18.4,11.7-18.4l-3.1-73.5
				c0,0-28,62.5-31.5,70.1s-18.6,26.1-18.6,26.1l-26.8,52.2L65,691.5c0,0,16.4-50.4,26.8-69.2s16.2-34.8,16.2-34.8s7-61.2,11-74
				C122.9,500.6,130.1,483.8,130.1,483.8z"/>
		</g>
		<g id="_x34__2_">
			<g id="_x31__3_">
				<g id="_x31__8_">
					<path id="_x31__9_" class="st9" d="M149,392.5c1.9-5.5,5.6-9.6,14.3-9.4s8.4,0.9,11.4,0.5s6-2.3,6-2.3s1.9,7.4,11.3,5.8
						c9.4-1.6,8.2-6.7,8.2-6.7s3.3,0.3,5.2,0s7.3-4.8,16.5-3.4c9.3,1.4,14.2,5.1,14.3,11.9c0.1,6.7,0.9,13-8.9,15.8
						c-9.8,2.8-13.4,2-15.9,3.1s-3,1.7-3,1.7s-1.1-5.3-9.8-3.9s-11,9-11,9s-2.6-0.5-4.6,0.5c-1.9,1-5.7,7.4-17.5,6.6
						s-16.5-9.5-17.5-14.1S147.1,398,149,392.5z"/>
					<path id="_x32__9_" class="st10" d="M149,385.9c1.9-5.5,5.6-9.6,14.3-9.4s8.4,0.9,11.4,0.5s6-2.3,6-2.3s1.9,7.4,11.3,5.8
						c9.4-1.6,8.2-6.7,8.2-6.7s3.3,0.3,5.2,0s7.3-4.8,16.5-3.4c9.3,1.4,14.2,5.1,14.3,11.9c0.1,6.7,0.9,13-8.9,15.8
						c-9.8,2.8-13.4,2-15.9,3.1s-3,1.7-3,1.7s-1.1-5.3-9.8-3.9s-11,9-11,9s-2.6-0.5-4.6,0.5c-1.9,1-5.7,7.4-17.5,6.6
						S149,405.6,148,401S147.1,391.4,149,385.9z"/>
				</g>
				<g id="_x32__7_">
					<path id="_x31__7_" class="st11" d="M147.5,392.7c0.5,0.1,26.4-7.2,26.4-7.2l2.3,7.7l-27.6,5.1L147.5,392.7z"/>
					<path id="_x32__8_" class="st11" d="M196.6,381l1.7,7.4c0,0,36.3-4.9,44.1-5.6c7.8-0.7,27.1-0.1,27.1-0.1v-5.9
						c0,0-20.5-0.6-29.3,0C231.2,377.4,196.6,381,196.6,381z"/>
				</g>
				<g id="_x33__2_">
					<g id="_x31__5_">
						<path id="_x31__6_" class="st11" d="M280.3,379.1c0-0.3,2.7-3.6,1.3-5.1c-1.4-1.5-5.1-1.6-5.3-0.5c-0.2,1.1,1,4.9,1,4.9
							L280.3,379.1z"/>
						<path id="_x32__6_" class="st11" d="M272.8,377.4c0.1-0.5-0.8-7.7-1.8-7.6s-3,2.8-2.6,3.6c0.3,0.9,3.8,4,3.8,4H272.8z"/>
					</g>
					<path id="_x32__5_" class="st10" d="M285.6,378.6c0,0-1.5-3.1,1-4.3c2.5-1.2,6.2-1.1,7,0s2.3,6,2.3,6s-1,5-4.7,5.5
						s-10.4-1.3-13.4-1.9s-8.3-1.2-8.3-1.2v-5.9c0,0,5.5-0.8,9.2,0.4s7,3.8,7,3.8L285.6,378.6z"/>
					<g id="_x33__3_">
						<path id="_x31__4_" class="st11" d="M280.9,383.9c0,0,2.4,4,1.1,4.5c-1.3,0.4-5.5-0.8-5.3-1.7c0.2-0.8,0-4.3,0.5-4.3
							S280.9,383.9,280.9,383.9z"/>
						<path id="_x32__4_" class="st11" d="M288.1,384.1c0,0,1.8,2.7,0.8,4.4c-0.9,1.7-4.6,2.2-5,1.3c-0.4-0.8,0-5.7,0-5.7
							L288.1,384.1L288.1,384.1z"/>
					</g>
				</g>
			</g>
			<path id="_x32__3_" class="st6" d="M251.6,411.2c0.4-0.4,6.2-12.1,10.4-18c4.2-5.9,8.9-15,6.4-17.3s-6.5-1.8-6.5-1.8
				s-0.5-3.8-2.2-2.9c-1.6,0.9-2.5,2.4-2.5,2.4s-1.7,1.8-3.1,2.3c-1.5,0.5-5.5,1.5-5.8,2.6s-3.4,0.4-3,2.2c0.3,1.8,4.8,6.4,4.8,6.4
				s-3.7,7.1-4.9,10.3c-1.2,3.3-3,8.8-3,8.8L251.6,411.2z"/>
		</g>
		<g id="_x35__1_">
			<g id="_x31__2_">
				<g>
					<polygon class="st12" points="203.2,448.3 181.9,322.3 182.6,322.2 203.9,448.1 					"/>
				</g>
				<g>
					
						<rect x="194" y="320.1" transform="matrix(0.9869 -0.1616 0.1616 0.9869 -59.3977 36.5112)" class="st13" width="1.5" height="126.6"/>
				</g>
				<rect x="202" y="445.1" transform="matrix(0.9818 -0.19 0.19 0.9818 -81.4222 47.017)" class="st13" width="5" height="6.1"/>
				
					<rect x="181.2" y="320.4" transform="matrix(0.9818 -0.19 0.19 0.9818 -58.1184 40.8036)" class="st13" width="5.1" height="6.2"/>
			</g>
			<g id="_x32__2_">
				<path class="st6" d="M163.6,435.7c3.7-2.4,16.3-8.9,16.3-8.9s13-9.3,15.7-8.6s9.8,4.4,10.2,5s0.5,2,0.5,2s4.2,3.3,4.5,4.4
					s-0.6,2.6-0.6,2.6s-6.7-0.8-6.5-0.3c0.3,0.4,6.4,7.3,6.6,8.7s-1.1,3.1-2.2,2.4c-1.1-0.8-5.6-5.6-5.6-5.6s-5.9,1.4-11.5,2.6
					s-13.7,1.7-13.7,1.7l-9.5,4.3L163.6,435.7z"/>
				<path class="st14" d="M88.9,431.7c-0.8,12.6,5.5,43.1,11.4,49.2s16.8,12.9,22.3,10.7c18.4-7.6,54.6-43.5,54.6-43.5l-6.6-17.3
					l-45.8,23.8l-3.5-19.2c0,0-2.9-17.8-6-21.2c-3-3.5-11.9-6.4-16.7-3.5C93.6,413.4,89.7,419.1,88.9,431.7z"/>
			</g>
		</g>
		<g id="_x36__1_">
			<path id="_x31__1_" class="st15" d="M143.2,391c-1.7-1.1-9.4-8-13.3-11.7c0.4,4.2,3.3,7.9,6.8,11.1c5.4,5,10.5,5.9,10.5,5.9
				l1.3-2.6C147.6,393.8,147.5,393.8,143.2,391z"/>
			<path id="_x32__1_" class="st6" d="M153.3,337.5c0,0,5.4,7.6,5.6,12.8s0,8.9,0,8.9s4.9,7.8,4.4,10.3s-3.5,3-3.5,3l-0.2,3.5
				l-1.9,3.1c0,0,1.3,2.4,1,3.5c-0.3,1-0.9,2.4-0.9,2.4s0.9,5.6-0.3,6.4s-9,3.4-11.2,2.3c-14.6-7.7-17.8-15.8-17.8-15.8l-4.2-24.2
				L153.3,337.5z"/>
			<path id="_x33__1_" class="st8" d="M148,341.8c0,0-3,11.3-4.6,12s-5.4,1.7-6.9,3.5s-3.2,5.4-4.9,6.7s-3.9,1.8-3.9,1.8l-5.8,10.8
				l-2.2,13.8c0,0-7.8,11.8-11.4,12s-11.2,0.4-11.3-5.2c-0.1-5.6,0.8-11.9,0.8-11.9s-6-5.6-3.4-9.2c2.6-3.5,5.1-3.9,5.1-3.9
				s1-4,2.6-4.5s3.5,0,3.5,0s-9.1-20.7,0.7-29.7c9.8-8.9,25.7-12.1,37.7-6.4c12,5.6,11.2,8.8,11.2,8.8L148,341.8z"/>
			<path id="_x34__1_" class="st6" d="M127.6,365.6c-0.3-0.2-4-4.2-6.3-3.3c-2.4,0.8-4.9,6-3,8.9c1.9,3,3.7,3.7,5.1,4.9
				c1.3,1.2,5.4,1.9,6.2,0.7C130.4,375.6,127.6,365.6,127.6,365.6z"/>
		</g>
	</g>
	<g id="XMLID_51_">
		<path id="XMLID_2090_" class="st16" d="M338,492.3c1.1-9.9,6-18.3,11-26.6c4.3-7.1,10.9-10.5,19.3-10.3c1.5,0,2.9-0.3,4.3-0.7
			c5.3-1.3,10-0.5,13.8,3.6c0.3,0.3,0.7,0.6,1.1,0.7c4.9,1.6,7.5,5.6,10.2,9.6c1.3,1.9,2.8,3.7,4.3,5.5c3.5,4,4.5,8.8,5.3,13.8
			c0.5,3.4,0.8,6.8,1.9,10c0,4.2,0,8.4,0,12.6c-0.8,3.4-1.8,6.7-1.9,10.3c0,3.4-0.2,6.8-0.9,10.2c-0.3,1.5-0.9,2.9-2.9,2.6
			c-0.6-0.1-0.6,0.6-0.7,0.9c-0.5,1.1-1,2.3-1.2,3.5c-0.4,2.9-2.6,4-4.9,4.6c-0.7,0.2-1.3,0.4-1.9,0.6c-2.3,0.7-3.6-0.2-4.8-3.2
			c-1.4-1.4-1.4-3.2-1.5-5c0-3.6-0.5-7.1-1.4-10.6c-1.3-5.3-5.1-8.4-9.6-10.9c-1.8-1-3.8-0.3-5.8-0.3c-1.5-0.4-1.6-1.6-1.4-2.8
			c0.2-2,1.1-3.8,2.8-5c2.4-1.8,4.1-4,5.3-6.7c0.8-1.9,2.1-3.2,4.2-3.7c1.3-0.4,2.7-0.8,3.9-1.4c1.7-0.9,2.8-2.2,3.4-4
			c1-3.2-0.4-4.9-3.7-4.4c-1.9,0.3-2.8-0.4-3-2.2c-0.3-2.1-0.8-4.1-1.1-6.2c-0.4-2.1-1.4-3.4-3.5-3.8c-2.8-0.5-4.5-2.2-5.8-4.6
			c-1.8-3.3-4.2-4.5-7.9-3.7c-1.6,0.4-3.2,0.6-4.8,0.4c-1.7-0.2-3,0.5-4,1.9c-2.6,3.7-4.8,7.6-6.1,11.8c-1,3.5-1.2,7.3,0.8,10.7
			c1.9,3.2,1.9,6.3,0.3,9.6c-1,2.1-1.9,4.2-2.6,6.5c-1.1,0.5-2-0.2-2.9-0.5c-1.7-0.6-3.2-1.5-5.3-1.3c-1.9,0.2-2.8-1.6-3.1-3.3
			C336.8,497.7,336.4,494.9,338,492.3z"/>
		<path id="XMLID_2089_" class="st17" d="M341.3,416.5c1.7,1.7,0.3,3.4,0.1,5.4c0.8-0.2,1.6-1.3,2.4-0.4s0.5,2,0.3,2.9
			c-0.3,1.4-0.4,2.3,1,3.3c1.5,1.2,1,3.9-0.9,5.8c-2.5,2.5-5.1,4.8-7.2,7.6c-2.6,3.5-4.8,7.2-6.5,11.2c-3,7.2-6.7,14-10.6,20.7
			c-2.3,3.9-2.1,4,1.1,7c4.7,4.3,9.6,8.4,12.8,14.1c0.1,0.1,0.1,0.3,0.2,0.4c1,0.9,1,2,0.8,3.2c-0.3,1.7-0.8,3.3-1.7,4.8
			c-1.1,1.9-1.8,3.9-1.9,6.2c-0.1,2.5-0.3,2.5-2.5,1.6c-2.5-0.7-4.1-2.6-6.1-4.1c-0.7-0.6-1.4-1.2-2.2-1.7c-0.5-0.4-0.8-0.9-0.9-1.6
			c-1.2-8.1-4.1-15.7-7.1-23.3c-0.8-2-2.5-2.5-4.3-3.2c-1.4-0.5-3.2,0.1-4.2-1.6c1.7-6.8,5.1-12.7,9.2-18.3
			c3.2-4.4,6.7-8.7,10.1-13.1c3.7-4.6,4.7-10.3,5.5-16c0.3-2.2,1-4.3,1.9-6.4c0.3-0.7,0.7-1.4,1.6-1.5c1.1,0,1.1,0.9,1.4,1.6
			c0.6-1,0.7-2.7,2.1-2.9c0.9-0.1,0.8,1.3,1.3,2.1c0.6-1.8,2.1-2.8,3-4.2C340.4,416.5,340.8,416.5,341.3,416.5z"/>
		<path id="XMLID_2088_" class="st18" d="M303.8,475c1.9,0.5,3.9,0.9,5.8,1.4c1.4,0.4,2.5,1.1,3.1,2.6c2.9,7.1,5.2,14.4,7.2,21.9
			c0.3,1.2-0.5,2.7,0.8,3.6c1.8,4.5,3.9,8.9,5.4,13.5c0.7,2.4,0.2,3.2-2,4c-0.4-0.1-0.8-0.3-0.8-0.7c-0.1-2.4-1.6-2.4-3.6-2.3
			c-3.2,0.2-6.3,0-9.4,0.9c-0.3,0.1-0.6-0.1-0.8,0.3c0.5,0.1,0.7,0.4,0.6,0.9c-0.2,0.7-0.8,1.1-1.4,1.4c-1.8,1.2-2.7,2.8-2.3,5
			c0.1,0.6-0.1,1.3,0.1,1.9c1.6,5.4,0.3,10.7-0.7,15.9c-1.1,5.3-0.2,10.2,2.5,14.8c1.2,2,1.2,4.2,0.9,6.4c-0.7,5.6-1,11.1-0.9,16.8
			c0,1.3,0,2.8-1.9,3c-1.7-0.4-3.4-0.1-5.1,0.2c-5.6,1.2-11.1,0.7-16.5-1.3c-9.7-3.6-19.6-5.8-30-5.4c-0.7,0-1.4-0.2-2.1-0.3
			c-1.8-0.2-3.6-0.3-5.3-0.5c-2.1-0.2-2.7-1.1-2.3-3.3c0.6-2.9,1.5-5.9,1.8-8.8c0.6-5.7,2.3-10.9,4.9-15.9c0.4-0.9,0.5-1.9,0.6-2.9
			c1.2-7.4,2.9-14.7,2.3-22.3c-0.3-3.3,0.3-6.6,0.7-9.9c0.3-3.1-0.1-6.3-1.6-9.3c-2.1-3.9-3.5-8.2-4-12.5c-0.5-3.8,1.6-10,7.3-12.4
			c3.2-1.4,6.2-3.1,8.8-5.4c1.6,0.1,2.5,1.4,2.3,3.3c-0.1,0.9-0.5,1.8-0.6,2.7c-0.3,2.3,0.3,3.4,2.3,4.6s4.2,1.5,6.5,1.4
			c5.6-0.3,10.8-1.9,15.4-5.3c2.4-1.8,2.5-2.6,0.6-4.9c-0.7-0.9-1.3-1.9-2-2.9c-0.3-0.4-0.8-1.1,0.3-1.3
			C295.1,474,299.5,474.5,303.8,475z"/>
		<path id="XMLID_2086_" class="st19" d="M252.8,579.4c0.4-1.8,1.3-0.1,1.9-0.2c4.8-0.9,9.5,0.3,14.2,0.8c6.2,0.7,11.9,3.1,17.8,5
			c4.7,1.4,9.5,2,14.4,0.7c1.5-0.4,3.1,0,4.6-0.6c0.3-0.1,0.4,0.4,0.5,0.7c0.2,2.7-0.9,5.2-1.6,7.8c-0.1,0.1-0.2,0.2-0.3,0.3
			c-1.8,5.3-2.9,10.8-4.2,16.2c-1.5,6.2-2.4,12.5-4.5,18.6c-1.5,4.4-2.4,9-3.7,13.6c-1.1,4.1,0.1,8,2,11.6c3,5.7,4.8,11.7,4.3,18.2
			c-0.1,1.9,0.6,3.8,1.6,5.3c2.3,3.4,2.5,7.6,4.9,10.9c1.2,1.8-0.7,2.4-1.8,3.3c-0.6,2-2.1,3-4.1,3.3c-2.2,0.3-4.2,1.1-6.2,1.9
			c-1.7,0.7-3.4,1.7-5.2,0.4c-1.5-2.3-4.1-4-4.1-7.4c-1.3,2.5-1.7,5.1-2.6,7.5c-0.8,1.9-1.5,2.4-3.1,0.8c-2.7-0.1-4.9-1.5-7.4-2.1
			c-3.1-0.8-6.3-0.3-9.4-0.7c-0.5-0.2-0.5-0.6-0.4-0.9c1.8-6.7,2.2-13.7,5.8-19.9c0.9-1.5,1.2-3.3,1.1-5.2
			c-0.2-6.2,0.8-12.2,1.4-18.3c0.5-5-1-9.6-2.3-14.3c-1.8-6.6-2.1-13.6-5-19.9c-2.8-6.1-4.6-12.4-6-18.9c-0.4-1.9-0.7-3.8-0.7-5.8
			C255,587.7,254,583.6,252.8,579.4z"/>
		<path id="XMLID_2085_" class="st20" d="M378.3,606c-0.2,3.1-0.3,6.2-0.8,9.3c-0.8,4.6-3.5,8.3-6.6,11.7
			c-6.4,7-10.6,15.2-13.1,24.3c-1,3.4,0.6,6.5,1.3,9.7c0.1,0.4,0.3,0.9,0.4,1.3c0.5,10.5,4.5,19.8,9.6,28.8c4.6,8.3,8.3,17,7.8,26.9
			c-0.1,2.6,1.2,5.1,0.9,7.7c-0.7,1.5-2.1,1.9-3.5,1.9c-2.9,0-5.7,0.7-8.5,1.5c-2.2,0.6-2.7,0.3-3.4-1.9c-0.6-2-1.2-4-1.2-6.2
			c-0.9,1.2-2.1,1.1-3.3,1.1c-3.5,0.1-6.9-0.8-10.4-0.6c-1.4-0.3-2-1.2-1.9-2.7c0.4-6.5-1.3-12.8-2.5-19.2c-0.2-1.3-0.8-2.5-1.4-3.7
			c-1.9-3.8-2.6-7.9-2.7-12.1c-0.1-3-0.2-6.1,0-9.1c0.3-4.1-1.2-7.5-3.5-10.8c-2-2.8-3.4-5.9-4.3-9.4c-0.8-3.1,0.3-6,0.8-8.9
			c0.7-4.1-0.2-7.8-0.9-11.7c-1.1-5.6-2.7-11.2-3.4-16.9c-0.5-3.9,0.9-7.3,2.5-10.6c1.2-2.6,2.4-5.1,2.2-8.1
			c0.5-2.3,0.4-2.2,2.6-1.1c1.6,0.9,3.5,1.1,5.3,1.7c4.6,1.5,9.1,3.1,14.2,2.7c4.1-0.3,8.3,0.8,12.4,2c3.2,0.9,6.4,1.8,9.8,1.4
			C377.3,605.2,378.2,604.9,378.3,606z"/>
		<path id="XMLID_2084_" class="st21" d="M328.6,510c0.6-0.7,0.6-0.7,2,1c-0.5-4.2,1.1-7.4,2.7-10.7c0.9-1.8,1.4-3.8,0.6-5.8
			c1.2-1.1,2.6-1.8,4.1-2.3c-0.2,2.1-0.5,4.1-0.4,6.2c0.1,3.8,0.9,4.3,4.7,4.6c2.1,0.1,4,1.5,6.1,2.3c1.7,1.6,2.9,3.6,5.1,4.7
			c5.8,3,11.9,4.5,18.4,2.9c2.3-0.8,4.5-0.9,6.7,0.3c6.3,3.5,9.6,8.8,10.3,16.1c0.3,3.6-0.3,7.3,1.2,10.7c-0.7,0.7-0.4,1.6-0.5,2.4
			c-0.4,4.7-3.5,6.7-7.5,7.8c-1.3-0.8-0.3-1.6,0-2.4c0.8-2.4,1.7-4.7,0.2-7.4c-2.3-4.1-6.7-5.6-10.9-3.3c-4.2,2.3-6.2,6-6.3,10.7
			c0,3.9-0.1,7.8,0,11.7c0.1,2.9-1.2,4.9-3.6,6.3c-6.1,3.6-12.1,7.4-18.3,10.8c-7.2,3.8-14.9,5.9-22.8,7.5c-0.5,0.1-1.1,0.1-1.5-0.4
			c-0.6-2,0.1-4,0.4-5.9c0.9-4.6,1.7-9.3,3-13.8c1.6-6.3,2.2-12.8,3.1-19.3c0.4-2.8,0.6-5.7,1.2-8.5c1.4-4.3,1.9-8.8,3.3-13.1
			c0.4-1.3-0.2-2.4-0.7-3.5C327.5,516.6,327.6,513.3,328.6,510z"/>
		<path id="XMLID_2082_" class="st22" d="M318.8,583.9c7.3-1.6,14.7-3,21.4-6.5c6.3-3.2,12.4-6.7,18.4-10.6c0.8-0.5,1.6-0.9,2.4-1.4
			c2.1-1.2,3.3-2.9,3.2-5.5c-0.1-3.8,0.1-7.6,0-11.5c-0.1-5.1,1.9-8.9,6.3-11.6c4.3-2.7,9.6-1,12.1,3.4c1.9,3.3,0.7,6-0.6,8.9
			c-0.2,0.4-0.6,0.7-0.1,1.2c-1.5,5.5-1.8,11.1-2.1,16.7c-0.2,2.8-1.1,4.7-3.4,6.1c-2.5,2.7-6,3.6-9.2,4.8
			c-10.5,4.1-20.9,8.5-31.2,13c-3,1.3-5,3.8-7.2,6.1c-2.4,2.9-5.5,4.9-9.1,6.2c-1.2,0.5-2.7,1.1-3.7-0.7c-0.3-0.5-0.8-0.4-1.2-0.4
			c-0.2,0-0.3,0.1-0.4,0.1c-2.4,1-2.9-2.3-4.2-2.2c-2.4,0.1-3.3-0.5-3.5-2.7c0-0.4-0.1-0.8-0.6-0.8c-2.1,0-1.6-1.6-1.7-2.9l0,0
			c0.4-1.2,1-2.2,2-3.1c1.3-1.2,2.5-2.3,3.2-4.1C310.5,584,315.6,582.8,318.8,583.9z"/>
		<path id="XMLID_2080_" class="st23" d="M290.8,473.6c0.1,0.8,1.4,3.1,2.7,4.3c1.7,1.5,1.4,3.1,0.1,4.2c-6.2,5-13.3,7.6-21.4,6
			c-5.1-1-6.2-3.4-4.6-8.3c0.6-1.9-0.2-2.9-1.6-3.8c-0.8-0.6-0.3-1.4-0.4-2.2c-0.1-0.4,0.1-1-0.6-1.1c-2.4-0.3-2.4-2-2.2-3.8
			c0.1-1-0.2-1.8-1.1-2.4c-1.7-1.1-2.4-2.8-2.2-4.8c0.1-1.9-0.2-3.7-0.9-5.4c-0.6-1.7,0.3-3.4-0.4-5.3c-0.6-1.7-0.4-3.7-0.6-5.5
			c-1-3.2-0.6-3.9,2.7-4.1c3.2-0.2,6.4,0.8,9.7,0.4c0.8-0.1,1.7-0.1,2.5-0.1c6.6-0.6,11,0.3,11.1,7.6c0,0.5,0,1,0.2,1.4
			c0.6,1.4,0.3,3.8,1.6,4.2c1.3,0.5,1.9-1.9,3-2.8c1.3-1.2,2.6-2.4,4.5-1.7c2.1,0.7,3,2.3,3.3,4.4c0.2,1.3,0.1,2.6-0.5,3.9
			c-1.1,2-2.6,3.7-3.9,5.6c-1.6,2.2-1.4,5.2-1,8C290.6,472.7,290.7,473.1,290.8,473.6z"/>
		<path id="XMLID_2078_" class="st24" d="M347.4,721.5c0.4-0.5,0.3-1.2,1.6-0.9c3.4,0.8,7,1,10.6,0.9c1.2,0,1.4-1,1.6-2.5
			c0.8,3.3,1.1,6.1,2.1,8.8c0.4,1.1,0.7,1.3,1.8,1c3.1-0.9,6.2-1.9,9.6-1.6c1.2,0.1,2.1-0.9,3.2-1.3c2.1,3.9,4.6,7.6,7,11.4
			c1.8,2.9,1.8,6.4,3,9.5c0.6,1.5,0.5,2.8-0.1,4.3c-0.4,1.1-1,1.9-2,2.4c-4,2.5-7.5,1.9-11.5-0.9c-3-2.1-5.5-4.5-7.1-7.8
			c-0.9-1.8-1.7-3.8-2.3-5.8c-0.4-1.3-1.8-1.8-1.9-3.4c-0.1-0.8-1.1,0-1.4,0.3c-2.1,2.1-4.5,3.9-5.8,6.6c-2.2,4.5-6,6.8-10.5,8.2
			c-4.3,1.4-9.3-2.6-9.5-7.5c-0.1-1.5,0.1-2.9,0.7-4.3c0.8-2.1,1.6-4.2,2.5-6.2c1.3-3.2,3.4-5.9,6.8-7.3
			C347.3,724.6,346.6,722.7,347.4,721.5z"/>
		<path id="XMLID_2076_" class="st25" d="M295.5,458.7c-0.4-1,0-2.1,0-3.2c-0.1-2.1-0.8-3.8-2.9-4.6c-1.9-0.8-3,0.7-4.1,1.9
			c-1.2,1.2-1.9,2.8-3.7,3.8c-0.7-2.6-2.1-4.9-1.9-7.5c0.1-1.9-0.7-3.4-1.5-5.1c-0.6-1.3-1.9-1.1-3-1.2c-2.3-0.4-4.6-1.6-6.8,0.2
			c-0.1,0.1-0.4,0.2-0.4,0.2c-2-1.6-4.2,0-6.3-0.4c-1.7-0.3-3.4-0.5-5.2-0.6c-2.5-0.1-2.4,0.8-2,2.5c0.1,0.4,0.1,0.7-0.3,1
			c-2.8-2.1-3.5-5.5-1.7-9.2c0.4-0.9,0.8-1.8,0.9-2.8c0-2.7,1.8-4.6,3.6-6.1c2.7-2.2,5.6-4.5,9.5-4.4c0.8,0,0.6-1.1,1.4-1.4
			c4.2-1.7,8.4-2.5,12.8-0.8c0.3,0.1,0.9,0.4,1,0.3c1.8-1.9,3.1,0,4.3,0.7c2.7,1.6,4.8,4,6.6,6.5c0.6,0.8,0.4,1.8,0.7,2.6
			c0.3,1-0.8,3.2,1.8,2.6c-0.2,1.8,2.3,1.6,2.3,3.3c0,2.5-0.3,5,0.9,7.4c0.5,1-0.8,1.7-0.9,2.7c-0.2,2.4-0.1,5.1-1.4,7.1
			C298.1,455.7,297.5,457.8,295.5,458.7z"/>
		<path id="XMLID_2074_" class="st26" d="M328.8,597.1c0.9-1.6,1.7-3.3,3.4-4.4c4.1-2.8,8.8-4.5,13.4-6.4c8.9-3.7,17.7-7.3,26.6-11
			c1.5-0.6,2.9-1.4,4.3-2.1c-0.2,4.4,0.4,8.6,1.6,12.9c1.7,6.2,1.2,12.6,1.2,19c0,0.6-0.3,0.8-0.8,0.9c-7.8,0.6-15-3-22.7-3.6
			c-0.2,0-0.5-0.1-0.7-0.1c-6,1.5-11.2-1.5-16.7-3.2c-0.9-0.3-1.8-0.4-2.7-0.6c-0.4-0.1-0.9-0.2-1.3-0.4c-1.3-0.9-1.2-0.9-1.9,0.5
			C331.5,597.1,330,597.5,328.8,597.1z"/>
		<path id="XMLID_2070_" class="st27" d="M260.8,695.3c0.5-0.1,0.5-0.9,1-0.7c4,1.1,8.5-0.4,12.2,2.4c0.6,0.5,1.8,1.2,3,0.2
			c0.5-0.4,0.6-0.3,0.6,1c-4.3,4.7-4.8,10.4-4,16.4c0.1,0.9,0.2,1.8,0.3,2.8c0.4,4.7,0,6.5-5.6,8c-4.5,1.2-8.9,1-12.6-2.8
			c-2.2-2.3-2.4-4.8-1.7-7.5c0.8-3.4,2.8-6.4,2.8-10.1c0-1.8,1-3.7,2.5-5.1C260.6,698.6,260.9,697,260.8,695.3z"/>
		<path id="XMLID_2069_" class="st27" d="M287.4,697.2c5.5-0.8,10.9-2,15.5-5.6c0.8,1.8,2.1,2.5,4.1,2.3c5.9-0.5,6.4,4.1,4.3,7.8
			c-1.5,2.7-3.3,5.4-2.7,8.8c0.1,0.7-0.2,1.2-0.7,1.6c-2.3,2.2-4.9,4-8.1,4.7c-1.8,0.4-5.1-1.6-6.1-4.3c-1.2-3.1-3.5-5.7-3.6-9.4
			C290.1,701.1,287.6,699.5,287.4,697.2z"/>
		<path id="XMLID_2065_" class="st28" d="M371.7,513c-2.3,1.7-5,1.7-7.4,1.2c-4.2-0.8-8.5-1.5-12.1-4.1c-1.7-1.2-3.4-2.5-3.9-4.7
			c-0.5-2.5,1.1-4.3,2.1-6.3c1.6-3.3,1.7-6.2-0.2-9.4c-2.3-4.1-2-8.5-0.2-12.7c1.5-3.7,3.4-7.1,5.6-10.4c1.2-1.9,2.9-2.4,5-2
			c0.8,0.1,1.7,0.4,2.3,0.1c2.3-1.3,4.7-0.3,7-0.4c1.2,0,2,0.5,2.5,1.7c0.3,0.9,0.7,1.7,1.2,2.5c1.1,1.9,2.4,3.5,4.9,3.8
			s4,1.7,4.2,4.4c0.2,2.3,1,4.5,1.3,6.8c0.2,1.2,0.6,1.5,1.6,1.2c1.7-0.5,3.6-0.8,4.7,0.8c1.3,1.9,0.8,4-0.3,5.9
			c-1.7,3-4.8,3.5-7.6,4.4c-1.6,0.5-2.5,1.3-3.1,2.8c-1.2,2.8-2.8,5.4-5.5,7.1c-1.5,1-2.4,2.5-2.7,4.2
			C370.7,510.9,370.3,512.2,371.7,513z"/>
		<path id="XMLID_2062_" class="st29" d="M322.6,564.3c-3-3.9-2.9-8.9-4.2-13.3c-2.8-9.1-5.6-18.2-8.3-27.3c-0.3-1-1.1-1.1-1.5-1.8
			c0.6-0.1,1.3-0.2,1.2-1c0-0.5-0.7-0.2-1.3-0.3c2.3-1.9,4.9-1.7,7.3-2c1.9-0.2,3.8,0.1,5.8-0.3c1.2-0.2,2,0.3,2.2,1.7
			c0.1,0.6-0.6,1.4,0.3,1.8c0.3,5,0.9,9.9,2.9,14.5c-0.8,5.5-1.2,11-2.2,16.5C323.9,556.6,323.9,560.5,322.6,564.3z"/>
	</g>
</g>
</svg>
