<?xml version="1.0" encoding="UTF-8"?><svg id="a" xmlns="http://www.w3.org/2000/svg" xmlns:xlink="http://www.w3.org/1999/xlink" viewBox="0 0 414.51 763.7"><defs><style>.bb{fill:none;}.bc{fill:#fff;}.bd{fill:#e6dcda;}.be{fill:#6b7265;}.bf{fill:#ba4f4f;}.bg{fill:#8c6d64;}.bh{fill:#cc9a56;}.bi{fill:#dbb9ac;}.bj{fill:#221f23;}.bk{fill:#181e1c;}.bl{fill:#383f3c;}.bm{fill:#3c4e4e;}.bn{fill:#604a45;}.bo{fill:#a4df53;}.bo,.bp{opacity:.1;}.bo,.bp,.bq{stroke:#fff;stroke-miterlimit:10;}.bp{fill:#390052;}.bq{fill:#fee201;}.br{opacity:.25;}.bs{clip-path:url(#b);}</style><clipPath id="b"><rect class="bb" width="204.34" height="392.01"/></clipPath></defs><g class="br"><g class="bs"><g><path class="bc" d="M1.11,172.17c8.08,0,14.66,6.58,14.66,14.66s-6.58,14.66-14.66,14.66-14.66-6.58-14.66-14.66,6.58-14.66,14.66-14.66m0-1c-8.65,0-15.66,7.01-15.66,15.66s7.01,15.66,15.66,15.66,15.66-7.01,15.66-15.66-7.01-15.66-15.66-15.66h0Z"/><path class="bc" d="M1.11,155.53c17.25,0,31.29,14.04,31.29,31.29s-14.04,31.29-31.29,31.29-31.29-14.04-31.29-31.29,14.04-31.29,31.29-31.29m0-1c-17.83,0-32.29,14.46-32.29,32.29S-16.72,219.12,1.11,219.12s32.29-14.46,32.29-32.29S18.95,154.53,1.11,154.53h0Z"/><path class="bc" d="M1.11,138.9c26.43,0,47.93,21.5,47.93,47.93S27.54,234.75,1.11,234.75s-47.93-21.5-47.93-47.93S-25.31,138.9,1.11,138.9m0-1c-27.02,0-48.93,21.9-48.93,48.93S-25.91,235.75,1.11,235.75s48.93-21.9,48.93-48.93S28.13,137.9,1.11,137.9h0Z"/><path class="bc" d="M1.11,122.27c35.6,0,64.56,28.96,64.56,64.56S36.71,251.38,1.11,251.38s-64.56-28.96-64.56-64.56S-34.49,122.27,1.11,122.27m0-1c-36.21,0-65.56,29.35-65.56,65.56S-35.1,252.38,1.11,252.38s65.56-29.35,65.56-65.56S37.32,121.27,1.11,121.27h0Z"/><path class="bc" d="M1.11,105.63c44.77,0,81.19,36.42,81.19,81.19S45.88,268.02,1.11,268.02s-81.19-36.42-81.19-81.19S-43.66,105.63,1.11,105.63m0-1c-45.39,0-82.19,36.8-82.19,82.19S-44.28,269.02,1.11,269.02s82.19-36.8,82.19-82.19S46.5,104.63,1.11,104.63h0Z"/><path class="bc" d="M1.11,89c53.94,0,97.83,43.88,97.83,97.83S55.05,284.65,1.11,284.65s-97.83-43.88-97.83-97.83S-52.83,89,1.11,89m0-1c-54.58,0-98.83,44.25-98.83,98.83S-53.47,285.65,1.11,285.65s98.83-44.25,98.83-98.83S55.69,88,1.11,88h0Z"/><path class="bc" d="M1.11,72.36c30.57,0,59.32,11.91,80.93,33.52,21.62,21.62,33.52,50.36,33.52,80.93s-11.91,59.32-33.52,80.93c-21.62,21.62-50.36,33.52-80.93,33.52s-59.32-11.91-80.93-33.52c-21.62-21.62-33.52-50.36-33.52-80.93s11.91-59.32,33.52-80.93C-58.2,84.27-29.46,72.36,1.11,72.36m0-1c-63.77,0-115.46,51.69-115.46,115.46S-62.65,302.28,1.11,302.28s115.46-51.69,115.46-115.46S64.88,71.36,1.11,71.36h0Z"/><path class="bc" d="M1.11,55.73c35.02,0,67.94,13.64,92.7,38.4,24.76,24.76,38.4,57.68,38.4,92.7s-13.64,67.94-38.4,92.7S36.13,317.92,1.11,317.92s-67.94-13.64-92.7-38.4-38.4-57.68-38.4-92.7,13.64-67.94,38.4-92.7C-66.82,69.37-33.9,55.73,1.11,55.73m0-1c-72.95,0-132.09,59.14-132.09,132.09S-71.84,318.92,1.11,318.92s132.09-59.14,132.09-132.09S74.06,54.73,1.11,54.73h0Z"/><path class="bc" d="M1.11,39.1c39.46,0,76.56,15.37,104.46,43.27,27.9,27.9,43.27,65,43.27,104.46s-15.37,76.56-43.27,104.46c-27.9,27.9-65,43.27-104.46,43.27s-76.56-15.37-104.46-43.27c-27.9-27.9-43.27-65-43.27-104.46s15.37-76.56,43.27-104.46C-75.44,54.46-38.35,39.1,1.11,39.1m0-1c-82.14,0-148.73,66.59-148.73,148.73S-81.03,335.55,1.11,335.55s148.73-66.59,148.73-148.73S83.25,38.1,1.11,38.1h0Z"/></g></g></g><g><circle class="bp" cx="213.1" cy="295.18" r="200.91"/><circle class="bp" cx="213.1" cy="295.18" r="178.48"/><circle class="bp" cx="213.1" cy="295.18" r="156.04"/><circle class="bo" cx="213.1" cy="295.18" r="133.61"/><circle class="bo" cx="213.1" cy="295.18" r="111.17"/><circle class="bo" cx="213.1" cy="295.18" r="88.74"/><circle class="bq" cx="213.1" cy="295.18" r="66.3"/><circle class="bq" cx="213.1" cy="295.18" r="43.87"/><circle class="bq" cx="213.1" cy="295.18" r="21.43"/></g><g id="c"><g id="d"><g id="e"><g id="f"><rect id="g" x="241.28" y="421.12" width=".7" height="5.42"/><path id="h" class="bj" d="M244.86,419.43h-6.27v1.69h1.91v1.52h2.31v-1.52h2.06v-1.69Z"/></g><g id="i"><rect id="j" x="203.68" y="421.12" width=".7" height="5.42"/><path id="k" class="bj" d="M207.25,419.43h-6.27v1.69h1.91v1.52h2.31v-1.52h2.06v-1.69Z"/></g><g id="l"><rect id="m" x="163.78" y="554.27" width="8.04" height="1.4" transform="translate(-57.87 20.91) rotate(-6.08)"/><path id="n" class="bj" d="M160.8,550.89s.92,8.66,.99,9.26l2.49-.27-.3-2.81,2.25-.24-.36-3.41-2.25,.24-.32-3.04-2.49,.27Z"/></g></g><g id="o"><g id="p"><rect id="q" class="bg" x="157.03" y="690.08" width="100.6" height="8.02" transform="translate(-102.93 39.5) rotate(-8.73)"/><polygon id="r" class="bg" points="199.98 755.09 140.34 701.87 140.34 696.05 154.91 692.89 214.55 746.11 214.55 751.93 199.98 755.09"/><polygon id="s" class="bg" points="297.12 733.48 239.49 682.51 239.49 676.69 254.06 673.53 311.69 724.5 311.69 730.32 297.12 733.48"/><rect id="t" class="bg" x="191.08" y="724.8" width="105.6" height="8.02" transform="translate(-107.77 45.45) rotate(-8.73)"/></g><g id="u"><path id="v" class="bg" d="M171.29,528.25l1.41,44.57s102.96-5.8,102.56-6.62c-.4-.82-3.05-41.58-3.05-41.58l-100.92,3.63Z"/><path id="w" class="bn" d="M167.21,531.44l-.2-2.55-.76-3.79c.35-.07,10.55-.25,105.89-2.83l.17,6.42c-25.79,.7-102.55,2.55-105.11,2.75Z"/><path id="x" class="bg" d="M164.61,470.7c.4-.03,.65-.09,.75-.1l-2.67-13.37c.74-.15,12.58-.31,108.23-2.9l.17,13.63c-36.87,1-103.57,2.55-106.47,2.74Z"/></g><g id="y"><polygon id="z" class="bn" points="159.34 708.14 152.64 703.6 169.6 567.44 178.34 568.69 176.73 600.21 163.42 707.37 159.34 708.14"/><polygon id="aa" class="bg" points="170.29 429.42 163.88 429.79 160.8 433.35 177.31 719.24 180.73 722.64 187.14 722.27 170.29 429.42"/></g><g id="ab"><polygon id="ac" class="bn" points="265.22 695.15 257.05 689.19 269.07 556.38 277.8 557.63 277.8 603.66 268.93 694.1 265.22 695.15"/><polygon id="ad" class="bg" points="270.91 429.42 264.5 429.79 261.42 433.35 277.94 705.68 281.35 709.08 287.76 708.71 270.91 429.42"/></g></g><g id="ae"><path class="bd" d="M258.28,427.94s-76.75,.07-77.36-.43l-1.91,1.43,5.82,95.68,2.09,.05,76.86-1.84-5.5-94.89Z"/><g><path class="bm" d="M190.44,452.66s6.84,4.97,10.12,5.9c3.28,.92,3.72-.16,6.62,2.86s2.83,7.53,7.34,10.41c4.51,2.88,14.95,5.57,19.72,9.47,4.77,3.89,10.74,10.74,10.74,10.74l13.52,8.93s-2.93,.39-2.74,.8,1.6,2.97,1.6,2.97l-2.04,.83-5.86-1.72s-6.87-4.17-15.07-4.98c-8.2-.81-12.45,2.85-12.45,2.85l-2.39-.39s1.57-1.85,.31-2.9-9.32-3.06-12.71-6.39c-3.39-3.34-7.05-10-7.05-15.52,0-4.65,.99-7.69-1.18-11.48-2.17-3.79-8.47-12.36-8.47-12.36Z"/><path class="bl" d="M222.05,500.29c-.09-.17-.31-.23-.47-.14l-.08,.04c-2.2,1.19-6.02,3.43-6.95,5.08-1.11,1.97-1.03,3.19-1.03,3.24,.01,.18,.17,.32,.35,.32,0,0,.02,0,.03,0,.19-.01,.34-.18,.32-.37,0-.01-.06-1.08,.94-2.84,.09-.16,.23-.34,.4-.53,.26-.01,2.21-.06,3.64,1.66,.54,.65,.8,1.26,.73,1.75-.06,.45-.36,.68-.37,.69-.16,.11-.2,.33-.09,.48,.07,.1,.18,.15,.29,.15,.07,0,.14-.02,.2-.06,.02-.02,.56-.39,.67-1.15,.1-.7-.2-1.48-.89-2.3-1.16-1.4-2.61-1.79-3.48-1.89,1.17-1.01,3.12-2.28,5.58-3.61l.08-.05c.17-.09,.23-.31,.14-.47Z"/><path class="bi" d="M197.68,463.01l3.2-.67-.21-3.76s-.08-.02-.12-.03c-3.28-.92-10.12-5.9-10.12-5.9,0,0,4.54,6.17,7.24,10.36Z"/><path class="bh" d="M234.38,498.85c8.2,.81,15.07,4.98,15.07,4.98l5.86,1.72,2.04-.83s-1.41-2.56-1.6-2.97,2.74-.8,2.74-.8l-13.52-8.93s-5.97-6.85-10.74-10.74c-4.77-3.89-15.21-6.59-19.72-9.47-.58-.37-1.08-.77-1.52-1.18-2.85-.26-5.6,.03-7.12,1.66-2.14,2.29-2.96,8.26-3.26,13.3,1.3,2.56,2.95,4.86,4.53,6.42,3.39,3.34,11.44,5.34,12.71,6.39s-.31,2.9-.31,2.9l2.39,.39s4.25-3.66,12.45-2.85Z"/></g></g><g id="af"><polygon class="bn" points="228.45 426.9 221.1 291.97 209.88 292.59 207.25 292.59 213.53 420.58 216.86 420.58 217.24 427.51 228.45 426.9"/><path class="bg" d="M250.39,424.16h-12.84l-.62-8.09c-.17-2.26-2.02-4.03-4.29-4.09-5.04-.15-13.72-.39-19.1-.5-2.56-.05-4.64,2.07-4.52,4.63,.15,3.36,.35,7.41,.44,8.06h-7.26s-3.91,1.37-4.31,1.57v2.11c0,.13,2.91,0,2.91,0v1.58h1.4s48.24,.02,48.44-.28c.2-.3-.23-4.98-.23-4.98Z"/></g><g id="ag"><circle class="bj" cx="224.15" cy="419.43" r="3.21"/><circle class="bj" cx="231.66" cy="550.03" r="3.21"/></g></g><g id="ah"><g id="ai"><g id="aj"><path id="ak" class="bi" d="M352.88,661.35s2.81,14.24,2.41,23.27-6.22,49.94-6.22,49.94c0,0,2.01,14.64,1.2,18.25-.8,3.61-4.55,3.2-8.22,3.21s-3.41-2.01-11.23-3.01-19.26-2.61-19.26-2.61c0,0,12.44-5.62,15.44-8.22,3.01-2.61,5.22-6.62,6.82-10.63,1.6-4.01,2.01-21.26,2.01-25.47s-2.39-42.32-2.39-42.32l19.44-2.41Z"/><path id="al" class="bi" d="M328.81,674.79s2.81,12.24,3.01,18.45c.2,6.22-1.5,37.91-1.5,37.91,0,0-.49,14.24,0,18.05,.49,3.81,3.34,11.3-.78,13.71s-17.99-1.47-17.99-1.47c0,0-12.24-.2-14.44-2.01-2.21-1.81-2.04-2.11-2.14-2.71s.67-1.17,.67-1.17c0,0-.87-1.17-.43-2.11s1.81-1.27,1.81-1.27c0,0-.84-.77-.3-1.44s3.14-.67,4.68-.94,6.42-.4,7.96-1,4.55-1.87,5.35-3.81,2.14-2.27,0-16.85c-2.14-14.58-7.62-42.25-7.62-42.25l21.73-11.1Z"/></g><g id="am"><path id="an" class="bk" d="M296.1,554.65l-7.42,78.23s-1.82,26.17-.92,34.99c.9,8.82,1.05,20.97,6,19.57l4.95-1.4s8.83,4.41,12.03,3.81,9.43-3.21,9.43-3.21c0,0,3.61,2.21,11.03,2.01,7.42-.2,9.94-1.98,11.28-3.51,1.34-1.53,1.56-4.11,1.56-4.11,0,0,1.57,1.58,4.15,.88,4.25-1.15,6.3-3.49,6.3-3.49,0,0,2.79,.4,7.8-.2l5.01-.6-7.15-59.32-3.18-22.91s-7.52-27.18-8.22-27.48-3.18-14.64-3.18-14.64l-.43-7.12-45.03,1.6-4.01,6.92Z"/><path id="ao" class="bf" d="M345.57,553.24s-.74,1.81-3.74,4.41l-3.01,2.61-24.48-7.75-17.01-2.19s-7.26,25.59-7.26,32.61-1.4,36.91-1.4,36.91c0,0,6.82,3.41,18.85,1.81,12.03-1.6,16.85-.6,16.85-.6,0,0,1.6-19.05,4.01-28.48,2.41-9.43,5.62-26.88,6.62-26.88s3.01,.2,3.01,.2c0,0,8.62,3.61,13.44,13.64,4.81,10.03,8.83,39.71,8.83,39.71l4.81-.8s-2.01-3.41-4.01-11.03c-2.01-7.62-7.42-26.48-7.42-26.48,0,0-2.21-14.44-4.21-19.86s-3.88-7.82-3.88-7.82Z"/></g></g><g id="ap"><path class="bi" d="M346.54,471.51s-8.52-3.91-10.43-8.32c-1.91-4.41-4.01-20.66-4.01-20.66,0,0-16.95-4.81-17.95-5.01s-11.93-3.31-11.93-3.31c0,0-4.01,3.11-4.01,5.72s2.71,6.52,3.21,8.73,.23,5.05,1.3,6.52c1.07,1.47,2.81,3.41,3.61,5.22,.8,1.81,1.28,4.02,2.86,4.98,2.11,1.29,8.21,.08,9.47-.18,2.2,7.02,6.93,20.57,6.93,20.57,0,0,22.36-5.72,22.46-5.92s-1.5-8.32-1.5-8.32Z"/><g id="aq"><g id="ar"><path id="as" class="bi" d="M260.51,484.08c-.71-1.26-.16-3.7-.16-3.7,0,0,1.51-4.87,2.75-5.66s8.73-1.88,9.31-1.71c3.47,1.06,6.4,2.91,9.93,7.34,.75,.95,3.07,3.16,3.07,3.16,0,0,28.83,8.66,28.57,8.99s-6.41,13.49-6.52,13.16-16.6-11.25-20.72-12.76-7.84-1.41-9.15-1.97-6.05-2.91-6.27-3.09-5.63-1.62-6.25-2.99c-.77-1.7-.64-2.48,1.46-2.42s5.73,.44,5.73,.44c0,0,1.19-.25,1.17-.82-.02-.58-1.19-2.71-2.34-3.17s-2.15-1.14-3.03-.77-3.39,1.81-3.39,1.81c0,0-.8,3.08-1.81,4.08s-1.64,1.35-2.35,.09Z"/><g id="at"><path id="au" class="bk" d="M257.19,489.88l-.25-.21-.5-.19s-3.16,1.01,21.93-20.46c.41-.35,1.03-.27,1.34,.16h0c.38,.54,.3,1.29-.21,1.72-9.97,8.51-22.3,18.98-22.3,18.98Z"/><path id="av" class="be" d="M256.92,489.38c-.36-.25-1.48-.45-2.17,.24s-1.17,1.01-1.4,2.07c-.24,1.06-.07,1.73-.07,1.73,0,0,.49-.9,.92-1.23s2.25-.11,2.87-.61,.22-1.96-.15-2.21Z"/><path id="aw" class="bc" d="M263.78,483.14c-.11-.2-.37-.42-.74-.66-8.2,7.51-6.6,7-6.6,7l.5,.19,.25,.21s2.8-2.38,6.81-5.78c-.07-.48-.15-.82-.22-.96Z"/></g></g><path id="ax" class="be" d="M323.69,471.53c-.27,.04-.54,.12-.78,.24-2.01,1.08-17.1,5.81-18.79,8.26-1.44,2.07-7.9,12.82-10.49,17.13-.61,1.01-.33,2.32,.63,3l1,.7,13.35,8.91c.88,.58,1.23,1.7,.86,2.68l-13.38,34.99c-.51,1.34,.34,2.81,1.75,3.03,5.69,.9,18.77,2.77,25.29,2.16,7-.66,10.54-2.28,11.56-2.83,.23-.12,.49-.2,.75-.24,1.89-.24,9.38-1.25,10.6-1.95,1.15-.66,.41-7.25,.11-9.6-.07-.54,.05-1.07,.35-1.53,.99-1.49,3.21-4.96,3.45-6.12,.21-1.05,.13-2.33,.06-3.02-.03-.33,0-.66,.11-.98,.84-2.38,4.47-12.93,5.44-18.87,1.1-6.72,2.31-24.97,.6-29.59-1.7-4.61-6.98-8.43-10.63-8.73-3.27-.27-18.71,1.88-21.85,2.33Z"/><path id="ay" class="bi" d="M295.26,500.87l14.85,9.91s-7.01,25.59-9.02,28.64c-2.01,3.05-6.73,8.28-9.4,8.28s-4.48,.91-9.89-1.44c-6.98-3.04-8.99-6.51-8.99-6.51,0,0-9-5.23-10.03-6.35s-3.57-6.92-3.57-6.92c0,0-.03-.88,.68-1.18s1.58,.73,1.58,.73l-.84-2.77s.07-1.1,.7-1.4,2.17,.17,2.24,.07-.3-1.24,.74-1.7,2.99,1.59,2.99,1.59c0,0,.89-1.4,1.69-1.25s2.61,2.42,2.61,2.42l3.21,4.31,1.45,1s-.85-2.96-.25-3.36,1-.4,1.6,.2,2.01,2.51,2.01,2.51c0,0,3.11,3.21,3.21,4.21,.1,1,.1,2.01,.1,2.01l3.21-1.2,6.32-17.45,2.81-14.32Z"/></g><path id="az" class="bk" d="M315.86,417.15c-.6-.1-3.44,.33-5.04,.83s-3.78,1.78-3.78,1.78c0,0-3.04,1.28-5.45,3.57-.69,.65-2.68,3.65-2.68,3.65,0,0-4.21,4.71-4.81,7.22s-.5,7.22,1.2,9.43,5.01,4.31,5.01,4.31l-2.11-3.41,4.51,3.41s0-2.61,.3-2.41,2.91,2.41,2.91,2.41l2.75,.54s3.57,2.27,5.47,5.28c1.91,3.01,2.71,5.42,2.51,7.92s-2.11,8.32-2.31,11.83c-.2,3.51,.9,7.82,.9,7.82l1.43-3.31s.87-.2,1.47,2.21-1.3,7.02-1.5,9.03,.4,5.11,.4,5.11l1.22-2.81s-1.52,2.91-.62,5.11,4.04,5.72,4.04,5.72c0,0-.23-1.1,.57-3.91,.8-2.81,1.6-4.01,1.6-4.01l.6,2.61s1.4-5.11,3.11-7.62,4.21-9.73,4.11-14.24c-.1-4.51-.8-6.72-.8-6.72,0,0,1.6,2.91,4.91,4.61,3.31,1.7,8.02,1.7,8.02,1.7,0,0-3.71-.6-5.62-2.51-1.91-1.91-3.61-5.32-4.15-7.59-.53-2.27-.16-4.08,.72-6.12,.88-2.04,3.82-9.79,3.96-13.94s-2.27-13.24-2.27-13.24c0,0,2.54-4.95-.67-11.23-3.21-6.28-7.58-10.83-12.68-9.49-5.1,1.34-7.27,6.45-7.27,6.45Z"/><path id="ba" class="bi" d="M309.24,448.23s-2.13-3.36,0-3.2c2.13,.16,4.02,1.31,4.43,3.2,.41,1.88,.49,3.28,.49,4.75s1.64,2.62,0,3.2-2.46-3.61-3.11-4.67c-.66-1.07-1.8-3.28-1.8-3.28Z"/></g></g></g></svg>