<?xml version="1.0" encoding="UTF-8"?><svg id="a" xmlns="http://www.w3.org/2000/svg" viewBox="0 0 41.47 41.47"><defs><style>.b{fill:#a4df53;}.b,.c{stroke:#fff;stroke-miterlimit:10;stroke-width:.25px;}.c{fill:none;}</style></defs><circle class="c" cx="20.74" cy="20.74" r="2.43"/><circle class="c" cx="20.74" cy="20.74" r="4.7"/><circle class="c" cx="20.74" cy="20.74" r="6.97"/><path class="b" d="M20.74,6.94c-7.62,0-13.79,6.18-13.79,13.79s6.18,13.79,13.79,13.79,13.79-6.18,13.79-13.79-6.18-13.79-13.79-13.79Zm0,20.77c-3.85,0-6.97-3.12-6.97-6.97s3.12-6.97,6.97-6.97,6.97,3.12,6.97,6.97-3.12,6.97-6.97,6.97Z"/><circle class="c" cx="20.74" cy="20.74" r="9.25"/><circle class="c" cx="20.74" cy="20.74" r="11.52"/><circle class="c" cx="20.74" cy="20.74" r="16.07"/><circle class="c" cx="20.74" cy="20.74" r="18.34"/><circle class="c" cx="20.74" cy="20.74" r="20.61"/></svg>