<?xml version="1.0" encoding="UTF-8"?><svg id="a" xmlns="http://www.w3.org/2000/svg" viewBox="0 0 41.47 41.47"><defs><style>.b{fill:#390052;}.b,.c{stroke:#fff;stroke-miterlimit:10;stroke-width:.25px;}.c{fill:none;}</style></defs><path class="b" d="M20.74,.13C9.35,.13,.13,9.35,.13,20.74s9.23,20.61,20.61,20.61,20.61-9.23,20.61-20.61S32.12,.13,20.74,.13Zm0,34.41c-7.62,0-13.79-6.18-13.79-13.79S13.12,6.94,20.74,6.94s13.79,6.18,13.79,13.79-6.18,13.79-13.79,13.79Z"/><circle class="c" cx="20.74" cy="20.74" r="16.07"/><circle class="c" cx="20.74" cy="20.74" r="18.34"/><circle class="c" cx="20.74" cy="20.74" r="2.43"/><circle class="c" cx="20.74" cy="20.74" r="4.7"/><circle class="c" cx="20.74" cy="20.74" r="6.97"/><circle class="c" cx="20.74" cy="20.74" r="9.25"/><circle class="c" cx="20.74" cy="20.74" r="11.52"/></svg>